SplineFontDB: 3.0
FontName: TaameyAshkenaz-MediumOblique
FullName: Taamey Ashkenaz MediumOblique
FamilyName: Taamey Ashkenaz
Weight: Medium
Copyright: Copyright 2012 by Yoram Gnat (yoram.gnat@gmail.com)\nDistributed under the terms of GNU General Public License version 2(http://www.gnu.org/licenses/gpl.html).\n\nLatin glyphs and punctuation Copyright (URW)++,Copyright 1999 by (URW)++ Design & Development;\n \nHebrew Cantillation marks GSUB and GPOS OpenType positioning rules copyright (c) 2011-2012 by Yoram Gnat (yoram.gnat@gmail.com)\nDistributed under the terms of GNU General Public License version 2(http://www.gnu.org/licenses/gpl.html).\nInspired by the Hebrew OpenType Layout logic copyright (c) 2003 & 2007, Ralph Hancock & John Hudson published under the MIT License.\n\nAs a special exception, if you create a document which uses this font, and embed this font or unaltered portions of this font into the document, this font does not by itself cause the resulting document to be covered by the GNU General Public License. This exception does not however invalidate any other reasons why the document might be covered by the GNU General Public License. If you modify this font, you may extend this exception to your version of the font, but you are not obligated to do so. If you do not wish to do so, delete this exception statement from your version.
UComments: "The average width of a character (not including narrow chars) is 945.4" 
Version: 0.150yg
ItalicAngle: 13
UnderlinePosition: -170
UnderlineWidth: 70
Ascent: 1638
Descent: 410
LayerCount: 2
Layer: 0 0 "Back"  1
Layer: 1 0 "Fore"  0
XUID: [1021 594 1227166039 12540753]
FSType: 0
OS2Version: 0
OS2_WeightWidthSlopeOnly: 0
OS2_UseTypoMetrics: 1
CreationTime: 1244295734
ModificationTime: 1339337165
PfmFamily: 17
TTFWeight: 500
TTFWidth: 5
LineGap: 184
VLineGap: 0
Panose: 2 0 0 0 0 0 0 0 0 0
OS2TypoAscent: 0
OS2TypoAOffset: 1
OS2TypoDescent: 0
OS2TypoDOffset: 1
OS2TypoLinegap: 184
OS2WinAscent: 0
OS2WinAOffset: 1

StartChar: .null
Encoding: 0 -1 0
AltUni2: 000000.ffffffff.0 000000.ffffffff.0 000000.ffffffff.0 000000.ffffffff.0 000000.ffffffff.0 000000.ffffffff.0 000000.ffffffff.0 000000.ffffffff.0 000000.ffffffff.0 000000.ffffffff.0 000000.ffffffff.0 000000.ffffffff.0 000000.ffffffff.0 000000.ffffffff.0 000000.ffffffff.0 000000.ffffffff.0 000000.ffffffff.0 000000.ffffffff.0 000000.ffffffff.0 000000.ffffffff.0 000000.ffffffff.0 000000.ffffffff.0 000000.ffffffff.0 000000.ffffffff.0 000000.ffffffff.0 000000.ffffffff.0 000000.ffffffff.0 000000.ffffffff.0 000000.ffffffff.0 000000.ffffffff.0 000000.ffffffff.0 000000.ffffffff.0 000000.ffffffff.0 000000.ffffffff.0
Width: 1008
VWidth: 2273
GlyphClass: 2
Flags: W
HStem: -64 78<123 879> 154 132<354.724 469.834> 898 47<186.363 334.355> 1095 94<-127 629>
VStem: 101 71<815.224 887.304> 336 53<372.682 534.477> 344 136<165.432 275.38> 411 113<612.576 845.438>
LayerCount: 2
Fore
SplineSet
336 512 m 2xfd
 336 517 l 2
 336 550 346 553 398 655 c 0
 407 673 411 695 411 719 c 0
 411 826 345 898 257 898 c 0
 210 898 172 875 172 850 c 0
 172 849 173 847 173 845 c 0
 175 837 175 835 195 823 c 1
 220 804 240 783 240 753 c 0
 240 727 220 709 191 709 c 0
 143 709 101 759 101 821 c 0
 101 894 169 945 274 945 c 0
 394 945 493 872 518 762 c 0
 522 745 524 730 524 716 c 0
 524 669 500 632 437 561 c 0
 403 524 389 497 389 458 c 0
 389 435 394 407 402 371 c 1
 356 371 l 1
 356 371 336 451 336 512 c 2xfd
427 154 m 0
 390 154 344 189 344 235 c 0
 344 264 365 286 397 286 c 0
 437 286 480 251 480 205 c 0xfa
 480 176 459 154 427 154 c 0
-127 1095 m 1
 123 14 l 1
 879 14 l 1
 629 1095 l 1
 -127 1095 l 1
-235 1189 m 1
 694 1189 l 1
 984 -64 l 1
 55 -64 l 1
 -235 1189 l 1
EndSplineSet
Substitution2: "L1ccmpZWJbuginLinuxoverride subtable" zerojoin
EndChar

StartChar: exclam
Encoding: 2 33 2
Width: 422
VWidth: 1755
GlyphClass: 2
Flags: W
HStem: -25 220<117.674 263.676>
VStem: -169 247<1022.82 1205.92> 78 225<13.75 156.375>
LayerCount: 2
Fore
SplineSet
167 335 m 1xa0
 99 335 l 1
 23 649 -2 732 -73 897 c 0
 -106 973 -169 1110 -169 1201 c 0xc0
 -169 1254 -147 1291 -87 1291 c 0
 54 1291 78 1093 78 897 c 0
 78 732 98 643 167 335 c 1xa0
215 -25 m 0
 151 -25 78 33 78 111 c 0
 78 159 113 195 166 195 c 0
 231 195 303 137 303 60 c 0xa0
 303 11 268 -25 215 -25 c 0
EndSplineSet
EndChar

StartChar: quotedbl
Encoding: 3 34 3
Width: 772
VWidth: 1755
GlyphClass: 2
Flags: W
HStem: 1083 208<-133.498 30.7319 183.502 347.732>
VStem: 34 85<910.847 1080.04> 351 85<910.847 1080.01>
LayerCount: 2
Fore
SplineSet
245 1291 m 0
 350 1291 436 1188 436 1052 c 0
 436 1002 425 954 403 911 c 0
 385 878 362 856 301 799 c 1
 294 796 284 785 276 780 c 1
 225 829 l 1
 309 891 351 960 351 1029 c 0
 351 1047 349 1083 331 1083 c 2
 326 1083 l 1
 319 1081 312 1083 303 1083 c 0
 223 1083 152 1125 152 1207 c 0
 152 1256 188 1291 245 1291 c 0
-72 1291 m 0
 33 1291 119 1188 119 1052 c 0
 119 1002 108 954 86 911 c 0
 68 878 45 856 -16 799 c 1
 -23 796 -33 785 -41 780 c 1
 -92 829 l 1
 -8 891 34 960 34 1029 c 0
 34 1047 32 1083 14 1083 c 2
 9 1083 l 1
 2 1081 -5 1083 -14 1083 c 0
 -94 1083 -165 1125 -165 1207 c 0
 -165 1256 -129 1291 -72 1291 c 0
EndSplineSet
EndChar

StartChar: numbersign
Encoding: 4 35 4
Width: 975
VWidth: 1755
GlyphClass: 2
Flags: W
HStem: 0 21G<168.3 284 498.3 614> 400 99<-43 127 250 457 580 748> 730 99<-73 98 220 428 550 719>
LayerCount: 2
Fore
SplineSet
136 400 m 1
 -43 400 l 1
 -66 499 l 1
 127 499 l 1
 107 730 l 1
 -73 730 l 1
 -95 829 l 1
 98 829 l 1
 66 1204 l 1
 180 1204 l 1
 212 829 l 1
 428 829 l 1
 396 1204 l 1
 510 1204 l 1
 542 829 l 1
 719 829 l 1
 741 730 l 1
 550 730 l 1
 571 499 l 1
 748 499 l 1
 771 400 l 1
 580 400 l 1
 614 0 l 1
 500 0 l 1
 466 400 l 1
 250 400 l 1
 284 0 l 1
 170 0 l 1
 136 400 l 1
220 730 m 1
 241 499 l 1
 457 499 l 1
 436 730 l 1
 220 730 l 1
EndSplineSet
EndChar

StartChar: dollar
Encoding: 5 36 5
Width: 960
VWidth: 1755
GlyphClass: 2
Flags: W
HStem: -20 77<252.962 424 524 615.709> 1141 80<57.8935 155 256 411.314>
VStem: -116 116<862.61 1094.07> 404 217<874.216 1035.1> 700 123<126.377 377.17>
LayerCount: 2
Fore
SplineSet
106 410 m 0
 174 410 241 352 241 271 c 0
 241 238 224 215 184 188 c 0
 175 183 172 178 174 169 c 0
 186 115 298 57 424 57 c 1
 311 546 l 1
 211 574 154 594 103 621 c 0
 -6 679 -80 775 -106 889 c 0
 -113 917 -116 944 -116 970 c 0
 -116 1108 -21 1198 155 1221 c 1
 113 1405 l 1
 196 1405 l 1
 238 1223 l 1
 429 1223 584 1106 616 965 c 0
 619 950 621 937 621 924 c 0
 621 872 591 842 537 842 c 0
 470 842 404 891 404 969 c 0
 404 994 416 1012 449 1040 c 1
 453 1045 456 1053 455 1058 c 0
 446 1095 351 1144 256 1144 c 1
 356 710 l 1
 367 707 372 705 399 698 c 0
 538 659 610 628 676 576 c 1
 760 507 823 397 823 252 c 0
 823 88 717 -17 524 -17 c 1
 573 -228 l 1
 490 -228 l 1
 442 -20 l 1
 222 -20 52 104 16 260 c 0
 12 276 11 290 11 304 c 0
 11 368 47 410 106 410 c 0
267 737 m 1
 174 1141 l 1
 67 1141 0 1073 0 987 c 0
 0 974 4 960 7 946 c 0
 30 844 101 788 267 737 c 1
507 58 m 1
 622 71 700 135 700 244 c 0
 700 260 699 275 695 291 c 0
 673 386 598 458 478 500 c 0
 452 509 453 509 399 523 c 1
 507 58 l 1
EndSplineSet
EndChar

StartChar: percent
Encoding: 6 37 6
Width: 1450
VWidth: 1755
GlyphClass: 2
Flags: W
HStem: 0 21G<318 412.851> 27 68<919.655 1091.33> 563 67<95.1364 269.07> 633 71<987.613 1136.92> 1057 65<424.238 649.842> 1223 20G<98 228>
VStem: -117 165<696.756 988.905> 386 66<779.548 1075.36> 708 163<159.189 451.385> 1212 66<245.688 546.164>
LayerCount: 2
Fore
SplineSet
-117 855 m 0
 -117 1042 3 1243 193 1243 c 0
 263 1243 313 1220 372 1160 c 1
 431 1130 465 1122 509 1122 c 0
 621 1122 711 1172 759 1267 c 1
 840 1267 l 1
 406 0 l 1
 318 0 l 1
 694 1107 l 1
 638 1068 598 1057 538 1057 c 0
 501 1057 471 1062 423 1077 c 1
 442 1025 452 987 452 925 c 0
 452 844 430 760 391 697 c 0
 335 606 264 563 165 563 c 0
 13 563 -117 682 -117 855 c 0
48 789 m 0
 48 697 99 630 177 630 c 0
 296 630 386 785 386 940 c 0
 386 997 374 1053 347 1102 c 1
 294 1119 264 1137 223 1174 c 1
 157 1149 139 1128 99 1011 c 0
 63 906 48 842 48 789 c 0
995 27 m 0
 832 27 708 148 708 326 c 0
 708 403 729 484 767 551 c 1
 825 650 909 704 1013 704 c 0
 1162 704 1278 580 1278 406 c 0
 1278 321 1254 229 1212 156 c 0
 1166 74 1086 27 995 27 c 0
871 250 m 0
 871 162 923 95 998 95 c 0
 1117 95 1212 241 1212 402 c 0
 1212 431 1209 461 1202 491 c 0
 1183 570 1120 633 1060 633 c 0
 1006 633 969 595 935 506 c 0
 891 391 871 312 871 250 c 0
EndSplineSet
EndChar

StartChar: ampersand
Encoding: 7 38 7
Width: 1387
VWidth: 1755
GlyphClass: 2
Flags: W
HStem: -27 120<372.014 635.229> -20 139<934.327 1153.84> 633 76<649 815.963 1006.91 1125> 1218 75<231.31 404.517>
VStem: -29 169<329.391 562.562> 51 153<947.348 1199.84> 492 140<870.501 1136.95> 1183 82<149.76 286>
LayerCount: 2
Fore
SplineSet
848 500 m 0xb7
 848 600 796 633 666 633 c 2
 649 633 l 1
 631 709 l 1
 1125 709 l 1
 1143 633 l 1
 1125 633 l 2
 1068 633 1023 616 998 586 c 1
 975 554 976 554 927 395 c 1
 904 325 903 317 850 226 c 1
 937 151 1003 119 1068 119 c 0
 1142 119 1183 179 1183 282 c 2
 1183 296 l 1
 1262 286 l 1
 1262 265 1265 246 1265 228 c 0
 1265 186 1259 150 1243 114 c 0
 1202 21 1138 -20 1026 -20 c 0x77
 929 -20 853 13 749 99 c 1
 655 12 567 -27 441 -27 c 0
 324 -27 219 11 138 81 c 0
 61 148 0 246 -20 332 c 0
 -26 358 -29 383 -29 407 c 0xbb
 -29 533 48 642 194 722 c 1
 114 838 79 906 61 983 c 0
 54 1013 51 1042 51 1068 c 0
 51 1206 141 1293 295 1293 c 0
 458 1293 592 1198 625 1057 c 0
 629 1037 632 1018 632 998 c 0
 632 925 602 856 548 811 c 0
 510 779 483 764 397 722 c 1
 547 529 671 388 781 286 c 1
 824 354 848 433 848 500 c 0xb7
492 992 m 0
 492 1120 405 1218 308 1218 c 0
 244 1218 204 1171 204 1099 c 0
 204 1083 206 1064 211 1045 c 0
 226 980 269 900 344 795 c 1
 376 812 378 812 389 821 c 1
 458 864 492 921 492 992 c 0
245 650 m 1
 173 601 140 551 140 484 c 0
 140 466 142 447 147 427 c 0
 188 251 365 93 519 93 c 0xbb
 577 93 615 109 681 158 c 1
 491 332 414 422 245 650 c 1
EndSplineSet
EndChar

StartChar: quotesingle
Encoding: 8 39 8
Width: 456
VWidth: 1755
GlyphClass: 2
Flags: W
HStem: 1093 208<-133.362 29.8797>
VStem: 32 85<920.847 1092.22>
LayerCount: 2
Fore
SplineSet
-73 1301 m 0
 33 1301 117 1197 117 1060 c 0
 117 1011 106 963 84 921 c 0
 67 888 44 866 -18 809 c 1
 -24 806 -35 795 -42 790 c 1
 -94 839 l 1
 -10 901 32 970 32 1039 c 0
 32 1056 31 1093 13 1093 c 2
 8 1093 l 1
 1 1091 -6 1093 -15 1093 c 0
 -95 1093 -167 1137 -167 1218 c 0
 -167 1267 -129 1301 -73 1301 c 0
EndSplineSet
EndChar

StartChar: parenleft
Encoding: 9 40 9
Width: 551
VWidth: 1755
GlyphClass: 2
Flags: W
VStem: -85 161<649.03 1111.88>
LayerCount: 2
Fore
SplineSet
192 1400 m 1
 206 1337 l 1
 118 1240 76 1127 76 973 c 0
 76 881 91 775 120 649 c 0
 198 312 313 113 524 -41 c 1
 539 -106 l 1
 403 -32 332 21 246 105 c 1
 93 261 -15 449 -61 649 c 0
 -77 720 -85 789 -85 856 c 0
 -85 991 -53 1116 12 1221 c 0
 56 1291 102 1335 192 1400 c 1
EndSplineSet
EndChar

StartChar: parenright
Encoding: 10 41 10
Width: 557
VWidth: 1755
GlyphClass: 2
Flags: W
VStem: 178 162<184.595 645.97>
LayerCount: 2
Fore
SplineSet
63 -109 m 1
 48 -44 l 1
 136 52 178 166 178 320 c 0
 178 413 163 519 134 646 c 0
 56 983 -58 1180 -270 1334 c 1
 -285 1400 l 1
 -150 1328 -78 1274 9 1188 c 1
 161 1034 269 846 315 646 c 0
 331 575 340 504 340 437 c 0
 340 302 307 178 242 74 c 1
 199 2 153 -44 63 -109 c 1
EndSplineSet
EndChar

StartChar: asterisk
Encoding: 11 42 11
Width: 885
VWidth: 1755
GlyphClass: 2
Flags: W
HStem: 445 153<-13.7267 129.507 513.473 638.116> 747 152<-80.8947 43.8996 429.009 570.515>
VStem: 132 152<902.235 1034.12> 273 152<305.297 439.947>
LayerCount: 2
Fore
SplineSet
13 747 m 0xe0
 -47 747 -99 787 -99 845 c 0
 -99 875 -76 899 -41 899 c 0
 -9 899 12 887 49 850 c 1
 110 785 137 763 189 736 c 1
 252 705 l 1
 238 768 l 2
 225 825 218 838 162 924 c 1
 143 951 132 965 132 991 c 0
 132 1024 157 1053 190 1053 c 0
 228 1053 284 1010 284 960 c 0xe0
 284 951 266 864 266 833 c 0
 266 812 268 791 273 768 c 2
 288 705 l 1
 337 736 l 1
 377 764 394 785 425 850 c 1
 444 887 459 899 491 899 c 0
 537 899 584 862 584 810 c 0
 584 774 558 753 509 747 c 0
 431 738 406 731 363 703 c 1
 316 671 l 1
 377 640 l 1
 433 613 457 607 543 598 c 0
 606 591 656 559 656 499 c 0
 656 468 631 445 596 445 c 0
 564 445 543 457 507 494 c 0
 446 559 419 580 367 608 c 1
 303 640 l 1
 318 576 l 2
 331 519 341 502 396 418 c 0
 412 392 425 376 425 350 c 0
 425 318 399 288 367 288 c 0
 320 288 273 333 273 391 c 0xd0
 273 400 274 409 276 418 c 1
 286 465 291 491 291 514 c 0
 291 533 288 550 282 576 c 2
 267 640 l 1
 219 608 l 1
 176 578 163 559 132 492 c 1
 112 457 96 445 64 445 c 0
 18 445 -27 483 -27 536 c 0
 -27 571 -2 592 47 598 c 0
 127 607 149 613 193 641 c 2
 240 671 l 1
 179 703 l 2
 124 731 93 747 13 747 c 0xe0
EndSplineSet
EndChar

StartChar: plus
Encoding: 12 43 12
Width: 1001
VWidth: 1755
GlyphClass: 2
Flags: W
HStem: 568 140<-73 268 440 780>
LayerCount: 2
Fore
SplineSet
268 708 m 1
 182 1080 l 1
 322 1080 l 1
 408 708 l 1
 780 708 l 1
 812 568 l 1
 440 568 l 1
 526 194 l 1
 386 194 l 1
 300 568 l 1
 -73 568 l 1
 -105 708 l 1
 268 708 l 1
EndSplineSet
EndChar

StartChar: comma
Encoding: 13 44 13
Width: 466
VWidth: 1755
GlyphClass: 2
Flags: W
HStem: -20 209<108.621 273.135>
VStem: 275 85<-180.117 -19.2491>
LayerCount: 2
Fore
SplineSet
168 189 m 0
 269 189 360 86 360 -50 c 0
 360 -146 307 -233 200 -321 c 1
 148 -272 l 1
 232 -202 275 -131 275 -66 c 0
 275 -48 273 -17 255 -17 c 2
 249 -17 l 1
 246 -19 229 -20 222 -20 c 0
 146 -20 75 28 75 108 c 0
 75 155 112 189 168 189 c 0
EndSplineSet
EndChar

StartChar: hyphen
Encoding: 14 45 14
Width: 674
VWidth: 1755
GlyphClass: 2
Flags: W
HStem: 556 146<-9 394>
VStem: -43 471
LayerCount: 2
Fore
SplineSet
-43 702 m 1
 394 702 l 1
 428 556 l 1
 -9 556 l 1
 -43 702 l 1
EndSplineSet
EndChar

StartChar: period
Encoding: 15 46 15
Width: 427
VWidth: 1755
GlyphClass: 2
Flags: W
HStem: -25 220<112.128 258.676>
VStem: 72 226<15.0114 156.375>
LayerCount: 2
Fore
SplineSet
210 -25 m 0
 146 -25 72 33 72 110 c 0
 72 159 108 195 161 195 c 0
 226 195 298 137 298 60 c 0
 298 11 263 -25 210 -25 c 0
EndSplineSet
EndChar

StartChar: slash
Encoding: 16 47 16
Width: 638
VWidth: 1755
GlyphClass: 2
Flags: W
VStem: 45 266
LayerCount: 2
Fore
SplineSet
209 1291 m 1
 311 1291 l 1
 147 -25 l 1
 45 -25 l 1
 209 1291 l 1
EndSplineSet
EndChar

StartChar: zero
Encoding: 17 48 17
Width: 975
VWidth: 1755
GlyphClass: 2
Flags: W
HStem: -27 76<375.89 560.612> 1160 76<134.993 322.288>
VStem: -92 165<651.018 1057.57> 622 171<142.964 547.711>
LayerCount: 2
Fore
SplineSet
214 1236 m 0
 325 1236 451 1168 546 1057 c 1
 648 936 722 781 765 595 c 0
 784 514 793 439 793 370 c 0
 793 129 682 -27 490 -27 c 0
 253 -27 19 238 -65 600 c 0
 -83 680 -92 755 -92 824 c 0
 -92 1071 21 1236 214 1236 c 0
477 49 m 0
 562 49 622 140 622 256 c 0
 622 332 602 443 560 626 c 0
 505 867 466 970 400 1051 c 0
 342 1121 276 1160 218 1160 c 0
 128 1160 73 1064 73 943 c 0
 73 874 88 780 121 637 c 0
 187 351 228 240 296 158 c 0
 354 88 419 49 477 49 c 0
EndSplineSet
EndChar

StartChar: one
Encoding: 18 49 18
Width: 975
VWidth: 1755
GlyphClass: 2
Flags: W
HStem: 0 82<176 413.905 603.861 852> 1030 75<-55 140.413> 1216 20G<258 352.5>
LayerCount: 2
Fore
SplineSet
280 1236 m 1
 343 1236 l 1
 362 1112 379 1027 399 941 c 2
 566 216 l 2
 589 119 589 119 603 107 c 0
 621 90 662 82 755 82 c 2
 852 82 l 1
 871 0 l 1
 176 0 l 1
 157 82 l 1
 271 82 l 2
 382 82 414 88 414 126 c 0
 414 137 412 149 408 165 c 2
 234 919 l 2
 210 1023 201 1030 99 1030 c 2
 -55 1030 l 1
 -72 1105 l 1
 88 1108 236 1164 280 1236 c 1
EndSplineSet
EndChar

StartChar: two
Encoding: 19 50 19
Width: 975
VWidth: 1755
GlyphClass: 2
Flags: W
HStem: 0 165<215 720.165> 720 206<-16.1719 121.781> 1160 76<48.7541 323.897>
VStem: -128 107<958.967 1103.42> 478 205<652.384 982.774> 722 77<278.383 379>
LayerCount: 2
Fore
SplineSet
64 720 m 0
 -35 720 -128 831 -128 972 c 0
 -128 1125 3 1236 199 1236 c 0
 427 1236 627 1091 673 893 c 0
 679 865 683 837 683 810 c 0
 683 756 670 704 644 653 c 1
 616 601 561 539 430 416 c 0
 338 329 307 291 215 165 c 1
 608 165 l 2
 708 165 725 176 725 263 c 2
 725 290 l 1
 722 379 l 1
 799 379 l 1
 853 0 l 1
 62 0 l 1
 51 49 l 1
 104 151 126 191 172 265 c 1
 354 521 l 2
 439 640 478 737 478 835 c 0
 478 1033 349 1160 181 1160 c 0
 74 1160 -21 1105 -21 1000 c 0
 -21 992 -20 985 -19 979 c 0
 -14 956 -9 954 62 926 c 1
 111 909 151 859 151 798 c 0
 151 751 119 720 64 720 c 0
EndSplineSet
EndChar

StartChar: three
Encoding: 20 51 20
Width: 975
VWidth: 1755
GlyphClass: 2
Flags: W
HStem: -27 76<256.844 549.818> 604 79<151.015 415.05> 1160 76<59.6398 324.324>
VStem: -105 123<958 1125.03> 8 235<206.911 375.766> 456 177<731.054 1018.76> 615 193<103.082 422.635>
LayerCount: 2
Fore
SplineSet
102 416 m 0xea
 172 416 243 358 243 278 c 0
 243 248 229 225 196 202 c 0
 166 182 163 178 166 163 c 0
 179 109 312 49 423 49 c 0
 548 49 615 115 615 235 c 0xea
 615 264 611 297 603 333 c 0
 560 518 454 604 307 604 c 0
 284 604 232 598 217 598 c 0
 179 598 150 616 150 655 c 0
 150 677 166 688 197 688 c 0
 226 688 284 683 307 683 c 0
 405 683 456 734 456 834 c 0
 456 862 451 895 443 931 c 0
 409 1080 323 1160 197 1160 c 0
 110 1160 18 1115 18 1069 c 0
 18 1055 27 1040 49 1027 c 0
 101 995 127 967 127 909 c 0
 127 862 97 832 45 832 c 0
 -40 832 -105 907 -105 1009 c 0
 -105 1141 15 1236 197 1236 c 0
 415 1236 583 1117 625 934 c 0
 631 910 633 887 633 865 c 0xf4
 633 773 585 701 496 660 c 0
 485 655 482 655 459 646 c 1
 652 595 760 495 798 330 c 0
 805 300 808 272 808 245 c 0
 808 78 678 -27 460 -27 c 0
 235 -27 53 90 14 261 c 0
 10 279 8 295 8 310 c 0
 8 374 42 416 102 416 c 0xea
EndSplineSet
EndChar

StartChar: four
Encoding: 21 52 21
Width: 975
VWidth: 1755
GlyphClass: 2
Flags: W
HStem: 0 82<365 509.905 687.841 859> 307 98<62 448 641 831> 1216 20G<351.229 447.5>
LayerCount: 2
Fore
SplineSet
361 1236 m 1
 437 1236 l 1
 458 1104 457 1105 507 886 c 2
 618 405 l 1
 831 405 l 1
 854 307 l 1
 641 307 l 1
 674 165 l 2
 691 91 710 82 852 82 c 2
 859 82 l 1
 878 0 l 1
 365 0 l 1
 346 82 l 1
 366 82 l 2
 478 82 510 88 510 126 c 0
 510 137 508 149 504 165 c 2
 471 307 l 1
 -22 307 l 1
 -45 405 l 1
 361 1236 l 1
448 405 m 1
 326 937 l 1
 62 405 l 1
 448 405 l 1
EndSplineSet
EndChar

StartChar: five
Encoding: 22 53 22
Width: 975
VWidth: 1755
GlyphClass: 2
Flags: W
HStem: -27 76<256.808 552.041> 704 88<126.908 421.402> 1008 175<52.0127 460.794> 1216 20G<-60.5 23>
VStem: -25 128<540.281 640.439> 14 237<200.632 369.5> 620 184<115.436 465.053>
LayerCount: 2
Fore
SplineSet
48 534 m 0xfa
 10 534 -25 565 -25 612 c 0xfa
 -25 632 -17 653 5 683 c 1
 -20 901 -47 1089 -74 1236 c 1
 120 1192 187 1183 299 1183 c 0
 399 1183 445 1192 522 1229 c 1
 530 1234 539 1236 544 1236 c 0
 558 1236 562 1226 562 1213 c 0
 562 1197 556 1175 549 1157 c 0
 513 1060 416 1008 267 1008 c 0
 198 1008 149 1014 49 1037 c 1
 87 739 l 1
 175 779 227 792 301 792 c 0
 538 792 735 632 790 393 c 0
 799 353 804 315 804 279 c 0
 804 88 671 -27 438 -27 c 0
 347 -27 271 -7 202 32 c 1
 110 86 39 174 19 261 c 0
 16 274 14 287 14 300 c 0
 14 363 53 409 112 409 c 0
 181 409 251 350 251 270 c 0xf6
 251 241 236 221 201 196 c 0
 183 184 175 170 178 158 c 0
 190 104 312 49 417 49 c 0
 559 49 620 121 620 246 c 0
 620 286 614 332 602 382 c 0
 556 582 432 704 276 704 c 0
 206 704 153 685 101 641 c 1
 103 629 103 619 103 609 c 0
 103 560 85 534 48 534 c 0xfa
EndSplineSet
EndChar

StartChar: six
Encoding: 23 54 23
Width: 975
VWidth: 1755
GlyphClass: 2
Flags: W
HStem: -27 76<376.498 593.242> 648 107<237.254 494.236> 1160 76<204.756 425.948>
VStem: -77 177<600.025 1019.23> 417 224<932.305 1106.34> 644 182<119.125 462.833>
LayerCount: 2
Fore
SplineSet
320 1160 m 0
 176 1160 100 1033 100 863 c 0
 100 805 110 731 130 596 c 1
 187 707 265 755 384 755 c 0
 582 755 767 600 815 393 c 0
 823 361 826 328 826 296 c 0
 826 100 701 -27 508 -27 c 0
 248 -27 28 199 -51 541 c 0
 -69 617 -77 692 -77 763 c 0
 -77 870 -57 969 -19 1050 c 1
 38 1167 157 1236 301 1236 c 0
 466 1236 609 1146 637 1025 c 0
 640 1013 641 1001 641 991 c 0
 641 935 606 899 550 899 c 0
 484 899 417 951 417 1026 c 0
 417 1044 421 1063 428 1085 c 0
 430 1092 431 1098 431 1103 c 0
 431 1143 379 1160 320 1160 c 0
186 459 m 0
 186 267 325 49 495 49 c 0
 592 49 644 122 644 244 c 0
 644 284 639 330 627 380 c 0
 589 547 487 648 361 648 c 0
 248 648 186 578 186 459 c 0
EndSplineSet
EndChar

StartChar: seven
Encoding: 24 55 24
Width: 975
VWidth: 1755
GlyphClass: 2
Flags: W
HStem: 1070 146<5.96875 502.762> 1216 20G<-124.929 -30.5 553.5 611.615>
VStem: -83 80<811 949.473> 323 236<31.7443 296.044>
LayerCount: 2
Fore
SplineSet
397 1058 m 0xb0
 316 1058 163 1070 55 1070 c 0xb0
 4 1070 -3 1053 -3 937 c 2
 -3 799 l 1
 -83 811 l 1
 -127 1236 l 1x70
 66 1224 188 1216 337 1216 c 0
 444 1216 500 1220 607 1229 c 1
 619 1177 l 1
 615 1154 613 1138 612 1135 c 2
 571 971 l 1
 520 744 495 603 495 481 c 0
 495 382 511 295 542 184 c 1
 553 138 559 99 559 68 c 0
 559 6 534 -25 475 -25 c 0
 406 -25 352 26 334 105 c 0
 327 136 323 173 323 216 c 0
 323 275 330 345 343 422 c 0
 362 529 369 558 441 819 c 1
 505 1058 l 1
 489 1057 475 1057 462 1057 c 0
 435 1057 414 1058 397 1058 c 0xb0
EndSplineSet
EndChar

StartChar: eight
Encoding: 25 56 25
Width: 975
VWidth: 1755
GlyphClass: 2
Flags: W
HStem: -27 76<303.184 621.887> 1160 76<89.2584 368.893>
VStem: -87 122<887.453 1113.14> -4 143<209.082 497.928> 509 127<766.725 1034.97> 702 128<116.935 370.54>
LayerCount: 2
Fore
SplineSet
-4 364 m 0xdc
 -4 499 76 556 189 604 c 1
 118 637 85 657 47 692 c 1
 -14 746 -61 826 -78 901 c 0
 -84 928 -87 953 -87 978 c 0xec
 -87 1130 30 1236 215 1236 c 0
 417 1236 591 1117 628 956 c 0
 633 934 636 913 636 893 c 0
 636 809 591 743 498 685 c 1
 572 655 608 636 650 606 c 0
 737 543 796 453 820 353 c 0
 826 324 830 296 830 268 c 0
 830 67 687 -27 475 -27 c 0
 363 -27 262 0 182 49 c 1
 95 106 26 200 4 295 c 0
 -2 319 -4 342 -4 364 c 0xdc
509 886 m 0
 509 1053 375 1160 227 1160 c 0
 106 1160 35 1103 35 1015 c 0
 35 1002 37 988 40 974 c 0
 64 872 141 805 295 753 c 2
 420 710 l 1
 482 774 509 825 509 886 c 0
453 511 m 1
 278 569 l 1
 183 520 139 462 139 376 c 0xdc
 139 351 143 325 150 295 c 0
 185 141 303 49 466 49 c 0
 615 49 702 116 702 225 c 0
 702 242 700 260 696 279 c 0
 669 395 598 464 453 511 c 1
EndSplineSet
EndChar

StartChar: nine
Encoding: 26 57 26
Width: 975
VWidth: 1755
GlyphClass: 2
Flags: W
HStem: -27 76<272.596 496.723> 449 105<208.591 461.535> 1160 76<104.802 326.034>
VStem: -130 181<746.847 1087.88> 55 225<96.1875 267.723> 593 182<187.244 604.812>
LayerCount: 2
Fore
SplineSet
280 176 m 0
 280 163 267 127 267 103 c 0
 267 63 312 49 375 49 c 0
 492 49 572 125 587 255 c 0
 591 286 593 313 593 343 c 0
 593 400 586 470 568 609 c 1
 501 490 436 449 312 449 c 0
 112 449 -70 603 -118 812 c 0
 -126 848 -130 883 -130 916 c 0
 -130 1102 -6 1236 185 1236 c 0
 446 1236 668 1009 750 656 c 0
 767 581 775 508 775 439 c 0
 775 341 759 252 726 176 c 0
 670 46 550 -27 391 -27 c 0
 230 -27 86 61 59 177 c 0
 57 188 55 198 55 208 c 0
 55 263 92 303 149 303 c 0
 211 303 280 249 280 176 c 0
341 554 m 0
 440 554 514 618 514 728 c 0
 514 759 509 796 500 834 c 0
 455 1030 339 1160 209 1160 c 0
 132 1160 92 1132 68 1063 c 1
 57 1036 51 1000 51 960 c 0
 51 924 56 884 65 844 c 0
 108 658 207 554 341 554 c 0
EndSplineSet
EndChar

StartChar: colon
Encoding: 27 58 27
Width: 487
VWidth: 1755
GlyphClass: 2
Flags: W
HStem: -25 220<168.128 313.676> 611 219<21.1276 167.026>
VStem: -19 225<650.285 791.75> 128 225<15.0114 156.375>
LayerCount: 2
Fore
SplineSet
266 -25 m 0xd0
 202 -25 128 33 128 111 c 0
 128 159 163 195 216 195 c 0
 281 195 353 137 353 60 c 0
 353 11 319 -25 266 -25 c 0xd0
119 611 m 0
 55 611 -19 669 -19 747 c 0
 -19 795 16 830 69 830 c 0
 135 830 206 773 206 695 c 0xe0
 206 646 172 611 119 611 c 0
EndSplineSet
EndChar

StartChar: semicolon
Encoding: 28 59 28
Width: 487
VWidth: 1755
GlyphClass: 2
Flags: W
HStem: -20 209<150.005 314.451> 609 220<23.2212 169.676>
VStem: -16 225<647.75 790.5> 315 87<-183.781 -18.7842>
LayerCount: 2
Fore
SplineSet
209 189 m 0
 310 189 402 87 402 -49 c 0
 402 -146 349 -233 241 -321 c 1
 189 -272 l 1
 273 -202 315 -131 315 -66 c 0
 315 -48 313 -17 295 -17 c 2
 290 -17 l 1
 287 -19 270 -20 263 -20 c 0
 187 -20 117 28 117 108 c 0
 117 156 153 189 209 189 c 0
120 609 m 0
 56 609 -16 667 -16 745 c 0
 -16 793 19 829 72 829 c 0
 137 829 209 771 209 695 c 0
 209 645 173 609 120 609 c 0
EndSplineSet
EndChar

StartChar: less
Encoding: 29 60 29
Width: 1063
VWidth: 1755
GlyphClass: 2
Flags: W
LayerCount: 2
Fore
SplineSet
801 769 m 1
 178 444 l 1
 952 119 l 1
 986 -30 l 1
 0 377 l 1
 -32 511 l 1
 767 918 l 1
 801 769 l 1
EndSplineSet
EndChar

StartChar: equal
Encoding: 30 61 30
Width: 1063
VWidth: 1755
GlyphClass: 2
Flags: W
HStem: 196 141<44 896> 551 141<-38 814>
LayerCount: 2
Fore
SplineSet
44 196 m 1
 11 337 l 1
 896 337 l 1
 929 196 l 1
 44 196 l 1
-38 551 m 1
 -71 692 l 1
 814 692 l 1
 847 551 l 1
 -38 551 l 1
EndSplineSet
EndChar

StartChar: greater
Encoding: 31 62 31
Width: 1063
VWidth: 1755
GlyphClass: 2
Flags: W
LayerCount: 2
Fore
SplineSet
-94 769 m 1
 -128 918 l 1
 860 511 l 1
 891 377 l 1
 91 -30 l 1
 57 119 l 1
 679 444 l 1
 -94 769 l 1
EndSplineSet
EndChar

StartChar: question
Encoding: 32 63 32
Width: 778
VWidth: 1755
GlyphClass: 2
Flags: W
HStem: -27 220<245.688 391.223> 1213 78<-58.8427 188.265>
VStem: -200 118<1031.32 1190.59> 194 85<336.599 603.125> 206 225<11.75 153.271> 212 91<335 480.384> 316 189<775.441 1075.29>
LayerCount: 2
Fore
SplineSet
279 482 m 0xf2
 279 448 289 384 303 335 c 1
 226 335 l 1
 212 392 l 2xe4
 199 449 194 489 194 524 c 0
 194 540 195 554 197 569 c 0
 205 631 206 630 295 807 c 1
 309 838 316 875 316 915 c 0
 316 1094 205 1213 60 1213 c 0
 -18 1213 -82 1176 -82 1134 c 0
 -82 1111 -77 1109 -44 1087 c 1
 1 1056 31 1024 31 971 c 0
 31 928 0 897 -49 897 c 0
 -128 897 -200 980 -200 1083 c 0
 -200 1207 -87 1291 88 1291 c 0
 288 1291 452 1169 494 986 c 0
 501 957 505 932 505 908 c 0
 505 830 465 768 361 651 c 1
 304 590 279 548 279 482 c 0xf2
343 -27 m 0
 279 -27 206 31 206 109 c 0
 206 157 240 193 293 193 c 0
 358 193 431 135 431 58 c 0xe8
 431 9 396 -27 343 -27 c 0
EndSplineSet
EndChar

StartChar: at
Encoding: 33 64 33
Width: 1293
VWidth: 1755
GlyphClass: 2
Flags: W
HStem: -25 90<466.844 870.274> 268 70<406.889 537.009 763.899 889.492> 881 72<413.095 545.875> 1202 89<217.537 612.805>
VStem: -90 99<557.034 993.734> 176 170<438.745 808.225> 622 132<337.094 407 839 936> 985 90<442.781 841.516>
LayerCount: 2
Fore
SplineSet
754 429 m 0
 754 379 767 335 814 335 c 0
 859 335 913 382 948 456 c 0
 972 507 985 574 985 640 c 0
 985 678 980 717 972 752 c 0
 945 871 861 995 750 1081 c 1
 648 1162 537 1202 414 1202 c 0
 164 1202 9 1036 9 789 c 0
 9 740 15 688 28 633 c 0
 105 301 378 65 685 65 c 0
 859 65 983 156 1042 330 c 1
 1149 330 l 1
 1134 253 1095 185 1036 116 c 1
 953 25 833 -25 692 -25 c 0
 347 -25 16 257 -69 625 c 0
 -83 686 -90 746 -90 802 c 0
 -90 921 -60 1027 -0 1109 c 0
 85 1223 229 1291 385 1291 c 0
 690 1291 993 1055 1061 764 c 0
 1070 723 1075 682 1075 642 c 0
 1075 527 1037 421 966 348 c 0
 910 290 842 258 777 258 c 0
 693 258 622 320 622 407 c 1
 577 305 536 268 466 268 c 0
 408 268 338 301 287 348 c 0
 219 410 176 519 176 629 c 0
 176 698 193 768 231 827 c 1
 283 902 365 953 442 953 c 0
 509 953 574 911 611 839 c 1
 611 936 l 1
 754 936 l 1
 754 429 l 0
603 635 m 0
 603 749 568 881 483 881 c 0
 443 881 409 854 390 807 c 0
 362 739 346 657 346 580 c 0
 346 464 392 338 473 338 c 0
 563 338 603 497 603 635 c 0
EndSplineSet
EndChar

StartChar: bracketleft
Encoding: 60 91 34
Width: 583
VWidth: 1755
GlyphClass: 2
Flags: W
HStem: -106 63<283 531> 1285 65<-24 209>
LayerCount: 2
Fore
SplineSet
283 -43 m 1
 531 -43 l 1
 545 -106 l 1
 140 -106 l 1
 -196 1350 l 1
 209 1350 l 1
 224 1285 l 1
 -24 1285 l 1
 283 -43 l 1
EndSplineSet
EndChar

StartChar: backslash
Encoding: 61 92 35
Width: 1063
VWidth: 1755
GlyphClass: 2
Flags: W
HStem: 0 21G<816.517 934>
LayerCount: 2
Fore
SplineSet
-68 1293 m 1
 934 0 l 1
 832 0 l 1
 -169 1293 l 1
 -68 1293 l 1
EndSplineSet
EndChar

StartChar: bracketright
Encoding: 62 93 36
Width: 583
VWidth: 1755
GlyphClass: 2
Flags: W
HStem: -106 65<87 317> 1287 63<-234 11>
LayerCount: 2
Fore
SplineSet
11 1287 m 1
 -234 1287 l 1
 -249 1350 l 1
 155 1350 l 1
 491 -106 l 1
 87 -106 l 1
 72 -41 l 1
 317 -41 l 1
 11 1287 l 1
EndSplineSet
EndChar

StartChar: asciicircum
Encoding: 63 94 37
Width: 1063
VWidth: 1755
GlyphClass: 2
Flags: W
LayerCount: 2
Fore
SplineSet
844 558 m 1
 690 558 l 1
 279 1104 l 1
 115 558 l 1
 -38 558 l 1
 165 1267 l 1
 315 1267 l 1
 844 558 l 1
EndSplineSet
EndChar

StartChar: dotnosp
Encoding: 96 775 38
Width: 0
VWidth: 2248
GlyphClass: 4
Flags: W
HStem: 1392 116<-388.392 -281.469>
VStem: -394 118<1398.48 1502.01>
AnchorPoint: "m2b1" 0 0 mark 0
LayerCount: 2
Fore
SplineSet
-321 1392 m 0
 -357 1392 -394 1423 -394 1463 c 0
 -394 1489 -376 1508 -348 1508 c 0
 -312 1508 -276 1478 -276 1437 c 0
 -276 1412 -293 1392 -321 1392 c 0
EndSplineSet
EndChar

StartChar: dieresisnosp
Encoding: 97 776 39
Width: 0
VWidth: 2248
GlyphClass: 4
Flags: W
HStem: 1392 116<-494.903 -387.469 -281.656 -174.608>
VStem: -501 119<1399.35 1502.02> -288 119<1398.75 1501.79>
AnchorPoint: "m2b1" 0 0 mark 0
LayerCount: 2
Fore
SplineSet
-215 1392 m 0
 -251 1392 -288 1424 -288 1464 c 0
 -288 1489 -270 1508 -242 1508 c 0
 -206 1508 -169 1478 -169 1438 c 0
 -169 1413 -187 1392 -215 1392 c 0
-427 1392 m 0
 -462 1392 -501 1424 -501 1463 c 0
 -501 1489 -483 1508 -454 1508 c 0
 -418 1508 -382 1478 -382 1438 c 0
 -382 1413 -399 1392 -427 1392 c 0
EndSplineSet
EndChar

StartChar: ringnosp
Encoding: 98 778 40
Width: 0
VWidth: 2248
GlyphClass: 4
Flags: W
HStem: 1295 42<-363.861 -263.614> 1488 40<-387.658 -289.723>
VStem: -445 45<1372.15 1477.84> -252 45<1347.76 1452.54>
LayerCount: 2
Fore
SplineSet
-353 1528 m 0
 -287 1528 -207 1469 -207 1386 c 0
 -207 1335 -244 1295 -299 1295 c 0
 -368 1295 -445 1358 -445 1438 c 0
 -445 1488 -410 1528 -353 1528 c 0
-252 1394 m 0
 -252 1451 -303 1488 -344 1488 c 0
 -378 1488 -400 1466 -400 1432 c 0
 -400 1376 -353 1337 -309 1337 c 0
 -276 1337 -252 1359 -252 1394 c 0
EndSplineSet
EndChar

StartChar: atnah
Encoding: 100 1425 42
Width: 0
VWidth: 2248
GlyphClass: 4
Flags: W
HStem: -313 171<18.3305 77.4132> -313 68<96 144.75>
VStem: -65 75<-470.235 -317.2> 195 67<-493.814 -431>
AnchorPoint: "m2m4" 155 0 mark 0
AnchorPoint: "m2m4" -235 0 basemark 0
AnchorPoint: "m2m3" -235 0 basemark 0
AnchorPoint: "m2m1" 155 0 mark 0
AnchorPoint: "m2bmback" 0 0 mark 0
AnchorPoint: "m2b5a" 0 0 mark 0
LayerCount: 2
Fore
SplineSet
75 -157 m 1xb0
 96 -245 l 1x70
 123 -249 217 -267 255 -431 c 0
 260 -456 257 -462 262 -483 c 1
 251 -490 243 -494 232 -494 c 0
 219 -494 208 -488 195 -483 c 1
 183 -431 l 2
 167 -362 134 -313 72 -313 c 0xb0
 27 -313 10 -339 10 -379 c 0
 10 -394 13 -412 17 -431 c 2
 29 -483 l 1
 17 -490 7 -494 -4 -494 c 0
 -16 -494 -26 -490 -38 -483 c 1
 -43 -462 -50 -456 -55 -431 c 1
 -62 -402 -65 -377 -65 -356 c 0
 -65 -261 -4 -248 18 -245 c 1x70
 -3 -157 l 1
 8 -146 20 -142 33 -142 c 0
 46 -142 60 -148 75 -157 c 1xb0
EndSplineSet
Position2: "Single Positioning lookup 23 subtable" dx=200 dy=0 dh=0 dv=0
MultipleSubs2: "AddHairspaceAfterMark subtable" atnah hairspace
MultipleSubs2: "AddThinspaceAfterMark subtable" atnah thinspace
EndChar

StartChar: segolta
Encoding: 101 1426 43
Width: 0
VWidth: 2248
GlyphClass: 4
Flags: W
HStem: 1291 109<-452.688 -348.312 -272.688 -168.312> 1425 110<-393.352 -289.767>
VStem: -457 113<1295.98 1395.02> -398 113<1430 1529.86> -277 113<1295.98 1395.02>
AnchorPoint: "m2m8" 225 0 mark 0
AnchorPoint: "m2m7" 145 0 mark 0
AnchorPoint: "m2mrafe" 350 0 mark 0
AnchorPoint: "m2b8b" 0 0 mark 0
LayerCount: 2
Fore
SplineSet
-388 1291 m 0xe8
 -421 1291 -457 1319 -457 1358 c 0
 -457 1383 -440 1400 -413 1400 c 0
 -380 1400 -344 1372 -344 1333 c 0
 -344 1309 -361 1291 -388 1291 c 0xe8
-208 1291 m 0
 -241 1291 -277 1319 -277 1358 c 0
 -277 1383 -260 1400 -233 1400 c 0
 -200 1400 -164 1372 -164 1333 c 0
 -164 1309 -181 1291 -208 1291 c 0
-329 1425 m 0
 -363 1425 -398 1453 -398 1493 c 0
 -398 1517 -381 1535 -354 1535 c 0
 -321 1535 -285 1506 -285 1467 c 0xd8
 -285 1443 -302 1425 -329 1425 c 0
EndSplineSet
MultipleSubs2: "AddHairspaceAfterMark subtable" segolta hairspace
MultipleSubs2: "AddThinspaceAfterMark subtable" segolta thinspace
Substitution2: "UpperMarksChanges subtable" segolta_on_right
EndChar

StartChar: shalshelet
Encoding: 102 1427 44
Width: 0
VWidth: 2248
GlyphClass: 4
Flags: W
HStem: 1262 50<-280.625 -198.117>
AnchorPoint: "m2m7" 105 0 mark 0
AnchorPoint: "m2m7" -188 0 basemark 0
AnchorPoint: "m2m7n" 105 0 mark 0
AnchorPoint: "m2mrafe" 0 0 mark 0
AnchorPoint: "m2b9" 0 0 mark 0
AnchorPoint: "m2b8a" 0 0 mark 0
LayerCount: 2
Fore
SplineSet
-300 1597 m 2
 -356 1544 l 2
 -375 1526 -373 1526 -339 1526 c 2
 -288 1526 l 2
 -249 1526 -248 1526 -269 1500 c 1
 -323 1444 l 1
 -346 1418 -349 1419 -307 1419 c 2
 -279 1419 l 2
 -225 1419 -221 1419 -255 1385 c 1
 -296 1340 l 1
 -324 1312 -320 1312 -280 1312 c 2
 -228 1312 l 2
 -198 1312 -198 1314 -192 1288 c 0
 -186 1260 -186 1262 -218 1262 c 2
 -360 1262 l 2
 -404 1262 -403 1262 -370 1296 c 2
 -326 1340 l 2
 -302 1364 -303 1364 -344 1364 c 2
 -383 1364 l 2
 -429 1364 -429 1366 -399 1396 c 2
 -347 1450 l 1
 -326 1470 -326 1470 -358 1470 c 2
 -416 1470 l 2
 -449 1470 -453 1470 -433 1493 c 1
 -319 1613 l 1
 -310 1619 -300 1619 -300 1619 c 25
 -300 1619 -287 1610 -300 1597 c 2
EndSplineSet
MultipleSubs2: "AddHairspaceAfterMark subtable" shalshelet hairspace
MultipleSubs2: "AddThinspaceAfterMark subtable" shalshelet thinspace
EndChar

StartChar: zaqefqatan
Encoding: 103 1428 45
Width: 0
VWidth: 2496
GlyphClass: 4
Flags: W
HStem: 1257 137<-366.079 -246.719> 1448 137<-410.079 -290.719>
VStem: -421 142<1460.25 1572.66> -377 142<1269.25 1381.66>
AnchorPoint: "m2m7" 69 0 mark 0
AnchorPoint: "m2m7" -150 0 basemark 0
AnchorPoint: "m2m7n" 70 0 mark 0
AnchorPoint: "m2mrafe" 0 0 mark 0
AnchorPoint: "m2b9" 0 0 mark 0
AnchorPoint: "m2b8a" 0 0 mark 0
LayerCount: 2
Fore
SplineSet
-290 1257 m 0xd0
 -332 1257 -377 1293 -377 1341 c 0
 -377 1372 -355 1394 -322 1394 c 0
 -280 1394 -235 1358 -235 1309 c 0
 -235 1279 -257 1257 -290 1257 c 0xd0
-334 1448 m 0
 -376 1448 -421 1484 -421 1532 c 0
 -421 1563 -399 1585 -366 1585 c 0
 -324 1585 -279 1549 -279 1500 c 0xe0
 -279 1470 -301 1448 -334 1448 c 0
EndSplineSet
MultipleSubs2: "AddHairspaceAfterMark subtable" zaqefqatan hairspace
MultipleSubs2: "AddThinspaceAfterMark subtable" zaqefqatan thinspace
EndChar

StartChar: zaqefgadol
Encoding: 104 1429 46
Width: 0
VWidth: 2495
GlyphClass: 4
Flags: W
HStem: 1257 138<-266.281 -149.255> 1448 138<-310.281 -193.255>
VStem: -322 140<1460.25 1574.92> -278 140<1269.25 1383.92>
AnchorPoint: "m2m7" 166 0 mark 0
AnchorPoint: "m2m7" -245 0 basemark 0
AnchorPoint: "m2m7n" 166 0 mark 0
AnchorPoint: "m2mrafe" 0 0 mark 0
AnchorPoint: "m2b9" 0 0 mark 0
AnchorPoint: "m2b8a" 0 0 mark 0
LayerCount: 2
Fore
SplineSet
-191 1257 m 0xd0
 -233 1257 -278 1294 -278 1342 c 0
 -278 1372 -256 1395 -223 1395 c 0
 -181 1395 -138 1358 -138 1309 c 0
 -138 1279 -158 1257 -191 1257 c 0xd0
-235 1448 m 0
 -277 1448 -322 1485 -322 1533 c 0
 -322 1563 -300 1586 -267 1586 c 0
 -225 1586 -182 1549 -182 1500 c 0xe0
 -182 1470 -202 1448 -235 1448 c 0
-484 1586 m 0
 -432 1586 -434 1586 -425 1548 c 2
 -367 1297 l 2
 -367 1294 -366 1292 -366 1290 c 0
 -359 1260 -360 1257 -408 1257 c 0
 -456 1257 -457 1260 -465 1297 c 2
 -523 1548 l 2
 -532 1586 -532 1586 -484 1586 c 0
EndSplineSet
MultipleSubs2: "AddHairspaceAfterMark subtable" zaqefgadol hairspace
MultipleSubs2: "AddThinspaceAfterMark subtable" zaqefgadol thinspace
EndChar

StartChar: tipeha
Encoding: 105 1430 47
Width: 0
VWidth: 2245
GlyphClass: 4
Flags: W
HStem: -497 76<131.864 241.505>
VStem: -13 75<-338.864 -145.072>
AnchorPoint: "m2m4" 60 0 mark 0
AnchorPoint: "m2m4" -140 0 basemark 0
AnchorPoint: "m2m3" -140 0 basemark 0
AnchorPoint: "m2m1" 136 0 mark 0
AnchorPoint: "m2bmback" -52 0 mark 0
AnchorPoint: "m2b5a" -11 0 mark 0
LayerCount: 2
Fore
SplineSet
230 -421 m 1
 238 -434 242 -452 242 -469 c 0
 242 -480 240 -490 236 -497 c 1
 126 -476 38 -424 9 -301 c 0
 -4 -243 -13 -169 -13 -155 c 1
 -2 -149 10 -145 22 -145 c 0
 35 -145 47 -149 62 -155 c 1
 67 -203 72 -242 79 -274 c 0
 107 -393 130 -396 230 -421 c 1
EndSplineSet
Position2: "Single Positioning lookup 23 subtable" dx=200 dy=0 dh=0 dv=0
MultipleSubs2: "AddHairspaceAfterMark subtable" tipeha hairspace
MultipleSubs2: "AddThinspaceAfterMark subtable" tipeha thinspace
EndChar

StartChar: revia
Encoding: 106 1431 48
Width: 0
VWidth: 2509
GlyphClass: 4
Flags: W
HStem: 1254 211<-345.171 -284.059>
VStem: -407 188
AnchorPoint: "m2m7" 94 0 mark 0
AnchorPoint: "m2m7" -184 0 basemark 0
AnchorPoint: "m2m7n" 94 0 mark 0
AnchorPoint: "m2b9" 0 0 mark 0
AnchorPoint: "m2b8a" 0 0 mark 0
LayerCount: 2
Fore
SplineSet
-290 1254 m 0
 -304 1254 -318 1277 -353 1305 c 1
 -386 1333 -403 1340 -407 1354 c 1
 -410 1370 -397 1380 -379 1410 c 1
 -358 1442 -352 1465 -338 1465 c 0
 -324 1465 -308 1442 -273 1410 c 0
 -241 1380 -222 1370 -219 1354 c 1
 -215 1340 -230 1333 -249 1305 c 1
 -272 1277 -276 1254 -290 1254 c 0
EndSplineSet
MultipleSubs2: "AddHairspaceAfterMark subtable" revia hairspace
MultipleSubs2: "AddThinspaceAfterMark subtable" revia thinspace
EndChar

StartChar: zarqa
Encoding: 107 1432 49
Width: 0
VWidth: 2506
GlyphClass: 4
Flags: W
HStem: 1252 71<-270.407 -183.696> 1422 66<-449.385 -365.372>
VStem: -513 63<1323.51 1421.73>
AnchorPoint: "m2m7" 193 0 mark 0
AnchorPoint: "m2m7" -111 0 basemark 0
AnchorPoint: "m2m7n" 193 0 mark 0
AnchorPoint: "m2mrafe" 0 0 mark 0
AnchorPoint: "m2b9" 0 0 mark 0
AnchorPoint: "m2b8a" 0 0 mark 0
LayerCount: 2
Fore
SplineSet
-410 1248 m 1
 -476 1282 -513 1327 -513 1400 c 0
 -513 1454 -480 1488 -432 1488 c 0
 -380 1488 -340 1450 -298 1393 c 1
 -277 1366 l 1
 -256 1337 -239 1323 -219 1323 c 0
 -195 1323 -177 1344 -185 1376 c 1
 -191 1405 -219 1421 -239 1430 c 1
 -241 1437 -242 1444 -242 1450 c 0
 -242 1469 -234 1483 -224 1493 c 1
 -176 1471 -121 1422 -121 1342 c 0
 -121 1286 -156 1252 -200 1252 c 0
 -264 1252 -305 1307 -335 1349 c 2
 -354 1375 l 1
 -386 1417 -405 1422 -416 1422 c 0
 -436 1422 -450 1406 -450 1382 c 0
 -450 1348 -430 1324 -394 1310 c 1
 -393 1304 -392 1298 -392 1292 c 0
 -392 1274 -399 1259 -410 1248 c 1
EndSplineSet
MultipleSubs2: "AddHairspaceAfterMark subtable" zarqa hairspace
MultipleSubs2: "AddThinspaceAfterMark subtable" zarqa thinspace
EndChar

StartChar: pashta
Encoding: 108 1433 50
Width: 0
VWidth: 2493
GlyphClass: 4
Flags: W
HStem: 1530 76<-497.505 -387.905>
VStem: -318 75<1254.03 1447.86>
AnchorPoint: "m2m8" 60 0 mark 0
AnchorPoint: "m2m7" 60 0 mark 0
AnchorPoint: "m2mrafe" 300 0 mark 0
AnchorPoint: "m2b8b" 0 0 mark 0
LayerCount: 2
Fore
SplineSet
-486 1530 m 1
 -494 1543 -498 1561 -498 1578 c 0
 -498 1589 -496 1599 -492 1606 c 1
 -382 1585 -294 1533 -266 1410 c 0
 -252 1352 -243 1278 -243 1264 c 1
 -254 1258 -267 1254 -279 1254 c 0
 -292 1254 -303 1258 -318 1264 c 1
 -323 1312 -328 1351 -335 1383 c 0
 -363 1502 -386 1505 -486 1530 c 1
EndSplineSet
MultipleSubs2: "AddHairspaceAfterMark subtable" pashta hairspace
MultipleSubs2: "AddThinspaceAfterMark subtable" pashta thinspace
Substitution2: "UpperMarksChanges subtable" qadma
EndChar

StartChar: yetiv
Encoding: 109 1434 51
Width: 0
VWidth: 2248
GlyphClass: 4
Flags: W
AnchorPoint: "m2m6d" -126 0 mark 0
AnchorPoint: "m2m6c" -126 0 mark 0
AnchorPoint: "m2m6b" -126 0 mark 0
AnchorPoint: "m2m6a" -126 0 mark 0
AnchorPoint: "m2m5" -154 0 mark 0
AnchorPoint: "m2m6e" -126 0 mark 0
AnchorPoint: "m2b5b" -79 0 mark 0
LayerCount: 2
Fore
SplineSet
102 -164 m 1
 125 -143 126 -145 153 -173 c 0
 181 -203 179 -202 155 -221 c 1
 86 -281 l 2
 57 -306 54 -306 98 -332 c 2
 189 -387 l 1
 222 -404 231 -408 214 -442 c 0
 200 -468 200 -468 167 -448 c 2
 -12 -338 l 1
 -41 -322 -56 -315 -56 -305 c 0
 -56 -298 -46 -289 -27 -273 c 2
 102 -164 l 1
EndSplineSet
MultipleSubs2: "AddHairspaceAfterMark subtable" yetiv hairspace
MultipleSubs2: "AddThinspaceAfterMark subtable" yetiv thinspace
EndChar

StartChar: tevir
Encoding: 110 1435 52
Width: 0
VWidth: 2248
GlyphClass: 4
Flags: W
HStem: -494 76<41.0724 107.505> -323 89<-55.7056 34.7518>
VStem: -56 91<-321.658 -235.145> 118 78<-399.331 -191.685>
AnchorPoint: "m2m4" 120 0 mark 0
AnchorPoint: "m2m4" -200 0 basemark 0
AnchorPoint: "m2m3" -200 0 basemark 0
AnchorPoint: "m2m1" 120 0 mark 0
AnchorPoint: "m2bmback" 13 0 mark 0
AnchorPoint: "m2b5a" 0 0 mark 0
LayerCount: 2
Fore
SplineSet
-56 -279 m 0
 -61 -254 -46 -234 -20 -234 c 0
 6 -234 30 -254 35 -279 c 0
 41 -304 26 -323 0 -323 c 0
 -26 -323 -50 -304 -56 -279 c 0
118 -343 m 0
 118 -275 93 -220 69 -152 c 1
 81 -146 91 -142 105 -142 c 0
 116 -142 129 -146 143 -152 c 1
 150 -172 196 -288 196 -352 c 0
 196 -437 137 -476 53 -494 c 1
 37 -480 24 -451 24 -418 c 1
 89 -400 118 -393 118 -343 c 0
EndSplineSet
Position2: "Single Positioning lookup 23 subtable" dx=200 dy=0 dh=0 dv=0
MultipleSubs2: "AddHairspaceAfterMark subtable" tevir hairspace
MultipleSubs2: "AddThinspaceAfterMark subtable" tevir thinspace
EndChar

StartChar: gereshaccent
Encoding: 111 1436 53
Width: 0
VWidth: 2493
GlyphClass: 4
Flags: W
HStem: 1530 76<-304.386 -237.468>
VStem: -393 79<1299.31 1511.75>
AnchorPoint: "m2m7" 136 0 mark 0
AnchorPoint: "m2m7" -140 0 basemark 0
AnchorPoint: "m2m7n" 136 0 mark 0
AnchorPoint: "m2mrafe" 0 0 mark 0
AnchorPoint: "m2b9" 0 0 mark 0
AnchorPoint: "m2b8a" 0 0 mark 0
LayerCount: 2
Fore
SplineSet
-220 1530 m 1
 -285 1512 -314 1505 -314 1456 c 0
 -314 1438 -310 1415 -303 1383 c 0
 -296 1351 -283 1312 -266 1264 c 1
 -277 1258 -288 1254 -301 1254 c 0
 -313 1254 -326 1258 -341 1264 c 1
 -349 1283 -393 1402 -393 1464 c 0
 -393 1549 -334 1588 -250 1606 c 1
 -233 1592 -220 1564 -220 1530 c 1
EndSplineSet
MultipleSubs2: "AddHairspaceAfterMark subtable" gereshaccent hairspace
MultipleSubs2: "AddThinspaceAfterMark subtable" gereshaccent thinspace
EndChar

StartChar: gereshmuqdam
Encoding: 112 1437 54
Width: 0
VWidth: 2493
GlyphClass: 4
Flags: W
HStem: 1530 76<-304.386 -237.468>
VStem: -393 79<1299.31 1511.75>
AnchorPoint: "m2m7n" -140 0 basemark 0
AnchorPoint: "m2mrafe" -300 0 mark 0
AnchorPoint: "m2b8c" -212 0 mark 0
LayerCount: 2
Fore
SplineSet
-220 1530 m 1
 -285 1512 -314 1505 -314 1456 c 0
 -314 1438 -310 1415 -303 1383 c 0
 -296 1351 -283 1312 -266 1264 c 1
 -277 1258 -288 1254 -301 1254 c 0
 -313 1254 -326 1258 -341 1264 c 1
 -349 1283 -393 1402 -393 1464 c 0
 -393 1549 -334 1588 -250 1606 c 1
 -233 1592 -220 1564 -220 1530 c 1
EndSplineSet
MultipleSubs2: "AddHairspaceAfterMark subtable" gereshmuqdam hairspace
MultipleSubs2: "AddThinspaceAfterMark subtable" gereshmuqdam thinspace
EndChar

StartChar: gershayimaccent
Encoding: 113 1438 55
Width: 0
VWidth: 2493
GlyphClass: 4
Flags: W
HStem: 1530 76<-436.581 -372.98 -244.917 -177.643>
VStem: -528 78<1299.31 1510.68> -333 78<1302.74 1511.33>
AnchorPoint: "m2m7" 195 0 mark 0
AnchorPoint: "m2m7" -285 0 basemark 0
AnchorPoint: "m2m7n" 195 0 mark 0
AnchorPoint: "m2mrafe" 0 0 mark 0
AnchorPoint: "m2b9" 0 0 mark 0
AnchorPoint: "m2b8a" 0 0 mark 0
LayerCount: 2
Fore
SplineSet
-161 1530 m 1
 -225 1512 -255 1505 -255 1455 c 0
 -255 1437 -251 1414 -244 1383 c 0
 -237 1351 -224 1312 -206 1264 c 1
 -217 1258 -229 1254 -242 1254 c 0
 -254 1254 -265 1258 -280 1264 c 1
 -288 1283 -333 1401 -333 1464 c 0
 -333 1549 -275 1588 -190 1606 c 1
 -173 1592 -161 1563 -161 1530 c 1
-353 1530 m 1
 -419 1511 -450 1505 -450 1454 c 0
 -450 1436 -446 1413 -439 1383 c 0
 -432 1351 -420 1312 -402 1264 c 1
 -414 1258 -424 1254 -437 1254 c 0
 -449 1254 -462 1258 -477 1264 c 1
 -484 1283 -528 1402 -528 1464 c 0
 -528 1549 -470 1588 -385 1606 c 1
 -370 1593 -353 1559 -353 1530 c 1
EndSplineSet
MultipleSubs2: "AddHairspaceAfterMark subtable" gershayimaccent hairspace
MultipleSubs2: "AddThinspaceAfterMark subtable" gershayimaccent thinspace
EndChar

StartChar: qarneypara
Encoding: 114 1439 56
Width: 0
VWidth: 2499
GlyphClass: 4
Flags: W
HStem: 1240 64<-349.171 -264.721> 1317 55<-508.976 -413.783 -219.876 -136.194> 1492 55<-528.616 -426.565 -250.338 -148.131>
VStem: -578 47<1395.2 1486.82> -411 55<1374.57 1476.59> -306 53<1391.65 1488.02> -133 46<1377.29 1472.99>
AnchorPoint: "m2m7" 244 0 mark 0
AnchorPoint: "m2m7" -324 0 basemark 0
AnchorPoint: "m2m7n" 244 0 mark 0
AnchorPoint: "m2mrafe" 0 0 mark 0
AnchorPoint: "m2b9" 0 0 mark 0
AnchorPoint: "m2b8a" 0 0 mark 0
LayerCount: 2
Fore
SplineSet
-440 1317 m 0
 -504 1317 -578 1380 -578 1462 c 0
 -578 1512 -544 1547 -495 1547 c 0
 -434 1547 -356 1490 -356 1413 c 0
 -356 1401 -358 1389 -362 1376 c 1
 -372 1352 -371 1352 -350 1336 c 1
 -324 1314 -311 1304 -301 1304 c 0
 -291 1304 -282 1314 -266 1334 c 0
 -253 1350 -250 1348 -273 1372 c 1
 -289 1396 -306 1423 -306 1461 c 0
 -306 1512 -270 1547 -219 1547 c 0
 -154 1547 -87 1488 -87 1407 c 0
 -87 1356 -118 1317 -168 1317 c 0
 -185 1317 -196 1320 -210 1302 c 1
 -247 1261 -263 1240 -286 1240 c 0
 -309 1240 -335 1261 -391 1302 c 0
 -415 1319 -420 1317 -440 1317 c 0
-411 1417 m 0
 -411 1461 -439 1492 -483 1492 c 0
 -514 1492 -531 1475 -531 1450 c 0
 -531 1408 -494 1372 -455 1372 c 0
 -424 1372 -411 1391 -411 1417 c 0
-133 1419 m 0
 -133 1461 -163 1492 -204 1492 c 0
 -236 1492 -253 1475 -253 1450 c 0
 -253 1408 -218 1372 -179 1372 c 0
 -148 1372 -133 1392 -133 1419 c 0
EndSplineSet
MultipleSubs2: "AddHairspaceAfterMark subtable" qarneypara hairspace
MultipleSubs2: "AddThinspaceAfterMark subtable" qarneypara thinspace
EndChar

StartChar: telishagedola
Encoding: 115 1440 57
Width: 0
VWidth: 2502
GlyphClass: 4
Flags: W
HStem: 1293 55<-364.408 -249.919> 1508 53<-409.849 -272.805>
VStem: -474 55<1381.09 1497.82> -240 55<1358.31 1477.04>
AnchorPoint: "m2m7n" -220 0 basemark 0
AnchorPoint: "m2mrafe" -300 0 mark 0
AnchorPoint: "m2b9" 0 0 mark 0
AnchorPoint: "m2b8c" -194 0 mark 0
LayerCount: 2
Fore
SplineSet
-240 1410 m 0
 -240 1468 -286 1508 -348 1508 c 0
 -397 1508 -419 1484 -419 1451 c 0
 -419 1392 -375 1348 -311 1348 c 0
 -263 1348 -240 1374 -240 1410 c 0
-299 1293 m 0
 -315 1293 -328 1299 -340 1299 c 0
 -355 1299 -357 1295 -363 1275 c 1
 -378 1233 l 2
 -387 1207 -388 1205 -418 1220 c 0
 -445 1233 -445 1235 -432 1264 c 2
 -416 1300 l 1
 -409 1313 -409 1324 -410 1329 c 0
 -416 1355 -453 1357 -470 1430 c 0
 -473 1441 -474 1452 -474 1462 c 0
 -474 1519 -435 1561 -360 1561 c 256
 -269 1561 -204 1499 -188 1430 c 256
 -186 1422 -185 1414 -185 1406 c 0
 -185 1347 -231 1293 -299 1293 c 0
EndSplineSet
MultipleSubs2: "AddHairspaceAfterMark subtable" telishagedola hairspace
MultipleSubs2: "AddThinspaceAfterMark subtable" telishagedola thinspace
Substitution2: "UpperMarksChanges subtable" telishag_on_left
EndChar

StartChar: pazer
Encoding: 116 1441 58
Width: 0
VWidth: 2501
GlyphClass: 4
Flags: W
HStem: 1220 162<-378.206 -318.5> 1312 70<-357 -283.472>
VStem: -278 74<1386.46 1552.26>
AnchorPoint: "m2m7" 132 0 mark 0
AnchorPoint: "m2m7" -212 0 basemark 0
AnchorPoint: "m2m7n" 132 0 mark 0
AnchorPoint: "m2mrafe" 0 0 mark 0
AnchorPoint: "m2b9" 0 0 mark 0
AnchorPoint: "m2b8a" 0 0 mark 0
LayerCount: 2
Fore
SplineSet
-239 1554 m 1xa0
 -222 1517 -204 1479 -204 1427 c 0
 -204 1361 -235 1312 -314 1312 c 0
 -326 1312 -342 1309 -357 1312 c 1x60
 -338 1229 l 1
 -351 1223 -361 1220 -373 1220 c 0
 -387 1220 -401 1223 -418 1229 c 1
 -493 1554 l 1
 -480 1559 -468 1562 -455 1562 c 0
 -441 1562 -427 1559 -413 1554 c 1
 -374 1386 l 1
 -364 1383 -353 1382 -341 1382 c 0
 -296 1382 -278 1407 -278 1445 c 0
 -278 1458 -280 1473 -284 1489 c 0
 -284 1491 -285 1493 -285 1496 c 0
 -288 1509 -294 1527 -309 1554 c 1
 -299 1559 -289 1562 -278 1562 c 0
 -266 1562 -253 1559 -239 1554 c 1xa0
EndSplineSet
MultipleSubs2: "AddHairspaceAfterMark subtable" pazer hairspace
MultipleSubs2: "AddThinspaceAfterMark subtable" pazer thinspace
EndChar

StartChar: atnahhafukh
Encoding: 117 1442 59
Width: 0
VWidth: 2248
GlyphClass: 4
Flags: W
HStem: -494 171<69.5868 128.669> -391 68<3.95728 51>
VStem: -115 67<-205 -142.186> 137 75<-318.199 -165.765>
AnchorPoint: "m2m4" 155 0 mark 0
AnchorPoint: "m2m4" -235 0 basemark 0
AnchorPoint: "m2m3" -235 0 basemark 0
AnchorPoint: "m2m1" 155 0 mark 0
AnchorPoint: "m2bmback" 0 0 mark 0
AnchorPoint: "m2b5a" 0 0 mark 0
LayerCount: 2
Fore
SplineSet
72 -479 m 1xb0
 51 -391 l 1x70
 23 -387 -70 -369 -108 -205 c 0
 -113 -180 -110 -174 -115 -153 c 1
 -104 -146 -96 -142 -85 -142 c 0
 -72 -142 -61 -148 -48 -153 c 1
 -36 -205 l 2
 -20 -274 13 -323 75 -323 c 0xb0
 120 -323 137 -297 137 -257 c 0
 137 -242 134 -224 130 -205 c 2
 118 -153 l 1
 130 -146 140 -142 151 -142 c 0
 163 -142 173 -146 185 -153 c 1
 190 -174 197 -180 202 -205 c 1
 209 -234 212 -259 212 -279 c 0
 212 -375 150 -388 129 -391 c 1x70
 150 -479 l 1
 139 -490 127 -494 114 -494 c 0
 101 -494 87 -488 72 -479 c 1xb0
EndSplineSet
Position2: "Single Positioning lookup 23 subtable" dx=200 dy=0 dh=0 dv=0
MultipleSubs2: "AddHairspaceAfterMark subtable" atnahhafukh hairspace
MultipleSubs2: "AddThinspaceAfterMark subtable" atnahhafukh thinspace
EndChar

StartChar: munah
Encoding: 118 1443 60
Width: 0
VWidth: 2248
GlyphClass: 4
Flags: W
HStem: -448 64<-2.90652 118.5>
VStem: -4 197
AnchorPoint: "m2m4" 100 0 mark 0
AnchorPoint: "m2m4" -180 0 basemark 0
AnchorPoint: "m2m3" -180 0 basemark 0
AnchorPoint: "m2m1" 100 0 mark 0
AnchorPoint: "m2bmback" 0 0 mark 0
AnchorPoint: "m2b5a" 0 0 mark 0
LayerCount: 2
Fore
SplineSet
152 -448 m 2
 35 -448 l 2
 5 -448 4 -448 -4 -412 c 0
 -11 -382 -10 -384 21 -384 c 2
 94 -384 l 2
 128 -384 128 -382 121 -351 c 2
 81 -178 l 2
 74 -148 74 -148 104 -148 c 0
 132 -148 133 -148 140 -177 c 2
 193 -407 l 2
 202 -448 199 -448 152 -448 c 2
EndSplineSet
Position2: "Single Positioning lookup 23 subtable" dx=200 dy=0 dh=0 dv=0
MultipleSubs2: "AddHairspaceAfterMark subtable" munah hairspace
MultipleSubs2: "AddThinspaceAfterMark subtable" munah thinspace
EndChar

StartChar: mahapakh
Encoding: 119 1444 61
Width: 0
VWidth: 2248
GlyphClass: 4
Flags: W
AnchorPoint: "m2m4" 130 0 mark 0
AnchorPoint: "m2m4" -210 0 basemark 0
AnchorPoint: "m2m3" -206 0 basemark 0
AnchorPoint: "m2m1" 126 0 mark 0
AnchorPoint: "m2bmback" 0 0 mark 0
AnchorPoint: "m2b5a" 0 0 mark 0
LayerCount: 2
Fore
SplineSet
102 -164 m 1
 125 -143 126 -145 153 -173 c 0
 181 -203 179 -202 155 -221 c 1
 86 -281 l 2
 57 -306 54 -306 98 -332 c 2
 189 -387 l 1
 222 -404 231 -408 214 -442 c 0
 200 -468 200 -468 167 -448 c 2
 -12 -338 l 1
 -41 -322 -56 -315 -56 -305 c 0
 -56 -298 -46 -289 -27 -273 c 2
 102 -164 l 1
EndSplineSet
Position2: "Single Positioning lookup 23 subtable" dx=200 dy=0 dh=0 dv=0
MultipleSubs2: "AddHairspaceAfterMark subtable" mahapakh hairspace
MultipleSubs2: "AddThinspaceAfterMark subtable" mahapakh thinspace
EndChar

StartChar: merkha
Encoding: 120 1445 62
Width: 0
VWidth: 2248
GlyphClass: 4
Flags: W
HStem: -494 76<-30.5156 47.5049>
VStem: 58 78<-399.331 -188.675>
AnchorPoint: "m2m4" 136 0 mark 0
AnchorPoint: "m2m4" -216 0 basemark 0
AnchorPoint: "m2m3" -218 0 basemark 0
AnchorPoint: "m2m1" 60 0 mark 0
AnchorPoint: "m2bmback" 38 0 mark 0
AnchorPoint: "m2b5a" 11 0 mark 0
LayerCount: 2
Fore
SplineSet
58 -343 m 0
 58 -275 33 -221 9 -152 c 1
 21 -146 31 -142 44 -142 c 0
 56 -142 70 -146 84 -152 c 1
 92 -171 136 -288 136 -352 c 0
 136 -437 77 -476 -7 -494 c 1
 -21 -481 -36 -455 -36 -426 c 0
 -36 -423 -36 -421 -36 -418 c 1
 29 -400 58 -393 58 -343 c 0
EndSplineSet
Position2: "Single Positioning lookup 23 subtable" dx=200 dy=0 dh=0 dv=0
MultipleSubs2: "AddHairspaceAfterMark subtable" merkha hairspace
MultipleSubs2: "AddThinspaceAfterMark subtable" merkha thinspace
EndChar

StartChar: merkhakefula
Encoding: 121 1446 63
Width: 0
VWidth: 2248
GlyphClass: 4
Flags: W
HStem: -494 76<-89.832 -12.0829 105.227 179.581>
VStem: 0 76<-398.928 -192.931> 193 78<-399.063 -187.221>
AnchorPoint: "m2m4" 195 0 mark 0
AnchorPoint: "m2m4" -265 0 basemark 0
AnchorPoint: "m2m3" -275 0 basemark 0
AnchorPoint: "m2m1" 195 0 mark 0
AnchorPoint: "m2bmback" 0 0 mark 0
AnchorPoint: "m2b5a" 0 0 mark 0
LayerCount: 2
Fore
SplineSet
0 -343 m 0
 0 -274 -25 -220 -51 -152 c 1
 -39 -146 -28 -142 -15 -142 c 0
 -3 -142 9 -146 23 -152 c 1
 31 -171 76 -288 76 -352 c 0
 76 -437 18 -476 -67 -494 c 1
 -81 -482 -95 -455 -95 -426 c 0
 -95 -423 -95 -421 -95 -418 c 1
 -31 -400 0 -393 0 -343 c 0
97 -418 m 1
 163 -399 193 -393 193 -341 c 0
 193 -324 190 -301 183 -271 c 0
 175 -239 163 -200 145 -152 c 1
 158 -146 167 -142 180 -142 c 0
 192 -142 206 -146 220 -152 c 1
 227 -171 271 -289 271 -352 c 0
 271 -437 213 -476 128 -494 c 1
 117 -484 109 -473 104 -452 c 0
 102 -443 96 -428 97 -418 c 1
EndSplineSet
Position2: "Single Positioning lookup 23 subtable" dx=200 dy=0 dh=0 dv=0
MultipleSubs2: "AddHairspaceAfterMark subtable" merkhakefula hairspace
MultipleSubs2: "AddThinspaceAfterMark subtable" merkhakefula thinspace
EndChar

StartChar: darga
Encoding: 122 1447 64
Width: 0
VWidth: 2248
GlyphClass: 4
Flags: W
HStem: -476 62<27.1466 106.005> -207 62<37.7708 105.671>
VStem: -29 60<-270.596 -217.422> 110 62<-399.679 -355.281>
AnchorPoint: "m2m4" 86 0 mark 0
AnchorPoint: "m2m4" -166 0 basemark 0
AnchorPoint: "m2m3" -166 0 basemark 0
AnchorPoint: "m2m1" 86 0 mark 0
AnchorPoint: "m2bmback" 0 0 mark 0
AnchorPoint: "m2b5a" 0 0 mark 0
LayerCount: 2
Fore
SplineSet
113 -207 m 1
 76 -207 31 -221 31 -254 c 0
 31 -257 31 -260 32 -263 c 0
 35 -276 149 -273 167 -353 c 0
 170 -366 172 -377 172 -387 c 0
 172 -444 125 -463 33 -476 c 1
 22 -452 18 -431 19 -414 c 1
 75 -400 110 -402 110 -370 c 0
 110 -366 111 -361 110 -355 c 0
 106 -340 -6 -345 -24 -267 c 0
 -27 -253 -29 -241 -29 -230 c 0
 -29 -173 16 -157 98 -145 c 1
 112 -166 115 -186 113 -207 c 1
EndSplineSet
Position2: "Single Positioning lookup 23 subtable" dx=200 dy=0 dh=0 dv=0
MultipleSubs2: "AddHairspaceAfterMark subtable" darga hairspace
MultipleSubs2: "AddThinspaceAfterMark subtable" darga thinspace
EndChar

StartChar: qadma
Encoding: 123 1448 65
Width: 0
VWidth: 2495
GlyphClass: 4
Flags: W
HStem: 1523 77<-496.215 -386.349>
VStem: -316 75<1248.02 1438.49>
AnchorPoint: "m2m7" 60 0 mark 0
AnchorPoint: "m2m7" -220 0 basemark 0
AnchorPoint: "m2m7n" 60 0 mark 0
AnchorPoint: "m2mrafe" 0 0 mark 0
AnchorPoint: "m2b9" 0 0 mark 0
AnchorPoint: "m2b8a" 0 0 mark 0
LayerCount: 2
Fore
SplineSet
-485 1523 m 1
 -492 1537 -497 1556 -497 1573 c 0
 -497 1583 -495 1593 -490 1600 c 1
 -381 1579 -292 1525 -264 1403 c 0
 -251 1345 -241 1271 -241 1256 c 1
 -253 1251 -265 1248 -277 1248 c 0
 -290 1248 -302 1251 -316 1256 c 1
 -321 1304 -326 1343 -334 1376 c 0
 -361 1494 -385 1498 -485 1523 c 1
EndSplineSet
MultipleSubs2: "AddHairspaceAfterMark subtable" qadma hairspace
MultipleSubs2: "AddThinspaceAfterMark subtable" qadma thinspace
EndChar

StartChar: telishaqetana
Encoding: 124 1449 66
Width: 0
VWidth: 2502
GlyphClass: 4
Flags: W
HStem: 1293 55<-384.57 -249.545> 1508 53<-408.439 -272.367>
VStem: -474 56<1380.3 1498.52> -240 56<1358.21 1476.66>
AnchorPoint: "m2m8" 157 0 mark 0
AnchorPoint: "m2m7" 156 0 mark 0
AnchorPoint: "m2mrafe" 350 0 mark 0
AnchorPoint: "m2b8b" 50 0 mark 0
LayerCount: 2
Fore
SplineSet
-240 1409 m 0
 -240 1468 -284 1508 -348 1508 c 0
 -396 1508 -418 1484 -418 1450 c 0
 -418 1391 -372 1348 -311 1348 c 0
 -262 1348 -240 1374 -240 1409 c 0
-360 1561 m 256
 -264 1561 -184 1491 -184 1395 c 0
 -184 1358 -203 1348 -203 1333 c 0
 -203 1325 -197 1315 -182 1300 c 1
 -150 1264 l 2
 -123 1235 -123 1233 -144 1220 c 1
 -166 1205 -169 1207 -190 1233 c 2
 -223 1275 l 2
 -239 1295 -243 1299 -258 1299 c 0
 -270 1299 -283 1293 -299 1293 c 0
 -384 1293 -474 1374 -474 1462 c 0
 -474 1517 -437 1561 -360 1561 c 256
EndSplineSet
MultipleSubs2: "AddHairspaceAfterMark subtable" telishaqetana hairspace
MultipleSubs2: "AddThinspaceAfterMark subtable" telishaqetana thinspace
Substitution2: "UpperMarksChanges subtable" telishaq_on_right
EndChar

StartChar: yerahbenyomo
Encoding: 125 1450 67
Width: 0
VWidth: 2248
GlyphClass: 4
Flags: W
HStem: -494 171<69.5868 128.669> -391 68<3.95728 51>
VStem: -115 67<-205 -142.186> 137 75<-318.199 -165.765>
AnchorPoint: "m2m4" 155 0 mark 0
AnchorPoint: "m2m4" -235 0 basemark 0
AnchorPoint: "m2m3" -235 0 basemark 0
AnchorPoint: "m2m1" 155 0 mark 0
AnchorPoint: "m2bmback" 0 0 mark 0
AnchorPoint: "m2b5a" 0 0 mark 0
LayerCount: 2
Fore
SplineSet
72 -479 m 1xb0
 51 -391 l 1x70
 23 -387 -70 -369 -108 -205 c 0
 -113 -180 -110 -174 -115 -153 c 1
 -104 -146 -96 -142 -85 -142 c 0
 -72 -142 -61 -148 -48 -153 c 1
 -36 -205 l 2
 -20 -274 13 -323 75 -323 c 0xb0
 120 -323 137 -297 137 -257 c 0
 137 -242 134 -224 130 -205 c 2
 118 -153 l 1
 130 -146 140 -142 151 -142 c 0
 163 -142 173 -146 185 -153 c 1
 190 -174 197 -180 202 -205 c 1
 209 -234 212 -259 212 -279 c 0
 212 -375 150 -388 129 -391 c 1x70
 150 -479 l 1
 139 -490 127 -494 114 -494 c 0
 101 -494 87 -488 72 -479 c 1xb0
EndSplineSet
Position2: "Single Positioning lookup 23 subtable" dx=200 dy=0 dh=0 dv=0
MultipleSubs2: "AddHairspaceAfterMark subtable" yerahbenyomo hairspace
MultipleSubs2: "AddThinspaceAfterMark subtable" yerahbenyomo thinspace
EndChar

StartChar: ole
Encoding: 126 1451 68
Width: 0
VWidth: 2497
GlyphClass: 4
Flags: W
AnchorPoint: "m2m7" 127 0 mark 0
AnchorPoint: "m2m7" -213 0 basemark 0
AnchorPoint: "m2m7n" 127 0 mark 0
AnchorPoint: "m2mrafe" 0 0 mark 0
AnchorPoint: "m2b9" 0 0 mark 0
AnchorPoint: "m2b8a" 0 0 mark 0
LayerCount: 2
Fore
SplineSet
-295 1557 m 1
 -273 1581 -271 1578 -243 1548 c 0
 -217 1520 -219 1521 -241 1500 c 1
 -312 1442 l 1
 -341 1417 -341 1417 -300 1391 c 1
 -208 1336 l 1
 -174 1318 -169 1312 -184 1281 c 1
 -198 1255 -198 1255 -230 1274 c 2
 -410 1385 l 1
 -439 1400 -454 1408 -454 1417 c 0
 -454 1425 -444 1434 -425 1450 c 2
 -295 1557 l 1
EndSplineSet
MultipleSubs2: "AddHairspaceAfterMark subtable" ole hairspace
MultipleSubs2: "AddThinspaceAfterMark subtable" ole thinspace
EndChar

StartChar: iluy
Encoding: 127 1452 69
Width: 0
VWidth: 2499
GlyphClass: 4
Flags: W
HStem: 1260 67<-396.917 -277.047>
VStem: -398 196
AnchorPoint: "m2m7" 99 0 mark 0
AnchorPoint: "m2m7" -210 0 basemark 0
AnchorPoint: "m2m7n" 100 0 mark 0
AnchorPoint: "m2mrafe" 0 0 mark 0
AnchorPoint: "m2b9" 0 0 mark 0
AnchorPoint: "m2b8a" 0 0 mark 0
LayerCount: 2
Fore
SplineSet
-242 1260 m 2
 -359 1260 l 2
 -389 1260 -390 1262 -398 1297 c 0
 -405 1327 -405 1327 -374 1327 c 2
 -301 1327 l 2
 -267 1327 -266 1327 -274 1358 c 2
 -313 1531 l 2
 -320 1561 -320 1561 -290 1561 c 0
 -262 1561 -261 1561 -255 1532 c 2
 -202 1302 l 2
 -192 1262 -195 1260 -242 1260 c 2
EndSplineSet
MultipleSubs2: "AddHairspaceAfterMark subtable" iluy hairspace
MultipleSubs2: "AddThinspaceAfterMark subtable" iluy thinspace
EndChar

StartChar: dehi
Encoding: 128 1453 70
Width: 0
VWidth: 2248
GlyphClass: 4
Flags: W
HStem: -494 76<130.905 241.314>
VStem: -14 75<-333.886 -142.026>
AnchorPoint: "m2m6d" -60 0 mark 0
AnchorPoint: "m2m6c" -60 0 mark 0
AnchorPoint: "m2m6b" -60 0 mark 0
AnchorPoint: "m2m6a" -60 0 mark 0
AnchorPoint: "m2m5" -113 0 mark 0
AnchorPoint: "m2m6e" -60 0 mark 0
AnchorPoint: "m2b5b" -11 0 mark 0
LayerCount: 2
Fore
SplineSet
230 -418 m 1
 237 -431 242 -450 242 -467 c 0
 242 -478 240 -487 235 -494 c 1
 125 -473 37 -421 9 -298 c 0
 -5 -240 -14 -166 -14 -152 c 1
 -2 -146 10 -142 22 -142 c 0
 35 -142 47 -146 61 -152 c 1
 66 -200 71 -239 79 -271 c 0
 106 -390 130 -393 230 -418 c 1
EndSplineSet
MultipleSubs2: "AddHairspaceAfterMark subtable" dehi hairspace
MultipleSubs2: "AddThinspaceAfterMark subtable" dehi thinspace
EndChar

StartChar: tsinor
Encoding: 129 1454 71
Width: 0
VWidth: 2506
GlyphClass: 4
Flags: W
HStem: 1268 71<-273.516 -187.3> 1438 66<-452.579 -369.666>
VStem: -517 63<1339.76 1437.25>
AnchorPoint: "m2m8" 194 0 mark 0
AnchorPoint: "m2m7" 194 0 mark 0
AnchorPoint: "m2m7n" 194 0 mark 0
AnchorPoint: "m2mrafe" 320 0 mark 0
AnchorPoint: "m2b8b" 0 0 mark 0
LayerCount: 2
Fore
SplineSet
-414 1264 m 1
 -480 1298 -517 1343 -517 1415 c 0
 -517 1469 -482 1504 -435 1504 c 0
 -383 1504 -342 1466 -300 1409 c 2
 -280 1382 l 2
 -259 1353 -243 1339 -223 1339 c 0
 -199 1339 -181 1360 -188 1392 c 0
 -195 1421 -222 1437 -242 1446 c 1
 -243 1452 -244 1459 -244 1464 c 0
 -244 1484 -237 1499 -226 1509 c 1
 -179 1487 -124 1439 -124 1359 c 0
 -124 1302 -160 1268 -204 1268 c 0
 -267 1268 -308 1323 -338 1365 c 1
 -358 1391 l 2
 -390 1433 -408 1438 -420 1438 c 0
 -439 1438 -454 1421 -454 1396 c 0
 -454 1363 -432 1340 -398 1326 c 1
 -397 1319 -396 1313 -396 1307 c 0
 -396 1289 -403 1275 -414 1264 c 1
EndSplineSet
MultipleSubs2: "AddHairspaceAfterMark subtable" tsinor hairspace
MultipleSubs2: "AddThinspaceAfterMark subtable" tsinor thinspace
Substitution2: "UpperMarksChanges subtable" zarqa
EndChar

StartChar: masoracircle
Encoding: 130 1455 72
Width: 0
VWidth: 2498
GlyphClass: 4
Flags: W
HStem: 1260 55<-375.289 -244.935> 1507 56<-409.24 -274.16>
VStem: -481 58<1360.55 1493.84> -229 58<1329.49 1462.26>
AnchorPoint: "m2m7" 151 0 mark 0
AnchorPoint: "m2m7" -230 0 basemark 0
AnchorPoint: "m2m7n" 150 0 mark 0
AnchorPoint: "m2mrafe" 0 0 mark 0
AnchorPoint: "m2b9" 0 0 mark 0
AnchorPoint: "m2b8a" 0 0 mark 0
LayerCount: 2
Fore
SplineSet
-361 1563 m 0
 -276 1563 -171 1487 -171 1379 c 0
 -171 1312 -220 1260 -291 1260 c 0
 -380 1260 -481 1342 -481 1446 c 0
 -481 1510 -436 1563 -361 1563 c 0
-229 1389 m 0
 -229 1462 -295 1507 -348 1507 c 0
 -392 1507 -423 1481 -423 1438 c 0
 -423 1366 -361 1315 -304 1315 c 0
 -262 1315 -229 1344 -229 1389 c 0
EndSplineSet
MultipleSubs2: "AddHairspaceAfterMark subtable" masoracircle hairspace
MultipleSubs2: "AddThinspaceAfterMark subtable" masoracircle thinspace
EndChar

StartChar: sheva
Encoding: 131 1456 73
Width: 0
VWidth: 2248
GlyphClass: 4
Flags: W
HStem: -472 136<33.2443 153.205> -281 136<-11.0793 108.281>
VStem: -22 142<-269.181 -157.342> 23 142<-460.446 -348.834>
AnchorPoint: "m2m5" 290 0 basemark 0
AnchorPoint: "m2m6e" 150 0 basemark 0
AnchorPoint: "m2m3" 70 0 mark 0
AnchorPoint: "m2m2" 70 0 mark 0
AnchorPoint: "m2m1" -150 0 basemark 0
AnchorPoint: "m2bv2left" 35 0 mark 0
AnchorPoint: "m2bvback" 0 0 mark 0
AnchorPoint: "m2bv2r" -150 0 mark 0
AnchorPoint: "VbWM" -70 0 mark 0
AnchorPoint: "VbNM" -70 0 mark 0
AnchorPoint: "m2b4a" 0 0 mark 0
LayerCount: 2
Fore
SplineSet
109 -472 m 0xd0
 66 -472 23 -437 23 -388 c 0
 23 -357 45 -336 78 -336 c 0
 118 -336 165 -372 165 -420 c 0
 165 -450 143 -472 109 -472 c 0xd0
65 -281 m 0
 23 -281 -22 -246 -22 -198 c 0
 -22 -167 -0 -145 33 -145 c 0
 75 -145 120 -181 120 -230 c 0xe0
 120 -260 98 -281 65 -281 c 0
EndSplineSet
Position2: "positionMoveVowelToLeft subtable" dx=-30 dy=0 dh=0 dv=0
MultipleSubs2: "AddHairspaceAfterMark subtable" sheva hairspace
MultipleSubs2: "AddThinspaceAfterMark subtable" sheva thinspace
Substitution2: "ShevaAndQamatsForFinalkaf subtable" sheva_for_finalkaf
EndChar

StartChar: hatafsegol
Encoding: 132 1457 74
Width: 0
VWidth: 2248
GlyphClass: 4
Flags: W
HStem: -472 136<248.218 366.513> -451 143<-77.1515 44.7869> -290 143<-220.343 -100.849 -6.8472 113.89 209.828 322.756>
VStem: -233 146<-277.135 -161.66> -91 148<-436.34 -321.719> -19 146<-278.574 -162.507> 193 140<-269.274 -156.868> 238 140<-460.946 -347.912>
AnchorPoint: "m2m5" 492 0 basemark 0
AnchorPoint: "m2m6e" 360 0 basemark 0
AnchorPoint: "m2m2" 282 0 mark 0
AnchorPoint: "m2m1" -360 0 basemark 0
AnchorPoint: "m2bv2r" -320 0 mark 0
AnchorPoint: "HbWM" -282 0 mark 0
AnchorPoint: "HbNM" -282 0 mark 0
AnchorPoint: "m2b4c" 0 0 mark 0
LayerCount: 2
Fore
SplineSet
-145 -290 m 0x30
 -189 -290 -233 -252 -233 -201 c 0
 -233 -170 -212 -147 -178 -147 c 0
 -136 -147 -87 -185 -87 -235 c 0
 -87 -267 -111 -290 -145 -290 c 0x30
67 -290 m 0
 23 -290 -19 -252 -19 -200 c 0
 -19 -169 1 -147 34 -147 c 0
 76 -147 127 -184 127 -234 c 0x24
 127 -267 102 -290 67 -290 c 0
0 -451 m 0x68
 -42 -451 -91 -413 -91 -363 c 0
 -91 -331 -67 -308 -33 -308 c 0
 10 -308 57 -345 57 -396 c 0
 57 -428 34 -451 0 -451 c 0x68
323 -472 m 0xa1
 281 -472 238 -437 238 -388 c 0
 238 -357 260 -336 292 -336 c 0
 334 -336 378 -372 378 -421 c 0
 378 -451 357 -472 323 -472 c 0xa1
279 -281 m 0
 238 -281 193 -246 193 -198 c 0
 193 -167 215 -145 247 -145 c 0
 290 -145 333 -181 333 -231 c 0x22
 333 -260 313 -281 279 -281 c 0
EndSplineSet
Position2: "positionMoveVowelToLeft subtable" dx=-70 dy=0 dh=0 dv=0
MultipleSubs2: "AddHairspaceAfterMark subtable" hatafsegol hairspace
MultipleSubs2: "AddThinspaceAfterMark subtable" hatafsegol thinspace
EndChar

StartChar: hatafpatah
Encoding: 133 1458 75
Width: 0
VWidth: 2248
GlyphClass: 4
Flags: W
HStem: -472 136<248.852 367.205> -281 136<203.537 322.281> -258 94<-232.395 122.416>
VStem: 193 141<-269.446 -157.249> 238 141<-461.185 -348.834>
AnchorPoint: "m2m5" 492 0 basemark 0
AnchorPoint: "m2m6e" 360 0 basemark 0
AnchorPoint: "m2m2" 282 0 mark 0
AnchorPoint: "m2m1" -360 0 basemark 0
AnchorPoint: "m2bv2r" -320 0 mark 0
AnchorPoint: "HbWM" -282 0 mark 0
AnchorPoint: "HbNM" -282 0 mark 0
AnchorPoint: "m2b4c" 0 0 mark 0
LayerCount: 2
Fore
SplineSet
-186 -258 m 18xa0
 -224 -258 -225 -246 -234 -206 c 0
 -244 -164 -244 -164 -207 -164 c 2
 75 -164 l 2
 112 -164 112 -164 122 -206 c 0
 131 -246 132 -258 94 -258 c 10
 -186 -258 l 18xa0
323 -472 m 0
 279 -472 238 -436 238 -387 c 0
 238 -357 259 -336 292 -336 c 0
 332 -336 379 -372 379 -420 c 0x88
 379 -450 357 -472 323 -472 c 0
279 -281 m 0xd0
 237 -281 193 -246 193 -197 c 0
 193 -167 214 -145 247 -145 c 0
 289 -145 334 -181 334 -230 c 0
 334 -260 312 -281 279 -281 c 0xd0
EndSplineSet
Position2: "positionMoveVowelToLeft subtable" dx=-70 dy=0 dh=0 dv=0
MultipleSubs2: "AddHairspaceAfterMark subtable" hatafpatah hairspace
MultipleSubs2: "AddThinspaceAfterMark subtable" hatafpatah thinspace
EndChar

StartChar: hatafqamats
Encoding: 134 1459 76
Width: 0
VWidth: 2248
GlyphClass: 4
Flags: W
HStem: -470 135<247.537 365.695> -279 135<203.537 322.388> -255 93<-233 -65.0029 -15 121.801>
VStem: -65 50<-278.671 -255.609> 193 140<-267.946 -155.554> 237 140<-458.486 -346.787>
AnchorPoint: "m2m5" 492 0 basemark 0
AnchorPoint: "m2m6e" 360 0 basemark 0
AnchorPoint: "m2m2" 282 0 mark 0
AnchorPoint: "m2m1" -360 0 basemark 0
AnchorPoint: "m2bv2r" -320 0 mark 0
AnchorPoint: "HbWM" -282 0 mark 0
AnchorPoint: "HbNM" -282 0 mark 0
AnchorPoint: "m2b4c" 0 0 mark 0
LayerCount: 2
Fore
SplineSet
8 -485 m 0xd0
 -34 -485 -81 -440 -81 -388 c 0
 -81 -357 -65 -325 -65 -294 c 0
 -65 -281 -69 -268 -76 -255 c 9
 -183 -255 l 18
 -221 -255 -226 -244 -235 -203 c 0
 -238 -189 -240 -180 -240 -174 c 0
 -240 -162 -232 -162 -208 -162 c 2
 74 -162 l 2
 111 -162 111 -162 121 -203 c 0
 124 -217 126 -227 126 -235 c 0
 126 -250 118 -255 93 -255 c 10
 -15 -255 l 17xb0
 -16 -264 -15 -272 -14 -279 c 0
 -1 -332 61 -366 61 -426 c 0
 61 -459 40 -485 8 -485 c 0xd0
323 -470 m 0
 280 -470 237 -435 237 -387 c 0
 237 -357 258 -335 291 -335 c 0
 332 -335 377 -371 377 -419 c 0x94
 377 -449 356 -470 323 -470 c 0
278 -279 m 0xd8
 236 -279 193 -244 193 -195 c 0
 193 -165 214 -144 247 -144 c 0
 289 -144 333 -179 333 -228 c 0
 333 -258 312 -279 278 -279 c 0xd8
EndSplineSet
Position2: "positionMoveVowelToLeft subtable" dx=-70 dy=0 dh=0 dv=0
MultipleSubs2: "AddHairspaceAfterMark subtable" hatafqamats hairspace
MultipleSubs2: "AddThinspaceAfterMark subtable" hatafqamats thinspace
EndChar

StartChar: hiriq
Encoding: 135 1460 77
Width: 0
VWidth: 2248
GlyphClass: 4
Flags: W
HStem: -303 136<-5.5698 113.513>
VStem: -16 141<-291.719 -178.827>
AnchorPoint: "m2m5" 290 0 basemark 0
AnchorPoint: "m2m6e" 150 0 basemark 0
AnchorPoint: "m2m3" 70 0 mark 0
AnchorPoint: "m2m2" 70 0 mark 0
AnchorPoint: "m2m1" -150 0 basemark 0
AnchorPoint: "m2bv2left" 35 0 mark 0
AnchorPoint: "m2bvback" 0 0 mark 0
AnchorPoint: "m2bv2r" -150 0 mark 0
AnchorPoint: "VbWM" -70 0 mark 0
AnchorPoint: "VbNM" -70 0 mark 0
AnchorPoint: "m2b4a" 0 0 mark 0
LayerCount: 2
Fore
SplineSet
70 -303 m 0
 28 -303 -16 -269 -16 -220 c 0
 -16 -189 5 -167 39 -167 c 0
 81 -167 125 -203 125 -252 c 0
 125 -282 103 -303 70 -303 c 0
EndSplineSet
Position2: "positionMoveVowelToLeft subtable" dx=-30 dy=0 dh=0 dv=0
MultipleSubs2: "AddHairspaceAfterMark subtable" hiriq hairspace
MultipleSubs2: "AddThinspaceAfterMark subtable" hiriq thinspace
Substitution2: "Single Substitution lookup 13 subtable" hiriqmem
Ligature2: "L2ccmpCgjZwjZwnjComatibility subtable" cgj hiriq
Ligature2: "L2ccmpCgjZwjZwnjComatibility subtable" zerojoin hiriq
LCarets2: 1 0 
EndChar

StartChar: tsere
Encoding: 136 1461 78
Width: 0
VWidth: 2248
GlyphClass: 4
Flags: W
HStem: -310 144<-111.528 7.52802 102.472 221.528>
VStem: -125 146<-296.281 -179.719> 89 146<-296.281 -179.719>
AnchorPoint: "m2m5" 380 0 basemark 0
AnchorPoint: "m2m6e" 260 0 basemark 0
AnchorPoint: "m2m2" 180 0 mark 0
AnchorPoint: "m2m1" -260 0 basemark 0
AnchorPoint: "m2bv2left" 90 0 mark 0
AnchorPoint: "m2bvback" 0 0 mark 0
AnchorPoint: "m2bv2r" -230 0 mark 0
AnchorPoint: "VbWM" -180 0 mark 0
AnchorPoint: "VbNM" -180 0 mark 0
AnchorPoint: "m2b4b" 0 0 mark 0
LayerCount: 2
Fore
SplineSet
-35 -310 m 0
 -78 -310 -125 -272 -125 -221 c 0
 -125 -189 -103 -166 -69 -166 c 0
 -26 -166 21 -204 21 -255 c 0
 21 -287 -1 -310 -35 -310 c 0
179 -310 m 0
 136 -310 89 -272 89 -221 c 0
 89 -189 111 -166 145 -166 c 0
 188 -166 235 -204 235 -255 c 0
 235 -287 213 -310 179 -310 c 0
EndSplineSet
Position2: "positionMoveVowelToLeft subtable" dx=-70 dy=0 dh=0 dv=0
MultipleSubs2: "AddHairspaceAfterMark subtable" tsere hairspace
MultipleSubs2: "AddThinspaceAfterMark subtable" tsere thinspace
EndChar

StartChar: segol
Encoding: 137 1462 79
Width: 0
VWidth: 2248
GlyphClass: 4
Flags: W
HStem: -450 143<25.8839 149.714> -289 143<-117.787 2.87315 96.2131 216.873>
VStem: -130 146<-275.384 -159.563> 12 150<-435.34 -320.719> 84 146<-275.384 -159.563>
AnchorPoint: "m2m5" 380 0 basemark 0
AnchorPoint: "m2m6e" 260 0 basemark 0
AnchorPoint: "m2m2" 180 0 mark 0
AnchorPoint: "m2m1" -260 0 basemark 0
AnchorPoint: "m2bv2left" 90 0 mark 0
AnchorPoint: "m2bvback" 0 0 mark 0
AnchorPoint: "m2bv2r" -230 0 mark 0
AnchorPoint: "VbWM" -180 0 mark 0
AnchorPoint: "VbNM" -180 0 mark 0
AnchorPoint: "m2b4b" 0 0 mark 0
LayerCount: 2
Fore
SplineSet
-40 -289 m 0xe0
 -83 -289 -130 -252 -130 -201 c 0
 -130 -169 -107 -146 -73 -146 c 0
 -30 -146 16 -184 16 -235 c 0
 16 -266 -6 -289 -40 -289 c 0xe0
174 -289 m 0
 131 -289 84 -252 84 -201 c 0
 84 -169 107 -146 141 -146 c 0
 184 -146 230 -184 230 -235 c 0xc8
 230 -266 208 -289 174 -289 c 0
104 -450 m 0
 61 -450 12 -412 12 -362 c 0
 12 -330 36 -307 71 -307 c 0
 115 -307 162 -344 162 -394 c 0xd0
 162 -426 139 -450 104 -450 c 0
EndSplineSet
Position2: "positionMoveVowelToLeft subtable" dx=-70 dy=0 dh=0 dv=0
MultipleSubs2: "AddHairspaceAfterMark subtable" segol hairspace
MultipleSubs2: "AddThinspaceAfterMark subtable" segol thinspace
EndChar

StartChar: patah
Encoding: 138 1463 80
Width: 0
VWidth: 2248
GlyphClass: 4
Flags: W
HStem: -239 94<-115.25 203.727>
VStem: -122 331<-238.964 -145.001>
AnchorPoint: "m2m5" 380 0 basemark 0
AnchorPoint: "m2m6e" 260 0 basemark 0
AnchorPoint: "m2m3" 178 0 mark 0
AnchorPoint: "m2m2" 180 0 mark 0
AnchorPoint: "m2m1" -260 0 basemark 0
AnchorPoint: "m2bv2left" 90 0 mark 0
AnchorPoint: "m2bvback" 0 0 mark 0
AnchorPoint: "m2bv2r" -230 0 mark 0
AnchorPoint: "VbWM" -180 0 mark 0
AnchorPoint: "VbNM" -180 0 mark 0
AnchorPoint: "m2bpg" 0 0 mark 0
AnchorPoint: "m2b4b" 0 0 mark 0
LayerCount: 2
Fore
SplineSet
-74 -239 m 18
 -108 -239 -108 -227 -117 -187 c 0
 -120 -173 -122 -163 -122 -157 c 0
 -122 -145 -114 -145 -92 -145 c 1
 -8 -145 75 -145 162 -145 c 1
 195 -145 195 -145 203 -187 c 0
 207 -201 209 -211 209 -219 c 0
 209 -234 201 -239 178 -239 c 10
 -74 -239 l 18
EndSplineSet
Position2: "positionMoveVowelToLeft subtable" dx=-70 dy=0 dh=0 dv=0
MultipleSubs2: "AddHairspaceAfterMark subtable" patah hairspace
MultipleSubs2: "AddThinspaceAfterMark subtable" patah thinspace
EndChar

StartChar: qamats
Encoding: 139 1464 81
Width: 0
VWidth: 2248
GlyphClass: 4
Flags: W
HStem: -239 93<-115.25 33.9985 84 203.82>
VStem: 34 50<-308.062 -239.61>
AnchorPoint: "m2m5" 380 0 basemark 0
AnchorPoint: "m2m6e" 260 0 basemark 0
AnchorPoint: "m2m2" 180 0 mark 0
AnchorPoint: "m2m1" -260 0 basemark 0
AnchorPoint: "m2bv2left" 90 0 mark 0
AnchorPoint: "m2bvback" 0 0 mark 0
AnchorPoint: "m2bv2r" -230 0 mark 0
AnchorPoint: "VbWM" -180 0 mark 0
AnchorPoint: "VbNM" -180 0 mark 0
AnchorPoint: "m2b4b" 0 0 mark 0
LayerCount: 2
Fore
SplineSet
108 -469 m 0
 67 -469 19 -424 19 -372 c 0
 19 -341 34 -310 34 -279 c 0
 34 -266 32 -252 24 -239 c 9
 -70 -239 l 18
 -105 -239 -108 -228 -117 -187 c 0
 -120 -173 -122 -164 -122 -158 c 0
 -122 -146 -114 -146 -92 -146 c 1
 -35 -146 21 -145 77 -145 c 0
 105 -145 134 -145 162 -146 c 1
 195 -146 195 -146 203 -187 c 0
 206 -201 209 -211 209 -219 c 0
 209 -234 201 -239 178 -239 c 10
 84 -239 l 17
 83 -248 84 -256 86 -263 c 0
 98 -316 161 -350 161 -410 c 0
 161 -443 140 -469 108 -469 c 0
EndSplineSet
Position2: "positionMoveVowelToLeft subtable" dx=-70 dy=0 dh=0 dv=0
MultipleSubs2: "AddHairspaceAfterMark subtable" qamats
MultipleSubs2: "AddThinspaceAfterMark subtable" qamats
Substitution2: "ShevaAndQamatsForFinalkaf subtable" qamats_for_finalkaf
EndChar

StartChar: holam
Encoding: 140 1465 82
Width: 0
VWidth: 2248
GlyphClass: 4
Flags: W
HStem: 1272 150<-373.015 -249.166>
VStem: -388 154<1287.19 1406.29>
AnchorPoint: "m2m8" -155 0 basemark 0
AnchorPoint: "m2b7d" 0 0 mark 0
AnchorPoint: "m2b7c" 0 0 mark 0
AnchorPoint: "m2b7b" 0 0 mark 0
AnchorPoint: "m2b7a" 0 0 mark 0
LayerCount: 2
Fore
SplineSet
-294 1272 m 0
 -340 1272 -388 1311 -388 1364 c 0
 -388 1396 -365 1422 -328 1422 c 0
 -281 1422 -234 1381 -234 1329 c 0
 -234 1296 -257 1272 -294 1272 c 0
EndSplineSet
EndChar

StartChar: qubuts
Encoding: 142 1467 84
Width: 0
VWidth: 2248
GlyphClass: 4
Flags: W
HStem: -496 135<240.456 361.079> -389 135<71.9957 192.079> -277 135<-97.9416 22.4827>
VStem: -108 142<-266.353 -153.827> 61 142<-376.751 -265.514> 230 142<-484.486 -372.912>
CounterMasks: 1 1c
AnchorPoint: "m2bv2r" -230 0 mark 0
AnchorPoint: "m2m5" 416 0 basemark 0
AnchorPoint: "m2m6e" 350 0 basemark 0
AnchorPoint: "m2m2" 271 0 mark 0
AnchorPoint: "m2m1" -235 0 basemark 0
AnchorPoint: "m2bv2left" 60 0 mark 0
AnchorPoint: "m2bvback" 0 0 mark 0
AnchorPoint: "VbWM" -155 0 mark 0
AnchorPoint: "VbNM" -155 0 mark 0
AnchorPoint: "m2b4b" 0 0 mark 0
LayerCount: 2
Fore
SplineSet
317 -496 m 0x9c
 274 -496 230 -461 230 -413 c 0
 230 -382 252 -361 285 -361 c 0
 326 -361 372 -396 372 -445 c 0
 372 -475 350 -496 317 -496 c 0x9c
-22 -277 m 0x3c
 -66 -277 -108 -243 -108 -194 c 0
 -108 -164 -87 -142 -53 -142 c 0
 -10 -142 34 -178 34 -227 c 0
 34 -257 12 -277 -22 -277 c 0x3c
148 -389 m 0x5c
 106 -389 61 -353 61 -306 c 0
 61 -275 83 -254 117 -254 c 0
 158 -254 203 -289 203 -337 c 0
 203 -367 181 -389 148 -389 c 0x5c
EndSplineSet
Position2: "positionMoveVowelToLeft subtable" dx=-70 dy=0 dh=0 dv=0
MultipleSubs2: "AddHairspaceAfterMark subtable" qubuts hairspace
MultipleSubs2: "AddThinspaceAfterMark subtable" qubuts thinspace
EndChar

StartChar: dagesh
Encoding: 143 1468 85
Width: 0
VWidth: 2248
GlyphClass: 4
Flags: W
HStem: 465 153<-185.428 -64.3234>
VStem: -202 154<481.141 601.859>
AnchorPoint: "m2b2" 0 0 mark 0
LayerCount: 2
Fore
SplineSet
-107 465 m 0
 -153 465 -202 507 -202 559 c 0
 -202 592 -179 618 -143 618 c 0
 -96 618 -48 576 -48 524 c 0
 -48 491 -71 465 -107 465 c 0
EndSplineSet
EndChar

StartChar: meteg
Encoding: 144 1469 86
Width: 0
VWidth: 2248
GlyphClass: 4
Flags: W
HStem: -470 324<49.1875 92.8125>
VStem: -11 165
AnchorPoint: "m2m6c" 800 0 basemark 0
AnchorPoint: "m2m6b" 596 0 basemark 0
AnchorPoint: "m2m6a" 380 0 basemark 0
AnchorPoint: "m2m4" 50 0 mark 0
AnchorPoint: "m2m4" -130 0 basemark 0
AnchorPoint: "m2m2" -130 0 basemark 0
AnchorPoint: "m2m1" 50 0 mark 0
AnchorPoint: "m2bv2left" 25 0 mark 0
AnchorPoint: "m2bv2left" 35 0 mark 0
AnchorPoint: "m2bv2r" -150 0 mark 0
AnchorPoint: "m2b4a" 0 0 mark 0
AnchorPoint: "m2m6b" 35 0 mark 0
LayerCount: 2
Fore
SplineSet
21 -146 m 2
 46 -146 l 2
 83 -146 83 -148 91 -182 c 2
 149 -434 l 2
 152 -445 154 -453 154 -458 c 0
 154 -469 146 -470 121 -470 c 2
 96 -470 l 2
 60 -470 59 -468 51 -434 c 2
 -7 -182 l 2
 -10 -171 -11 -163 -11 -158 c 0
 -11 -147 -4 -146 21 -146 c 2
EndSplineSet
LCarets2: 1 0 
Position2: "Single Positioning lookup 29 subtable" dx=214 dy=0 dh=0 dv=0
Position2: "Single Positioning lookup 28 subtable" dx=360 dy=0 dh=0 dv=0
Position2: "Single Positioning lookup 27 subtable" dx=494 dy=0 dh=0 dv=0
Position2: "Single Positioning lookup 23 subtable" dx=200 dy=0 dh=0 dv=0
Position2: "positionMoveVowelToLeft subtable" dx=-30 dy=0 dh=0 dv=0
MultipleSubs2: "AddHairspaceAfterMark subtable" meteg hairspace
MultipleSubs2: "AddThinspaceAfterMark subtable" meteg thinspace
Ligature2: "L2ccmpCgjZwjZwnjComatibility subtable" cgj meteg
Ligature2: "L2ccmpCgjZwjZwnjComatibility subtable" meteg cgj
Ligature2: "L2ccmpCgjZwjZwnjComatibility subtable" zerononjoin meteg
EndChar

StartChar: makaf
Encoding: 145 1470 87
Width: 988
VWidth: 2248
GlyphClass: 2
Flags: W
HStem: 911 186<-42.3236 576.586>
AnchorPoint: "m2b8a" 518 0 basechar 0
AnchorPoint: "m2b8b" 295 0 basechar 0
AnchorPoint: "m2b8c" 789 0 basechar 0
LayerCount: 2
Fore
SplineSet
541 1097 m 18
 593 1097 617 1097 617 1076 c 0
 617 1065 612 1049 603 1023 c 10
 590 984 l 17
 560 916 570 911 485 911 c 10
 -24 911 l 18
 -64 911 -77 911 -81 925 c 1
 -81 929 -82 932 -82 938 c 0
 -82 946 -80 959 -71 982 c 10
 -55 1023 l 18
 -27 1096 -30 1097 64 1097 c 10
 541 1097 l 18
EndSplineSet
EndChar

StartChar: rafe
Encoding: 146 1471 88
Width: 0
VWidth: 2248
GlyphClass: 4
Flags: W
HStem: 1236 125<-483.859 -112.347>
VStem: -493 385<1236.01 1360.99>
AnchorPoint: "m2mrafe" -46.1738 200 basemark 0
AnchorPoint: "m2b3" 0 0 mark 0
LayerCount: 2
Fore
SplineSet
-465 1236 m 2
 -482 1236 -493 1240 -493 1253 c 0
 -493 1256 -494 1259 -493 1262 c 10
 -480 1340 l 18
 -478 1352 -478 1361 -465 1361 c 2
 -133 1361 l 2
 -116 1361 -108 1359 -108 1345 c 0
 -108 1342 -108 1339 -108 1336 c 10
 -114 1257 l 17
 -116 1247 -121 1236 -134 1236 c 2
 -465 1236 l 2
EndSplineSet
EndChar

StartChar: paseq
Encoding: 147 1472 89
Width: 351
VWidth: 2248
GlyphClass: 2
Flags: W
VStem: -111 321
LayerCount: 2
Fore
SplineSet
-111 1139 m 1
 -58 1139 l 1
 210 -22 l 1
 157 -22 l 1
 -111 1139 l 1
EndSplineSet
EndChar

StartChar: shindot
Encoding: 148 1473 90
Width: 0
VWidth: 2248
GlyphClass: 4
Flags: W
HStem: 1185 150<-353.015 -229.166>
VStem: -368 154<1200.19 1319.29>
AnchorPoint: "m2b0" -437 0 mark 0
LayerCount: 2
Fore
SplineSet
-274 1185 m 0
 -320 1185 -368 1224 -368 1277 c 0
 -368 1309 -345 1335 -308 1335 c 0
 -261 1335 -214 1294 -214 1242 c 0
 -214 1209 -237 1185 -274 1185 c 0
EndSplineSet
EndChar

StartChar: sofpasuq
Encoding: 150 1475 92
Width: 539
VWidth: 2248
GlyphClass: 2
Flags: W
VStem: -94 488
LayerCount: 2
Fore
SplineSet
298 88 m 0
 295 70 284 62 272 62 c 0
 259 62 244 70 234 88 c 0
 204 140 151 169 97 195 c 0
 82 203 70 219 70 235 c 0
 70 244 74 253 85 260 c 1
 119 289 156 315 169 369 c 1
 171 387 181 396 194 396 c 0
 206 396 220 388 230 371 c 1
 268 316 318 291 366 261 c 1
 384 252 394 236 394 222 c 0
 394 213 390 204 381 198 c 0
 340 172 305 140 298 88 c 0
134 794 m 1
 131 777 121 768 109 768 c 0
 96 768 82 777 71 795 c 0
 40 848 -12 877 -66 904 c 0
 -81 912 -94 928 -94 943 c 0
 -94 952 -89 961 -78 968 c 1
 -43 997 -7 1023 5 1077 c 0
 8 1095 19 1104 31 1104 c 0
 43 1104 57 1095 67 1078 c 1
 106 1024 154 999 202 970 c 1
 218 962 232 945 232 929 c 0
 232 921 228 913 219 906 c 1
 178 880 140 847 134 794 c 1
EndSplineSet
EndChar

StartChar: upperdot
Encoding: 151 1476 93
Width: 0
VWidth: 2248
GlyphClass: 4
Flags: W
HStem: 1420 211<-383.955 -322.063>
VStem: -446 190<1479.47 1566.59>
AnchorPoint: "m2b1" 25.8574 -112 mark 0
LayerCount: 2
Fore
SplineSet
-328 1420 m 0
 -342 1420 -356 1443 -392 1471 c 1
 -424 1499 -443 1506 -446 1520 c 0
 -446 1522 -446 1523 -446 1525 c 0
 -446 1538 -433 1549 -417 1576 c 1
 -396 1608 -391 1631 -377 1631 c 0
 -363 1631 -346 1608 -311 1576 c 0
 -279 1546 -256 1536 -256 1516 c 0
 -256 1504 -270 1496 -288 1471 c 1
 -310 1443 -314 1420 -328 1420 c 0
EndSplineSet
EndChar

StartChar: lowerdot
Encoding: 152 1477 94
Width: 0
VWidth: 2248
GlyphClass: 4
Flags: W
HStem: -508 211<61.8286 122.941>
VStem: 0 189<-448.53 -361.41>
AnchorPoint: "m2b1" -17.3154 75 mark 0
LayerCount: 2
Fore
SplineSet
117 -508 m 0
 103 -508 89 -485 54 -457 c 1
 21 -429 3 -422 0 -408 c 1
 -0 -403 l 2
 -0 -390 12 -379 28 -352 c 1
 49 -320 55 -297 69 -297 c 0
 83 -297 99 -320 134 -352 c 0
 166 -382 189 -392 189 -412 c 0
 189 -424 175 -432 158 -457 c 1
 135 -485 131 -508 117 -508 c 0
EndSplineSet
EndChar

StartChar: nunhapukha
Encoding: 153 1478 95
Width: 712
VWidth: 2248
GlyphClass: 2
Flags: W
HStem: 0 225<277.586 537.051>
AnchorPoint: "m2b8a" 350 0 basechar 0
AnchorPoint: "m2b8b" 100 0 basechar 0
AnchorPoint: "m2b8c" 500 0 basechar 0
AnchorPoint: "m2b1" 309 0 basechar 0
LayerCount: 2
Fore
SplineSet
38 798 m 1
 30 802 22 804 14 804 c 0
 -12 804 -38 788 -58 788 c 0
 -85 788 -81 828 -87 855 c 0
 -91 872 -93 884 -93 894 c 0
 -93 914 -87 927 -84 963 c 0
 -77 1058 123 1098 170 1123 c 1
 201 1141 182 1201 200 1201 c 0
 231 1201 260 1115 278 1035 c 0
 283 1016 285 998 285 983 c 0
 285 861 162 847 119 828 c 0
 96 818 85 813 85 790 c 0
 85 777 88 758 95 729 c 0
 104 688 124 555 145 462 c 0
 163 385 194 274 199 252 c 0
 204 230 214 225 248 225 c 10
 382 225 l 2
 472 225 492 223 550 168 c 1
 616 107 645 47 650 26 c 0
 650 24 651 22 651 20 c 0
 651 0 618 0 549 0 c 2
 432 0 l 2
 305 0 313 7 238 88 c 10
 135 198 l 17
 120 223 121 247 113 283 c 0
 74 452 67 673 38 798 c 1
EndSplineSet
EndChar

StartChar: qamatsqatan
Encoding: 154 1479 96
Width: 0
VWidth: 2248
GlyphClass: 4
Flags: W
HStem: -238 93<-99.0708 35.7913 85 187.771>
VStem: 46 127<-527.363 -375.768> 46 39<-318.56 -244.732>
AnchorPoint: "m2m5" 380 0 basemark 0
AnchorPoint: "m2m6e" 260 0 basemark 0
AnchorPoint: "m2m2" 180 0 mark 0
AnchorPoint: "m2m1" -260 0 basemark 0
AnchorPoint: "m2bv2left" 90 0 mark 0
AnchorPoint: "m2bvback" 0 0 mark 0
AnchorPoint: "m2bv2r" -230 0 mark 0
AnchorPoint: "VbWM" -180 0 mark 0
AnchorPoint: "VbNM" -180 0 mark 0
AnchorPoint: "m2b4b" 0 0 mark 0
LayerCount: 2
Fore
SplineSet
46 -365 m 0xa0
 46 -350 36 -262 24 -238 c 9
 -60 -238 l 18
 -90 -238 -92 -227 -101 -186 c 0
 -104 -172 -106 -163 -106 -157 c 0
 -106 -145 -98 -145 -78 -145 c 10
 148 -145 l 18
 179 -145 179 -145 187 -186 c 0
 190 -199 192 -210 192 -217 c 0
 192 -233 184 -238 164 -238 c 10
 85 -238 l 17xa0
 85 -242 89 -259 93 -277 c 0
 127 -423 160 -381 171 -457 c 16
 172 -464 173 -471 173 -478 c 0xc0
 173 -509 156 -536 124 -536 c 0
 79 -536 34 -487 34 -433 c 0
 34 -409 46 -403 46 -365 c 0xa0
EndSplineSet
Position2: "positionMoveVowelToLeft subtable" dx=-70 dy=0 dh=0 dv=0
MultipleSubs2: "AddHairspaceAfterMark subtable" qamatsqatan hairspace
MultipleSubs2: "AddThinspaceAfterMark subtable" qamatsqatan thinspace
EndChar

StartChar: alef
Encoding: 155 1488 97
Width: 1057
VWidth: 2248
GlyphClass: 2
Flags: W
VStem: 21 91<407.628 559.716>
AnchorPoint: "m2b10" -300 0 basechar 0
AnchorPoint: "m2b9" 677 0 basechar 0
AnchorPoint: "m2b8a" 527 0 basechar 0
AnchorPoint: "m2b8b" 255 0 basechar 0
AnchorPoint: "m2b8c" 800 0 basechar 0
AnchorPoint: "m2b7c" -195 0 basechar 0
AnchorPoint: "m2b7b" 258 0 basechar 0
AnchorPoint: "m2b7a" 158 0 basechar 0
AnchorPoint: "m2b5a" 566 0 basechar 0
AnchorPoint: "m2b5b" 869 0 basechar 0
AnchorPoint: "m2bv2r" 566 0 basechar 0
AnchorPoint: "HbWM" 390 0 basechar 0
AnchorPoint: "HbNM" 330 0 basechar 0
AnchorPoint: "VbWM" 550 0 basechar 0
AnchorPoint: "VbNM" 490 0 basechar 0
AnchorPoint: "m2b4a" 566 0 basechar 0
AnchorPoint: "m2b4b" 566 0 basechar 0
AnchorPoint: "m2b4c" 566 0 basechar 0
AnchorPoint: "m2b4d" 566 0 basechar 0
AnchorPoint: "m2b3" 527 0 basechar 0
AnchorPoint: "m2b1" 566 0 basechar 0
LayerCount: 2
Fore
SplineSet
156 3 m 18
 129 3 102 10 102 40 c 0
 102 82 183 69 183 124 c 0
 183 129 184 134 183 140 c 0
 172 185 50 259 27 360 c 0
 23 379 21 397 21 415 c 0
 21 514 82 600 152 653 c 1
 45 748 -33 823 -63 953 c 16
 -69 980 -72 1010 -72 1039 c 0
 -72 1110 -56 1176 -34 1176 c 0
 -21 1176 -6 1158 9 1113 c 0
 75 924 334 753 564 585 c 9
 655 766 l 25
 504 890 l 17
 464 928 442 966 442 1026 c 0
 442 1056 449 1086 460 1112 c 8
 478 1153 492 1210 515 1210 c 3
 547 1210 536 1158 543 1128 c 0
 562 1045 785 961 808 864 c 0
 809 856 810 849 810 841 c 0
 810 790 771 744 753 682 c 9
 686 742 l 25
 596 562 l 25
 769 423 l 17
 847 359 886 282 903 210 c 1
 915 154 921 110 921 78 c 0
 921 31 909 9 888 9 c 0
 874 9 857 25 833 68 c 0
 687 323 444 412 261 576 c 9
 237 591 225 615 199 615 c 19
 139 615 112 562 112 506 c 0
 112 492 114 478 117 465 c 0
 142 355 330 383 378 174 c 0
 380 166 380 159 380 151 c 0
 380 73 293 3 263 3 c 10
 156 3 l 18
EndSplineSet
MultipleSubs2: "Addhairspacebeforeletter subtable" hairspace alef
MultipleSubs2: "Addthinspacebeforeletter subtable" thinspace alef
MultipleSubs2: "AddHairspaceAfterMark subtable" alef hairspace
MultipleSubs2: "AddThinspaceAfterMark subtable" alef thinspace
Substitution2: "jaltWideLetterAlternativesinHeb subtable" alef.wide
EndChar

StartChar: bet
Encoding: 156 1489 98
Width: 961
VWidth: 2248
GlyphClass: 2
Flags: W
HStem: 0 228<88.863 736.99 772.703 814.304> 900 225<0.961174 476.026>
AnchorPoint: "m2b10" -300 0 basechar 0
AnchorPoint: "m2b9" 653 0 basechar 0
AnchorPoint: "m2b8a" 503 0 basechar 0
AnchorPoint: "m2b8b" 161 0 basechar 0
AnchorPoint: "m2b8c" 780 0 basechar 0
AnchorPoint: "m2b7c" -195 0 basechar 0
AnchorPoint: "m2b7b" 220 0 basechar 0
AnchorPoint: "m2b7a" 120 0 basechar 0
AnchorPoint: "m2b5a" 500 0 basechar 0
AnchorPoint: "m2b5b" 781 0 basechar 0
AnchorPoint: "m2bv2r" 503 0 basechar 0
AnchorPoint: "VbWM" 460 0 basechar 0
AnchorPoint: "VbNM" 400 0 basechar 0
AnchorPoint: "m2b4a" 503 0 basechar 0
AnchorPoint: "m2b4b" 503 0 basechar 0
AnchorPoint: "m2b4c" 503 0 basechar 0
AnchorPoint: "m2b4d" 503 0 basechar 0
AnchorPoint: "m2b3" 503 0 basechar 0
AnchorPoint: "m2b1" 503 0 basechar 0
LayerCount: 2
Fore
SplineSet
111 0 m 18
 60 0 33 -0 33 24 c 0
 33 37 41 58 52 89 c 10
 70 136 l 17
 101 228 102 228 219 228 c 2
 682 229 l 2
 723 229 737 229 737 247 c 0
 737 252 736 258 735 265 c 2
 604 735 l 17
 587 810 547 900 398 900 c 10
 226 900 l 2
 62 900 -47 928 -79 1066 c 9
 -84 1089 l 18
 -90 1115 -98 1144 -98 1172 c 0
 -98 1193 -90 1204 -79 1204 c 0
 -68 1204 -53 1193 -41 1169 c 0
 -18 1126 -16 1125 38 1125 c 2
 308 1125 l 2
 477 1125 605 1001 628 903 c 10
 775 263 l 18
 783 228 777 228 801 228 c 2
 818 228 l 2
 871 228 870 230 870 205 c 0
 870 192 863 170 851 138 c 2
 829 82 l 2
 800 6 801 0 744 0 c 2
 111 0 l 18
EndSplineSet
MultipleSubs2: "Addhairspacebeforeletter subtable" hairspace bet
MultipleSubs2: "Addthinspacebeforeletter subtable" thinspace bet
MultipleSubs2: "AddHairspaceAfterMark subtable" bet hairspace
MultipleSubs2: "AddThinspaceAfterMark subtable" bet thinspace
EndChar

StartChar: gimel
Encoding: 157 1490 99
Width: 665
VWidth: 2248
GlyphClass: 2
Flags: W
HStem: 0 228<82.2482 348.602>
VStem: 29 338<1.08701 155.485>
AnchorPoint: "m2b10" -300 0 basechar 0
AnchorPoint: "m2b9" 540 0 basechar 0
AnchorPoint: "m2b8a" 392 0 basechar 0
AnchorPoint: "m2b8b" 264 0 basechar 0
AnchorPoint: "m2b8c" 526 0 basechar 0
AnchorPoint: "m2b7d" 31 0 basechar 0
AnchorPoint: "m2b7c" -195 0 basechar 0
AnchorPoint: "m2b7b" 271 0 basechar 0
AnchorPoint: "m2b7a" 171 0 basechar 0
AnchorPoint: "m2b5a" 320 0 basechar 0
AnchorPoint: "m2b5b" 495 0 basechar 0
AnchorPoint: "m2bv2r" 322 0 basechar 0
AnchorPoint: "VbWM" 360 0 basechar 0
AnchorPoint: "VbNM" 300 0 basechar 0
AnchorPoint: "m2b4a" 322 0 basechar 0
AnchorPoint: "m2b4b" 322 0 basechar 0
AnchorPoint: "m2b4c" 322 0 basechar 0
AnchorPoint: "m2b4d" 322 0 basechar 0
AnchorPoint: "m2b3" 392 0 basechar 0
AnchorPoint: "m2b1" 392 0 basechar 0
LayerCount: 2
Fore
SplineSet
413 544 m 2
 470 300 532 164 538 137 c 0
 540 130 541 124 541 117 c 0
 541 101 536 85 532 58 c 9
 520 25 l 17
 507 5 495 -4 486 -4 c 0
 474 -4 466 9 460 34 c 2
 453 64 l 2
 447 90 424 261 408 261 c 0
 404 261 399 250 392 228 c 1
 367 58 l 1
 349 0 347 0 286 0 c 10
 82 0 l 18
 41 0 29 3 29 18 c 0
 29 26 33 38 38 56 c 1
 76 167 l 2
 97 228 97 228 161 228 c 2
 292 228 l 2
 356 228 388 372 388 412 c 1
 381 493 374 534 362 584 c 2
 339 683 l 2
 323 752 302 809 228 841 c 0
 170 865 15 864 -25 1034 c 0
 -36 1082 -46 1137 -46 1174 c 0
 -46 1198 -42 1214 -29 1214 c 0
 -11 1214 -2 1156 37 1136 c 0
 88 1111 127 1111 173 1097 c 0
 231 1079 302 1025 316 966 c 2
 413 544 l 2
EndSplineSet
MultipleSubs2: "Addhairspacebeforeletter subtable" hairspace gimel
MultipleSubs2: "Addthinspacebeforeletter subtable" thinspace gimel
MultipleSubs2: "AddHairspaceAfterMark subtable" gimel hairspace
MultipleSubs2: "AddThinspaceAfterMark subtable" gimel thinspace
EndChar

StartChar: dalet
Encoding: 158 1491 100
Width: 1040
VWidth: 2248
GlyphClass: 2
Flags: W
HStem: 0 21G<780.5 789> 901 227<-102.298 572.979 623.097 666.37>
AnchorPoint: "m2b10" -300 0 basechar 0
AnchorPoint: "m2b9" 660 0 basechar 0
AnchorPoint: "m2b8a" 511 0 basechar 0
AnchorPoint: "m2b8b" 91 0 basechar 0
AnchorPoint: "m2b8c" 856 0 basechar 0
AnchorPoint: "m2b7c" -195 0 basechar 0
AnchorPoint: "m2b7b" 124 0 basechar 0
AnchorPoint: "m2b7a" 24 0 basechar 0
AnchorPoint: "m2b5a" 766 0 basechar 0
AnchorPoint: "m2b5b" 865 0 basechar 0
AnchorPoint: "m2bv2left" 799 0 basechar 0
AnchorPoint: "m2b4a" 799 0 basechar 0
AnchorPoint: "m2b4b" 799 0 basechar 0
AnchorPoint: "m2b4c" 737 0 basechar 0
AnchorPoint: "m2b4d" 637 0 basechar 0
AnchorPoint: "m2b3" 511 0 basechar 0
AnchorPoint: "m2b1" 511 0 basechar 0
LayerCount: 2
Fore
SplineSet
140 901 m 18
 -55 901 -139 923 -171 1063 c 9
 -178 1090 l 18
 -184 1116 -196 1158 -196 1186 c 0
 -196 1207 -188 1218 -176 1218 c 0
 -165 1218 -151 1207 -138 1183 c 0
 -115 1140 -103 1128 -49 1128 c 2
 561 1128 l 2
 621 1128 646 1124 665 1087 c 1
 697 1006 l 2
 715 958 725 949 725 906 c 0
 725 886 718 872 713 872 c 0
 706 871 696 874 683 886 c 0
 673 896 655 901 642 901 c 0
 632 901 625 898 623 895 c 1
 648 787 l 2
 691 601 759 329 824 161 c 1
 830 132 833 108 833 89 c 0
 833 11 791 -0 787 0 c 0
 774 0 760 18 749 65 c 2
 577 841 l 1
 564 895 560 901 505 901 c 10
 140 901 l 18
EndSplineSet
MultipleSubs2: "Addhairspacebeforeletter subtable" hairspace dalet
MultipleSubs2: "Addthinspacebeforeletter subtable" thinspace dalet
MultipleSubs2: "AddHairspaceAfterMark subtable" dalet hairspace
MultipleSubs2: "AddThinspaceAfterMark subtable" dalet thinspace
Substitution2: "jaltWideLetterAlternativesinHeb subtable" dalet.wide
EndChar

StartChar: he
Encoding: 159 1492 101
Width: 1096
VWidth: 2248
GlyphClass: 2
Flags: W
HStem: -14 35G<141 150.5 863.5 872> 901 227<-64.4835 655.714>
AnchorPoint: "m2b10" -300 0 basechar 0
AnchorPoint: "m2b9" 680 0 basechar 0
AnchorPoint: "m2b8a" 529 0 basechar 0
AnchorPoint: "m2b8b" 118 0 basechar 0
AnchorPoint: "m2b8c" 930 0 basechar 0
AnchorPoint: "m2b7c" -195 0 basechar 0
AnchorPoint: "m2b7b" 156 0 basechar 0
AnchorPoint: "m2b7a" 56 0 basechar 0
AnchorPoint: "m2b5a" 529 0 basechar 0
AnchorPoint: "m2b5b" 885 0 basechar 0
AnchorPoint: "m2bv2r" 529 0 basechar 0
AnchorPoint: "HbWM" 340 0 basechar 0
AnchorPoint: "HbNM" 280 0 basechar 0
AnchorPoint: "VbWM" 520 0 basechar 0
AnchorPoint: "VbNM" 460 0 basechar 0
AnchorPoint: "m2bpg" 1000 0 basechar 0
AnchorPoint: "m2b4a" 529 0 basechar 0
AnchorPoint: "m2b4b" 529 0 basechar 0
AnchorPoint: "m2b4c" 529 0 basechar 0
AnchorPoint: "m2b4d" 529 0 basechar 0
AnchorPoint: "m2b3" 529 0 basechar 0
AnchorPoint: "m2b1" 529 0 basechar 0
LayerCount: 2
Fore
SplineSet
769 945 m 0
 777 910 767 886 759 886 c 1
 753 885 750 901 732 901 c 0
 714 901 708 898 713 876 c 2
 733 787 l 1
 776 601 841 328 906 160 c 1
 913 131 915 107 915 88 c 0
 915 11 874 -0 870 0 c 0
 857 0 843 17 832 64 c 2
 660 841 l 1
 647 895 643 901 588 901 c 2
 170 901 l 2
 -8 901 -111 928 -144 1068 c 9
 -148 1089 l 17
 -154 1115 -161 1144 -161 1172 c 0
 -161 1193 -153 1204 -142 1204 c 0
 -131 1204 -116 1193 -104 1169 c 0
 -83 1130 -79 1128 -38 1128 c 2
 576 1128 l 2
 688 1128 717 1089 736 1041 c 1
 736 1041 764 968 769 945 c 0
98 573 m 10
 195 151 l 18
 203 118 207 97 207 80 c 0
 207 50 194 36 167 0 c 0
 159 -10 155 -14 146 -14 c 0
 136 -14 143 31 133 74 c 10
 26 539 l 18
 16 582 11 601 11 613 c 0
 11 625 16 629 25 646 c 0
 42 679 49 682 59 682 c 0
 73 682 81 647 98 573 c 10
EndSplineSet
MultipleSubs2: "Addhairspacebeforeletter subtable" hairspace he
MultipleSubs2: "Addthinspacebeforeletter subtable" thinspace he
MultipleSubs2: "AddHairspaceAfterMark subtable" he hairspace
MultipleSubs2: "AddThinspaceAfterMark subtable" he thinspace
Substitution2: "jaltWideLetterAlternativesinHeb subtable" he.wide
EndChar

StartChar: vav
Encoding: 160 1493 102
Width: 551
VWidth: 2248
GlyphClass: 2
Flags: W
HStem: -15 21G<356 368>
VStem: 336 72<-10.9266 183.495>
AnchorPoint: "m2b10" -300 0 basechar 0
AnchorPoint: "m2b9" 425 0 basechar 0
AnchorPoint: "m2b8a" 276 0 basechar 0
AnchorPoint: "m2b8b" 130 0 basechar 0
AnchorPoint: "m2b8c" 430 0 basechar 0
AnchorPoint: "m2b7d" -89 0 basechar 0
AnchorPoint: "m2b7c" -195 0 basechar 0
AnchorPoint: "m2b7b" 151 0 basechar 0
AnchorPoint: "m2b7a" 51 0 basechar 0
AnchorPoint: "m2b5a" 364 0 basechar 0
AnchorPoint: "m2b5b" 460 0 basechar 0
AnchorPoint: "m2bv2left" 370 0 basechar 0
AnchorPoint: "VbWM" 350 0 basechar 0
AnchorPoint: "VbNM" 300 0 basechar 0
AnchorPoint: "m2b4a" 380 0 basechar 0
AnchorPoint: "m2b4b" 368 0 basechar 0
AnchorPoint: "m2b4c" 303 0 basechar 0
AnchorPoint: "m2b4d" 246 0 basechar 0
AnchorPoint: "m2b1" 276 0 basechar 0
LayerCount: 2
Fore
SplineSet
408 42 m 0
 408 16 374 -15 362 -15 c 0
 350 -15 342 -1 336 24 c 2
 329 55 l 1
 318 181 241 607 214 722 c 0
 198 791 190 800 116 832 c 0
 58 856 -97 854 -136 1024 c 0
 -148 1074 -161 1129 -161 1162 c 0
 -161 1182 -156 1194 -145 1194 c 0
 -127 1194 -117 1136 -79 1116 c 1
 -28 1091 12 1091 58 1077 c 0
 117 1059 193 1007 206 948 c 2
 300 533 l 1
 396 130 l 2
 401 107 408 76 408 42 c 0
EndSplineSet
MultipleSubs2: "Addhairspacebeforeletter subtable" hairspace vav
MultipleSubs2: "Addthinspacebeforeletter subtable" thinspace vav
MultipleSubs2: "AddHairspaceAfterMark subtable" vav hairspace
MultipleSubs2: "AddThinspaceAfterMark subtable" vav thinspace
EndChar

StartChar: zayin
Encoding: 161 1494 103
Width: 564
VWidth: 2248
GlyphClass: 2
Flags: W
VStem: 109 76<456.69 767.376> 256 76<-10.5461 202.068>
AnchorPoint: "m2b10" -300 0 basechar 0
AnchorPoint: "m2b9" 500 0 basechar 0
AnchorPoint: "m2b8a" 351 0 basechar 0
AnchorPoint: "m2b8b" 233 0 basechar 0
AnchorPoint: "m2b8c" 426 0 basechar 0
AnchorPoint: "m2b7d" 33 0 basechar 0
AnchorPoint: "m2b7c" -195 0 basechar 0
AnchorPoint: "m2b7b" 273 0 basechar 0
AnchorPoint: "m2b7a" 173 0 basechar 0
AnchorPoint: "m2b5a" 272 0 basechar 0
AnchorPoint: "m2b5b" 426 0 basechar 0
AnchorPoint: "m2bv2left" 290 0 basechar 0
AnchorPoint: "VbWM" 340 0 basechar 0
AnchorPoint: "VbNM" 280 0 basechar 0
AnchorPoint: "m2b4a" 289 0 basechar 0
AnchorPoint: "m2b4b" 289 0 basechar 0
AnchorPoint: "m2b4c" 319 0 basechar 0
AnchorPoint: "m2b4d" 232 0 basechar 0
AnchorPoint: "m2b1" 351 0 basechar 0
LayerCount: 2
Fore
SplineSet
-60 998 m 0
 -64 1013 -65 1034 -65 1057 c 0
 -65 1125 -52 1213 -27 1213 c 2
 -25 1213 l 1
 -8 1209 -12 1152 21 1125 c 0
 95 1066 290 1028 290 886 c 1
 287 803 l 18
 285 771 282 758 269 758 c 0
 256 758 233 772 193 794 c 1
 187 769 185 738 185 706 c 0
 185 462 282 325 327 132 c 0
 330 117 332 102 332 89 c 0
 332 51 319 19 299 -12 c 1
 291 -21 282 -27 273 -27 c 0
 266 -27 259 -22 256 -10 c 1
 248 65 237 127 224 182 c 0
 196 302 109 385 109 541 c 0
 109 643 142 757 159 807 c 1
 124 831 -32 873 -60 998 c 0
EndSplineSet
MultipleSubs2: "Addhairspacebeforeletter subtable" hairspace zayin
MultipleSubs2: "Addthinspacebeforeletter subtable" thinspace zayin
MultipleSubs2: "AddHairspaceAfterMark subtable" zayin hairspace
MultipleSubs2: "AddThinspaceAfterMark subtable" zayin thinspace
EndChar

StartChar: het
Encoding: 162 1495 104
Width: 1135
VWidth: 2248
GlyphClass: 2
Flags: W
HStem: 0 21G<906.5 915> 902 226<39 701.045>
VStem: -21 60<719.596 900.961> 142 103<-16.9766 121.254>
AnchorPoint: "m2b10" -300 0 basechar 0
AnchorPoint: "m2b9" 725 0 basechar 0
AnchorPoint: "m2b8a" 575 0 basechar 0
AnchorPoint: "m2b8b" 104 0 basechar 0
AnchorPoint: "m2b8c" 934 0 basechar 0
AnchorPoint: "m2b7c" -195 0 basechar 0
AnchorPoint: "m2b7b" 151 0 basechar 0
AnchorPoint: "m2b7a" 51 0 basechar 0
AnchorPoint: "m2b5a" 584 0 basechar 0
AnchorPoint: "m2b5b" 913 0 basechar 0
AnchorPoint: "m2bv2r" 584 0 basechar 0
AnchorPoint: "HbWM" 440 0 basechar 0
AnchorPoint: "HbNM" 380 0 basechar 0
AnchorPoint: "VbWM" 560 0 basechar 0
AnchorPoint: "VbNM" 480 0 basechar 0
AnchorPoint: "m2bpg" 1000 0 basechar 0
AnchorPoint: "m2b4a" 584 0 basechar 0
AnchorPoint: "m2b4b" 584 0 basechar 0
AnchorPoint: "m2b4c" 584 0 basechar 0
AnchorPoint: "m2b4d" 584 0 basechar 0
AnchorPoint: "m2b2" 539 0 basechar 0
AnchorPoint: "m2b1" 575 0 basechar 0
LayerCount: 2
Fore
SplineSet
771 1041 m 0
 775 1032 809 955 809 922 c 0
 809 900 802 886 796 886 c 0
 790 886 783 902 765 902 c 0
 754 902 751 899 757 877 c 2
 796 707 l 2
 839 521 885 328 950 160 c 1
 957 131 959 108 959 88 c 0
 959 11 917 0 913 0 c 0
 900 0 886 17 875 64 c 0
 847 187 773 544 739 693 c 2
 705 842 l 2
 692 896 690 902 635 902 c 2
 39 902 l 1
 45 838 72 696 87 633 c 0
 128 457 206 266 245 72 c 0
 249 57 249 49 227 19 c 0
 205 -12 193 -29 184 -29 c 0
 172 -29 156 -1 142 59 c 10
 -4 693 l 2
 -12 726 -21 770 -21 810 c 0
 -21 847 -14 880 9 902 c 1
 -43 917 -128 978 -149 1068 c 9
 -153 1089 l 17
 -159 1115 -167 1156 -167 1183 c 0
 -167 1204 -159 1215 -148 1215 c 0
 -136 1215 -122 1204 -109 1180 c 0
 -87 1138 -83 1128 -29 1128 c 2
 618 1128 l 2
 731 1128 745 1090 771 1041 c 0
EndSplineSet
MultipleSubs2: "Addhairspacebeforeletter subtable" hairspace het
MultipleSubs2: "Addthinspacebeforeletter subtable" thinspace het
MultipleSubs2: "AddHairspaceAfterMark subtable" het hairspace
MultipleSubs2: "AddThinspaceAfterMark subtable" het thinspace
EndChar

StartChar: tet
Encoding: 163 1496 105
Width: 1097
VWidth: 2248
GlyphClass: 2
Flags: W
HStem: -4 232<209.666 746.753> 879 249<440 646>
VStem: 22 63<516.062 804.111> 405 43<499.75 663.844> 816 88<325.321 710.521>
AnchorPoint: "m2b10" -300 0 basechar 0
AnchorPoint: "m2b9" 700 0 basechar 0
AnchorPoint: "m2b8a" 546 0 basechar 0
AnchorPoint: "m2b8b" 140 0 basechar 0
AnchorPoint: "m2b8c" 917 0 basechar 0
AnchorPoint: "m2b7c" -195 0 basechar 0
AnchorPoint: "m2b7b" 177 0 basechar 0
AnchorPoint: "m2b7a" 77 0 basechar 0
AnchorPoint: "m2b5a" 546 0 basechar 0
AnchorPoint: "m2b5b" 827 0 basechar 0
AnchorPoint: "m2bv2r" 546 0 basechar 0
AnchorPoint: "VbWM" 510 0 basechar 0
AnchorPoint: "VbNM" 430 0 basechar 0
AnchorPoint: "m2b4a" 546 0 basechar 0
AnchorPoint: "m2b4b" 546 0 basechar 0
AnchorPoint: "m2b4c" 546 0 basechar 0
AnchorPoint: "m2b4d" 546 0 basechar 0
AnchorPoint: "m2b1" 546 0 basechar 0
LayerCount: 2
Fore
SplineSet
-121 1204 m 0
 -110 1204 -97 1190 -87 1168 c 1
 -63 1126 -40 1108 70 1078 c 1
 151 1048 243 1023 264 933 c 0
 265 925 265 917 268 907 c 9
 272 771 l 25
 109 818 l 17
 92 790 85 742 85 694 c 0
 85 655 90 617 96 588 c 0
 115 505 170 356 189 313 c 0
 220 243 240 228 298 228 c 10
 664 228 l 18
 732 228 722 228 755 287 c 1
 778 336 816 413 816 520 c 0
 816 553 812 590 803 630 c 0
 777 741 691 879 601 879 c 0
 475 879 482 708 448 540 c 1
 436 502 437 488 405 488 c 9
 405 1046 l 18
 405 1102 413 1128 467 1128 c 0
 501 1128 802 1062 888 688 c 0
 900 638 904 585 904 529 c 0
 904 382 871 221 842 89 c 0
 825 7 819 -4 745 -4 c 10
 269 -4 l 18
 199 -4 190 1 179 46 c 1
 166 106 l 1
 136 234 79 367 35 498 c 1
 26 537 22 578 22 617 c 0
 22 698 39 776 66 837 c 1
 -61 861 -97 924 -119 1018 c 0
 -122 1031 -134 1107 -134 1158 c 0
 -134 1184 -131 1204 -121 1204 c 0
EndSplineSet
MultipleSubs2: "Addhairspacebeforeletter subtable" hairspace tet
MultipleSubs2: "Addthinspacebeforeletter subtable" thinspace tet
MultipleSubs2: "AddHairspaceAfterMark subtable" tet hairspace
MultipleSubs2: "AddThinspaceAfterMark subtable" tet thinspace
EndChar

StartChar: yod
Encoding: 164 1497 106
Width: 530
VWidth: 2248
GlyphClass: 2
Flags: W
HStem: 557 646
VStem: -158 445
AnchorPoint: "m2b10" -300 0 basechar 0
AnchorPoint: "m2b9" 420 0 basechar 0
AnchorPoint: "m2b8a" 269 0 basechar 0
AnchorPoint: "m2b8b" 116 0 basechar 0
AnchorPoint: "m2b8c" 453 0 basechar 0
AnchorPoint: "m2b7d" -86 0 basechar 0
AnchorPoint: "m2b7c" -195 0 basechar 0
AnchorPoint: "m2b7b" 154 0 basechar 0
AnchorPoint: "m2b7a" 54 0 basechar 0
AnchorPoint: "m2b5a" 390 0 basechar 0
AnchorPoint: "m2b5b" 423 0 basechar 0
AnchorPoint: "m2bv2left" 390 0 basechar 0
AnchorPoint: "VbWM" 400 0 basechar 0
AnchorPoint: "VbNM" 350 0 basechar 0
AnchorPoint: "m2b4a" 390 0 basechar 0
AnchorPoint: "m2b4b" 390 0 basechar 0
AnchorPoint: "m2b4c" 302 0 basechar 0
AnchorPoint: "m2b4d" 269 0 basechar 0
AnchorPoint: "m2b1" 269 0 basechar 0
LayerCount: 2
Fore
SplineSet
253 591 m 2
 234 672 l 2
 214 757 194 819 139 828 c 1
 81 852 -90 847 -129 1017 c 2
 -138 1057 l 2
 -148 1101 -158 1146 -158 1174 c 0
 -158 1192 -154 1203 -144 1203 c 0
 -126 1203 -115 1145 -77 1125 c 1
 -26 1100 13 1100 59 1086 c 0
 117 1068 190 1003 204 944 c 2
 286 585 l 2
 287 581 287 578 287 575 c 0
 287 563 282 557 275 557 c 0
 266 557 258 567 253 591 c 2
EndSplineSet
MultipleSubs2: "Addhairspacebeforeletter subtable" hairspace yod
MultipleSubs2: "Addthinspacebeforeletter subtable" thinspace yod
MultipleSubs2: "AddHairspaceAfterMark subtable" yod hairspace
MultipleSubs2: "AddThinspaceAfterMark subtable" yod thinspace
EndChar

StartChar: finalkaf
Encoding: 165 1498 107
Width: 955
VWidth: 2248
GlyphClass: 2
Flags: W
HStem: 901 227<-101.483 506.578>
AnchorPoint: "m2b9" 590 0 basechar 0
AnchorPoint: "m2b8a" 436 0 basechar 0
AnchorPoint: "m2b8b" 70 0 basechar 0
AnchorPoint: "m2b8c" 810 0 basechar 0
AnchorPoint: "m2b7b" 117 0 basechar 0
AnchorPoint: "m2b7a" 17 0 basechar 0
AnchorPoint: "m2bmback" 435 0 basechar 0
AnchorPoint: "m2b5a" 435 0 basechar 0
AnchorPoint: "m2b5b" 894 0 basechar 0
AnchorPoint: "m2bvback" 435 0 basechar 0
AnchorPoint: "m2b6" 435 0 basechar 0
AnchorPoint: "m2b4a" 435 0 basechar 0
AnchorPoint: "m2b4b" 435 0 basechar 0
AnchorPoint: "m2b4c" 350 0 basechar 0
AnchorPoint: "m2b4d" 222 0 basechar 0
AnchorPoint: "m2b3" 435 0 basechar 0
AnchorPoint: "m2b1" 435 0 basechar 0
LayerCount: 2
Fore
SplineSet
449 901 m 2
 133 901 l 2
 -45 901 -148 929 -181 1069 c 10
 -186 1090 l 18
 -192 1116 -199 1145 -199 1173 c 0
 -199 1194 -191 1205 -179 1205 c 0
 -168 1205 -154 1194 -141 1170 c 0
 -120 1131 -116 1128 -75 1128 c 2
 437 1128 l 2
 549 1128 578 1089 597 1041 c 1
 597 1041 625 968 630 945 c 0
 638 910 628 886 620 886 c 1
 614 885 611 901 593 901 c 0
 575 901 569 898 574 876 c 2
 613 705 l 1
 667 474 849 -219 916 -392 c 1
 921 -417 924 -438 924 -456 c 0
 924 -542 869 -557 865 -557 c 0
 852 -557 838 -540 827 -493 c 2
 540 761 l 2
 528 815 504 901 449 901 c 2
EndSplineSet
MultipleSubs2: "Addhairspacebeforeletter subtable" hairspace finalkaf
MultipleSubs2: "Addthinspacebeforeletter subtable" thinspace finalkaf
MultipleSubs2: "AddHairspaceAfterMark subtable" finalkaf hairspace
MultipleSubs2: "AddThinspaceAfterMark subtable" finalkaf thinspace
EndChar

StartChar: kaf
Encoding: 166 1499 108
Width: 976
VWidth: 2248
GlyphClass: 2
Flags: W
HStem: 0 228<93.1335 736.714> 902 223<-51.3396 512.865>
VStem: 756 56<231.097 353.294>
AnchorPoint: "m2b10" -300 0 basechar 0
AnchorPoint: "m2b9" 590 0 basechar 0
AnchorPoint: "m2b8a" 431 0 basechar 0
AnchorPoint: "m2b8b" 135 0 basechar 0
AnchorPoint: "m2b8c" 780 0 basechar 0
AnchorPoint: "m2b7c" -195 0 basechar 0
AnchorPoint: "m2b7b" 168 0 basechar 0
AnchorPoint: "m2b7a" 68 0 basechar 0
AnchorPoint: "m2b5a" 415 0 basechar 0
AnchorPoint: "m2b5b" 692 0 basechar 0
AnchorPoint: "m2bv2r" 415 0 basechar 0
AnchorPoint: "VbWM" 420 0 basechar 0
AnchorPoint: "VbNM" 360 0 basechar 0
AnchorPoint: "m2b4a" 415 0 basechar 0
AnchorPoint: "m2b4b" 415 0 basechar 0
AnchorPoint: "m2b4c" 415 0 basechar 0
AnchorPoint: "m2b4d" 415 0 basechar 0
AnchorPoint: "m2b3" 524 0 basechar 0
AnchorPoint: "m2b1" 415 0 basechar 0
LayerCount: 2
Fore
SplineSet
788 133 m 10
 771 93 l 17
 723 15 704 0 598 0 c 2
 118 0 l 2
 69 0 46 0 42 19 c 0
 42 20 41 22 41 24 c 0
 41 36 50 57 60 89 c 10
 75 136 l 17
 104 221 107 228 198 228 c 2
 685 228 l 2
 739 228 756 232 756 258 c 0
 756 271 752 289 747 314 c 2
 667 660 l 2
 649 735 593 902 444 902 c 10
 160 902 l 2
 4 902 -102 934 -133 1068 c 9
 -137 1089 l 17
 -143 1115 -151 1144 -151 1172 c 0
 -151 1193 -143 1204 -132 1204 c 0
 -121 1204 -106 1193 -94 1169 c 0
 -71 1126 -68 1125 -14 1125 c 2
 346 1125 l 2
 515 1125 642 1000 665 902 c 2
 805 294 l 2
 810 272 812 252 812 235 c 0
 812 193 800 163 788 133 c 10
EndSplineSet
MultipleSubs2: "Addhairspacebeforeletter subtable" hairspace kaf
MultipleSubs2: "Addthinspacebeforeletter subtable" thinspace kaf
MultipleSubs2: "AddHairspaceAfterMark subtable" kaf hairspace
MultipleSubs2: "AddThinspaceAfterMark subtable" kaf thinspace
Substitution2: "jaltWideLetterAlternativesinHeb subtable" kaf.wide
EndChar

StartChar: lamed
Encoding: 167 1500 109
Width: 898
VWidth: 2248
GlyphClass: 2
Flags: W
HStem: 901 224<-106.563 496.033>
VStem: -268 69<1285 1487.23> -193 77<1509.23 1595.74> 374 136<24.3906 116.047> 675 43<360.705 451.411>
AnchorPoint: "m2b10" -300 0 basechar 0
AnchorPoint: "m2b9" 580 0 basechar 0
AnchorPoint: "m2b8a" 430 0 basechar 0
AnchorPoint: "m2b8b" -130 0 basechar 0
AnchorPoint: "m2b8c" 736 0 basechar 0
AnchorPoint: "m2b7c" -195 0 basechar 0
AnchorPoint: "m2b7a" -108 0 basechar 0
AnchorPoint: "m2b5a" 400 0 basechar 0
AnchorPoint: "m2b5b" 736 0 basechar 0
AnchorPoint: "m2bv2r" 430 0 basechar 0
AnchorPoint: "VbWM" 410 0 basechar 0
AnchorPoint: "VbNM" 350 0 basechar 0
AnchorPoint: "m2b4a" 430 0 basechar 0
AnchorPoint: "m2b4b" 430 0 basechar 0
AnchorPoint: "m2b4c" 430 0 basechar 0
AnchorPoint: "m2b4d" 430 0 basechar 0
AnchorPoint: "m2b1" 430 0 basechar 0
LayerCount: 2
Fore
SplineSet
395 -44 m 0
 377 -44 374 2 374 21 c 0
 374 49 382 78 406 104 c 10
 655 361 l 17
 669 377 675 388 675 397 c 0
 675 412 662 426 651 459 c 10
 517 834 l 17
 489 889 455 901 374 901 c 10
 5 901 l 18
 -58 901 -151 946 -179 1065 c 9
 -268 1417 l 18
 -270 1424 -268 1430 -268 1435 c 0
 -268 1492 -193 1493 -193 1541 c 0
 -193 1610 -270 1584 -289 1668 c 0
 -290 1673 -291 1679 -291 1684 c 0
 -291 1727 -258 1769 -244 1769 c 0
 -222 1769 -221 1739 -207 1720 c 24
 -171 1671 -116 1647 -116 1580 c 0
 -116 1516 -199 1493 -199 1434 c 0
 -199 1429 -199 1423 -197 1418 c 10
 -168 1289 l 17
 -149 1210 -101 1125 -48 1125 c 10
 337 1125 l 18
 484 1125 530 1072 564 962 c 9
 705 460 l 18
 711 441 718 424 718 403 c 0
 718 382 709 362 686 334 c 9
 523 165 l 17
 514 151 510 136 510 121 c 0
 510 114 510 107 512 100 c 0
 518 74 505 66 492 52 c 10
 401 -41 l 18
 400 -43 397 -44 395 -44 c 0
EndSplineSet
MultipleSubs2: "Addhairspacebeforeletter subtable" hairspace lamed
MultipleSubs2: "Addthinspacebeforeletter subtable" thinspace lamed
MultipleSubs2: "AddHairspaceAfterMark subtable" lamed hairspace
MultipleSubs2: "AddThinspaceAfterMark subtable" lamed thinspace
Substitution2: "jaltWideLetterAlternativesinHeb subtable" lamed.wide
EndChar

StartChar: finalmem
Encoding: 168 1501 110
Width: 1126
VWidth: 2248
GlyphClass: 2
Flags: W
HStem: 0 228<172.743 887.312> 901 224<85.7875 638.261>
VStem: -8 88<471.344 878.329>
AnchorPoint: "m2b9" 710 0 basechar 0
AnchorPoint: "m2b8a" 559 0 basechar 0
AnchorPoint: "m2b8b" 175 0 basechar 0
AnchorPoint: "m2b8c" 900 0 basechar 0
AnchorPoint: "m2b7b" 196 0 basechar 0
AnchorPoint: "m2b7a" 96 0 basechar 0
AnchorPoint: "m2b5a" 565 0 basechar 0
AnchorPoint: "m2b5b" 958 0 basechar 0
AnchorPoint: "m2bv2r" 565 0 basechar 0
AnchorPoint: "m2b4a" 565 0 basechar 0
AnchorPoint: "m2b4b" 565 0 basechar 0
AnchorPoint: "m2b4c" 565 0 basechar 0
AnchorPoint: "m2b4d" 565 0 basechar 0
AnchorPoint: "m2b2" 565 0 basechar 0
AnchorPoint: "m2b1" 565 0 basechar 0
LayerCount: 2
Fore
SplineSet
583 901 m 2
 106 901 l 2
 90 901 80 847 80 773 c 0
 80 707 88 626 104 553 c 1
 165 292 l 2
 167 283 171 276 173 269 c 0
 182 231 189 228 232 228 c 2
 861 228 l 2
 892 228 896 232 889 265 c 2
 781 734 l 2
 763 810 713 901 583 901 c 2
94 165 m 10
 3 557 l 18
 -4 589 -8 627 -8 666 c 0
 -8 752 10 845 49 901 c 1
 -33 919 -79 976 -101 1068 c 9
 -106 1090 l 18
 -112 1116 -120 1145 -120 1173 c 0
 -120 1194 -111 1205 -100 1205 c 0
 -88 1205 -74 1194 -61 1170 c 0
 -38 1127 -36 1125 18 1125 c 2
 467 1125 l 2
 636 1125 775 999 798 901 c 10
 968 165 l 18
 981 107 990 69 990 45 c 0
 990 0 961 0 883 0 c 10
 266 0 l 18
 149 0 118 0 97 90 c 0
 96 95 96 100 96 105 c 0
 96 115 97 125 97 137 c 0
 97 145 96 155 94 165 c 10
EndSplineSet
MultipleSubs2: "Addhairspacebeforeletter subtable" hairspace finalmem
MultipleSubs2: "Addthinspacebeforeletter subtable" thinspace finalmem
MultipleSubs2: "AddHairspaceAfterMark subtable" finalmem hairspace
MultipleSubs2: "AddThinspaceAfterMark subtable" finalmem thinspace
Substitution2: "jaltWideLetterAlternativesinHeb subtable" finalmem.wide
EndChar

StartChar: mem
Encoding: 169 1502 111
Width: 1096
VWidth: 2248
GlyphClass: 2
Flags: W
HStem: -0 228<320.088 912.753> 901 27<289.764 312.758>
VStem: 21 77<352.602 689.191> 112 82<40.8105 252.039> 112 34<-3.61308 67.3159> 916 47<235.879 377.595>
AnchorPoint: "m2b10" -300 0 basechar 0
AnchorPoint: "m2b9" 680 0 basechar 0
AnchorPoint: "m2b8a" 526 0 basechar 0
AnchorPoint: "m2b8b" 210 0 basechar 0
AnchorPoint: "m2b8c" 900 0 basechar 0
AnchorPoint: "m2b7c" -195 0 basechar 0
AnchorPoint: "m2b7b" 257 0 basechar 0
AnchorPoint: "m2b7a" 157 0 basechar 0
AnchorPoint: "m2b5a" 526 0 basechar 0
AnchorPoint: "m2b5b" 841 0 basechar 0
AnchorPoint: "m2bv2r" 526 0 basechar 0
AnchorPoint: "VbWM" 560 0 basechar 0
AnchorPoint: "VbNM" 480 0 basechar 0
AnchorPoint: "m2b4a" 526 0 basechar 0
AnchorPoint: "m2b4b" 526 0 basechar 0
AnchorPoint: "m2b4c" 526 0 basechar 0
AnchorPoint: "m2b4d" 526 0 basechar 0
AnchorPoint: "m2b1" 526 0 basechar 0
LayerCount: 2
Fore
SplineSet
246 940 m 0xf4
 246 929 248 928 263 928 c 2
 285 928 l 2
 290 928 311 934 313 942 c 2
 356 1103 l 1
 361 1145 398 1158 420 1158 c 0
 430 1158 445 1154 492 1125 c 1
 784 956 892 626 956 350 c 0
 961 327 963 304 963 282 c 0
 963 246 959 214 955 194 c 1
 929 98 l 2
 902 0 902 0 796 0 c 10
 313 -0 l 2
 269 -0 247 1 247 17 c 0
 247 30 260 50 276 89 c 10
 300 144 l 17
 332 220 354 229 416 229 c 0
 435 229 457 228 484 228 c 10
 846 228 l 18
 902 228 916 247 916 275 c 0
 916 287 914 300 911 314 c 8
 847 590 655 901 379 901 c 19
 189 901 98 746 98 562 c 0
 98 517 102 470 112 423 c 8xec
 131 342 170 298 189 217 c 16
 192 202 194 189 194 176 c 0xf4
 194 116 158 79 146 11 c 0
 145 1 134 -4 125 -4 c 0
 111 -4 112 7 112 23 c 0xec
 112 39 112 61 112 85 c 0
 112 111 112 141 105 168 c 9
 90 236 51 273 35 341 c 16
 25 384 21 429 21 473 c 0
 21 588 52 701 104 785 c 0
 112 799 131 810 127 829 c 1
 88 856 -90 907 -90 1060 c 0
 -90 1124 -70 1213 -43 1213 c 2
 -41 1213 l 1
 -24 1209 -23 1165 10 1138 c 0
 79 1083 235 1047 247 998 c 1
 247 978 l 2
 247 960 246 948 246 940 c 0xf4
EndSplineSet
MultipleSubs2: "Addhairspacebeforeletter subtable" hairspace mem
MultipleSubs2: "Addthinspacebeforeletter subtable" thinspace mem
MultipleSubs2: "AddHairspaceAfterMark subtable" mem hairspace
MultipleSubs2: "AddThinspaceAfterMark subtable" mem thinspace
EndChar

StartChar: finalnun
Encoding: 170 1503 112
Width: 544
VWidth: 2248
GlyphClass: 2
Flags: W
HStem: 890 235<-100.516 151>
VStem: 112 80<416.75 847.43>
AnchorPoint: "m2b9" 415 0 basechar 0
AnchorPoint: "m2b8a" 260 0 basechar 0
AnchorPoint: "m2b8b" 91 0 basechar 0
AnchorPoint: "m2b8c" 400 0 basechar 0
AnchorPoint: "m2b7b" 124 0 basechar 0
AnchorPoint: "m2b7a" 24 0 basechar 0
AnchorPoint: "m2bmback" -15 0 basechar 0
AnchorPoint: "m2b5a" -15 0 basechar 0
AnchorPoint: "m2b5b" 442 0 basechar 0
AnchorPoint: "m2bvback" -35 0 basechar 0
AnchorPoint: "m2b4a" -8 0 basechar 0
AnchorPoint: "m2b4b" -35 0 basechar 0
AnchorPoint: "m2b4c" -128 0 basechar 0
AnchorPoint: "m2b4d" -238 0 basechar 0
AnchorPoint: "m2b2" 100 0 basechar 0
AnchorPoint: "m2b1" 260 0 basechar 0
LayerCount: 2
Fore
SplineSet
138 890 m 0
 -24 890 -137 904 -169 1046 c 10
 -179 1089 l 18
 -185 1115 -192 1144 -192 1172 c 0
 -192 1193 -184 1204 -173 1204 c 0
 -162 1204 -147 1193 -135 1169 c 0
 -112 1126 -110 1125 -56 1125 c 0
 148 1125 198 1085 226 962 c 0
 231 940 233 917 233 894 c 0
 233 792 192 684 192 607 c 0
 192 595 193 584 196 573 c 2
 311 52 l 1
 351 -120 392 -281 421 -357 c 1
 427 -382 429 -402 429 -420 c 0
 429 -507 374 -521 370 -521 c 0
 357 -521 344 -505 333 -458 c 2
 115 498 l 2
 113 506 112 521 112 539 c 0
 112 614 127 755 152 849 c 1
 153 865 163 890 138 890 c 0
EndSplineSet
MultipleSubs2: "Addhairspacebeforeletter subtable" hairspace finalnun
MultipleSubs2: "Addthinspacebeforeletter subtable" thinspace finalnun
MultipleSubs2: "AddHairspaceAfterMark subtable" finalnun hairspace
MultipleSubs2: "AddThinspaceAfterMark subtable" finalnun thinspace
EndChar

StartChar: nun
Encoding: 171 1504 113
Width: 601
VWidth: 2248
GlyphClass: 2
Flags: W
HStem: -0 228<79.0796 394.907>
VStem: 396 76<229.32 385.269>
AnchorPoint: "m2b10" -300 0 basechar 0
AnchorPoint: "m2b9" 470 0 basechar 0
AnchorPoint: "m2b8a" 325 0 basechar 0
AnchorPoint: "m2b8b" 180 0 basechar 0
AnchorPoint: "m2b8c" 468 0 basechar 0
AnchorPoint: "m2b7d" -26 0 basechar 0
AnchorPoint: "m2b7c" -195 0 basechar 0
AnchorPoint: "m2b7b" 214 0 basechar 0
AnchorPoint: "m2b7a" 114 0 basechar 0
AnchorPoint: "m2b5a" 265 0 basechar 0
AnchorPoint: "m2b5b" 394 0 basechar 0
AnchorPoint: "m2bv2left" 265 0 basechar 0
AnchorPoint: "m2bv2r" 265 0 basechar 0
AnchorPoint: "VbWM" 260 0 basechar 0
AnchorPoint: "VbNM" 200 0 basechar 0
AnchorPoint: "m2b4a" 265 0 basechar 0
AnchorPoint: "m2b4b" 265 0 basechar 0
AnchorPoint: "m2b4c" 265 0 basechar 0
AnchorPoint: "m2b4d" 265 0 basechar 0
AnchorPoint: "m2b1" 325 0 basechar 0
LayerCount: 2
Fore
SplineSet
266 0 m 10
 121 -0 l 2
 62 -0 35 2 35 37 c 0
 35 60 47 97 65 156 c 1
 96 226 115 228 234 228 c 2
 359 228 l 18
 386 228 396 228 396 244 c 0
 396 251 394 262 390 276 c 0
 388 285 356 389 339 462 c 16
 326 521 305 574 295 621 c 1
 286 657 261 750 246 786 c 0
 239 801 206 811 170 823 c 1
 112 846 -46 853 -85 1023 c 0
 -95 1067 -104 1119 -104 1157 c 0
 -104 1186 -98 1207 -85 1207 c 0
 -67 1207 -57 1149 -19 1129 c 1
 32 1104 72 1104 118 1090 c 0
 177 1072 249 1007 262 948 c 0
 300 786 356 596 454 352 c 1
 460 326 472 309 472 282 c 0
 472 277 471 272 470 267 c 10
 418 88 l 18
 393 0 393 0 266 0 c 10
EndSplineSet
MultipleSubs2: "Addhairspacebeforeletter subtable" hairspace nun
MultipleSubs2: "Addthinspacebeforeletter subtable" thinspace nun
MultipleSubs2: "AddHairspaceAfterMark subtable" nun hairspace
MultipleSubs2: "AddThinspaceAfterMark subtable" nun thinspace
EndChar

StartChar: samekh
Encoding: 172 1505 114
Width: 1053
VWidth: 2248
GlyphClass: 2
Flags: W
HStem: 0 228<238.734 803.045> 902 223<96.25 569.575>
VStem: -13 87<484.93 838.362> 823 78<248.414 393.803>
AnchorPoint: "m2b10" -300 0 basechar 0
AnchorPoint: "m2b9" 718.384 7 basechar 0
AnchorPoint: "m2b8a" 566 0 basechar 0
AnchorPoint: "m2b8b" 184 0 basechar 0
AnchorPoint: "m2b8c" 798.384 7 basechar 0
AnchorPoint: "m2b7c" -195 0 basechar 0
AnchorPoint: "m2b7b" 207 0 basechar 0
AnchorPoint: "m2b7a" 107 0 basechar 0
AnchorPoint: "m2b5a" 566 0 basechar 0
AnchorPoint: "m2b5b" 843 0 basechar 0
AnchorPoint: "m2bv2r" 566 0 basechar 0
AnchorPoint: "VbWM" 530 0 basechar 0
AnchorPoint: "VbNM" 470 0 basechar 0
AnchorPoint: "m2b4a" 566 0 basechar 0
AnchorPoint: "m2b4b" 566 0 basechar 0
AnchorPoint: "m2b4c" 566 0 basechar 0
AnchorPoint: "m2b4d" 566 0 basechar 0
AnchorPoint: "m2b1" 566 0 basechar 0
LayerCount: 2
Fore
SplineSet
177 902 m 2
 99 902 74 836 74 750 c 0
 74 690 86 620 101 555 c 2
 150 342 l 2
 166 274 209 228 296 228 c 2
 737 228 l 2
 793 228 823 293 823 332 c 0
 823 337 824 341 823 345 c 2
 749 657 l 2
 732 733 671 902 541 902 c 2
 177 902 l 2
672 0 m 2
 402 0 l 2
 240 0 94 126 57 285 c 2
 -6 557 l 2
 -11 579 -13 603 -13 629 c 0
 -13 725 19 838 63 902 c 1
 -19 920 -71 977 -92 1069 c 10
 -97 1090 l 18
 -103 1116 -111 1145 -111 1173 c 0
 -111 1194 -102 1205 -91 1205 c 0
 -79 1205 -65 1194 -52 1170 c 0
 -29 1127 -27 1125 27 1125 c 2
 425 1125 l 2
 594 1125 753 938 776 840 c 2
 892 336 l 2
 898 312 901 288 901 266 c 0
 901 212 887 162 867 108 c 0
 830 3 748 0 672 0 c 2
EndSplineSet
MultipleSubs2: "Addhairspacebeforeletter subtable" hairspace samekh
MultipleSubs2: "Addthinspacebeforeletter subtable" thinspace samekh
MultipleSubs2: "AddHairspaceAfterMark subtable" samekh hairspace
MultipleSubs2: "AddThinspaceAfterMark subtable" samekh thinspace
EndChar

StartChar: ayin
Encoding: 173 1506 115
Width: 1001
VWidth: 2248
GlyphClass: 2
Flags: W
VStem: 70 45<613.395 791.1> 644 50<230.75 741.705>
AnchorPoint: "m2b10" -300 0 basechar 0
AnchorPoint: "m2b9" 655 0 basechar 0
AnchorPoint: "m2b8a" 500 0 basechar 0
AnchorPoint: "m2b8b" 180 0 basechar 0
AnchorPoint: "m2b8c" 870 0 basechar 0
AnchorPoint: "m2b7c" -195 0 basechar 0
AnchorPoint: "m2b7b" 206 0 basechar 0
AnchorPoint: "m2b7a" 106 0 basechar 0
AnchorPoint: "m2b5a" 800 0 basechar 0
AnchorPoint: "m2b5b" 887 0 basechar 0
AnchorPoint: "m2bv2r" 809 0 basechar 0
AnchorPoint: "HbWM" 760 0 basechar 0
AnchorPoint: "HbNM" 700 0 basechar 0
AnchorPoint: "VbWM" 760 0 basechar 0
AnchorPoint: "VbNM" 700 0 basechar 0
AnchorPoint: "m2bpg" 1000 0 basechar 0
AnchorPoint: "m2b4a" 809 0 basechar 0
AnchorPoint: "m2b4b" 809 0 basechar 0
AnchorPoint: "m2b4c" 866 0 basechar 0
AnchorPoint: "m2b4d" 976 0 basechar 0
AnchorPoint: "m2b2" 546.932 -82 basechar 0
AnchorPoint: "m2b1" 505 0 basechar 0
LayerCount: 2
Fore
SplineSet
637 521 m 0
 637 579 644 609 644 683 c 0
 644 711 642 736 641 742 c 0
 637 756 540 804 524 814 c 0
 485 838 449 868 414 900 c 1
 395 920 373 958 373 995 c 0
 373 1022 382 1048 392 1073 c 10
 437 1189 l 17
 445 1204 454 1211 464 1211 c 0
 509 1211 480 1128 511 1109 c 9
 644 1014 l 17
 701 970 736 938 736 873 c 0
 736 847 728 817 709 740 c 0
 698 692 694 585 694 484 c 0
 694 455 694 427 694 399 c 0
 694 341 694 288 706 240 c 1
 726 152 l 2
 736 106 743 77 743 55 c 0
 743 14 722 -5 666 -58 c 9
 372 -324 l 18
 307 -382 271 -414 246 -414 c 0
 218 -414 213 -401 193 -318 c 1
 184 -276 l 2
 180 -262 179 -251 179 -241 c 0
 179 -204 204 -187 275 -119 c 10
 355 -42 l 17
 383 -17 393 -3 393 15 c 0
 393 20 392 25 391 30 c 0
 334 276 111 455 83 577 c 0
 75 609 70 640 70 698 c 0
 70 731 72 768 78 807 c 1
 43 831 -103 860 -131 985 c 0
 -134 998 -136 1016 -136 1037 c 0
 -136 1109 -119 1211 -94 1211 c 2
 -92 1211 l 1
 -75 1207 -76 1150 -43 1123 c 0
 31 1064 242 1033 242 891 c 1
 250 792 l 17
 247 761 246 747 233 747 c 0
 220 747 165 781 119 792 c 1
 116 782 115 770 115 756 c 0
 115 705 131 637 136 616 c 0
 175 447 366 399 436 96 c 0
 439 81 449 73 464 73 c 3
 477 73 494 80 511 98 c 1
 623 199 644 267 644 350 c 0
 644 399 637 453 637 521 c 0
EndSplineSet
MultipleSubs2: "Addhairspacebeforeletter subtable" hairspace ayin
MultipleSubs2: "Addthinspacebeforeletter subtable" thinspace ayin
MultipleSubs2: "AddHairspaceAfterMark subtable" ayin hairspace
MultipleSubs2: "AddThinspaceAfterMark subtable" ayin thinspace
Substitution2: "saltStylisticAlternativesinHebr subtable" ayin.alt
EndChar

StartChar: finalpe
Encoding: 174 1507 116
Width: 1058
VWidth: 2248
GlyphClass: 2
Flags: W
HStem: 439 200<82.7071 337.754> 901 224<-57.4961 56 119.653 564.425>
VStem: -15 80<639.32 839.844> 21 38<313.139 343.812>
AnchorPoint: "m2b9" 660 0 basechar 0
AnchorPoint: "m2b8a" 513 0 basechar 0
AnchorPoint: "m2b8b" 155 0 basechar 0
AnchorPoint: "m2b8c" 850 0 basechar 0
AnchorPoint: "m2b7b" 197 0 basechar 0
AnchorPoint: "m2b7a" 97 0 basechar 0
AnchorPoint: "m2bmback" 543 0 basechar 0
AnchorPoint: "m2b5a" 543 0 basechar 0
AnchorPoint: "m2b5b" 1035 0 basechar 0
AnchorPoint: "m2bvback" 543 0 basechar 0
AnchorPoint: "m2b4a" 543 0 basechar 0
AnchorPoint: "m2b4b" 543 0 basechar 0
AnchorPoint: "m2b4c" 512 0 basechar 0
AnchorPoint: "m2b4d" 412 0 basechar 0
AnchorPoint: "m2b3" 513 0 basechar 0
AnchorPoint: "m2b1" 513 0 basechar 0
LayerCount: 2
Fore
SplineSet
730 896 m 0xe0
 791 634 1040 -302 1097 -451 c 1
 1103 -476 1105 -497 1105 -515 c 0
 1105 -601 1050 -616 1046 -616 c 0
 1033 -616 1019 -599 1008 -552 c 2
 739 656 l 1
 721 731 664 901 515 901 c 2
 153 901 l 2
 143 901 133 899 119 901 c 1
 111 892 65 810 65 733 c 0xe0
 65 703 79 639 105 639 c 2
 245 639 l 18
 300 639 330 636 345 573 c 9
 355 549 366 522 366 492 c 0
 366 456 345 439 310 439 c 10
 108 439 l 17
 86 417 73 369 59 321 c 0
 56 311 28 303 21 332 c 0
 20 336 21 340 21 344 c 0xd0
 21 378 51 418 75 456 c 1
 34 487 7 506 -3 548 c 0
 -12 587 -15 624 -15 657 c 0
 -15 801 53 890 56 901 c 1
 -54 901 -77 963 -92 1028 c 2
 -106 1089 l 18
 -114 1123 -119 1151 -119 1171 c 0
 -119 1192 -114 1204 -101 1204 c 0
 -89 1204 -76 1193 -63 1169 c 0
 -40 1126 -37 1125 17 1125 c 10
 397 1125 l 18
 566 1125 708 994 730 896 c 0xe0
EndSplineSet
MultipleSubs2: "Addhairspacebeforeletter subtable" hairspace finalpe
MultipleSubs2: "Addthinspacebeforeletter subtable" thinspace finalpe
MultipleSubs2: "AddHairspaceAfterMark subtable" finalpe hairspace
MultipleSubs2: "AddThinspaceAfterMark subtable" finalpe thinspace
EndChar

StartChar: pe
Encoding: 175 1508 117
Width: 968
VWidth: 2248
GlyphClass: 2
Flags: W
HStem: 0 228<117.606 762.169> 447 201<89.4961 345.569> 902 223<-29.5756 66 97 462.526>
VStem: -9 90<648.383 849.084> 763 83<230.017 394.898>
AnchorPoint: "m2b10" -300 0 basechar 0
AnchorPoint: "m2b9" 620 0 basechar 0
AnchorPoint: "m2b8a" 464 0 basechar 0
AnchorPoint: "m2b8b" 153 0 basechar 0
AnchorPoint: "m2b8c" 700 0 basechar 0
AnchorPoint: "m2b7c" -195 0 basechar 0
AnchorPoint: "m2b7b" 202 0 basechar 0
AnchorPoint: "m2b7a" 102 0 basechar 0
AnchorPoint: "m2b5a" 491 0 basechar 0
AnchorPoint: "m2b5b" 729 0 basechar 0
AnchorPoint: "m2bv2r" 491 0 basechar 0
AnchorPoint: "VbWM" 460 0 basechar 0
AnchorPoint: "VbNM" 400 0 basechar 0
AnchorPoint: "m2b4a" 462 0 basechar 0
AnchorPoint: "m2b4b" 491 0 basechar 0
AnchorPoint: "m2b4c" 491 0 basechar 0
AnchorPoint: "m2b4d" 491 0 basechar 0
AnchorPoint: "m2b3" 464 0 basechar 0
AnchorPoint: "m2b1" 464 0 basechar 0
LayerCount: 2
Fore
SplineSet
81 757 m 2
 81 752 l 2
 81 722 82 648 114 648 c 2
 254 648 l 18
 309 648 345 630 359 567 c 0
 365 541 369 519 369 501 c 0
 369 464 354 447 318 447 c 10
 116 447 l 17
 94 425 79 378 67 329 c 0
 65 317 36 311 30 340 c 0
 29 344 28 348 28 352 c 0
 28 386 59 426 83 464 c 1
 42 495 13 508 3 548 c 0
 -6 588 -9 624 -9 658 c 0
 -9 805 63 891 66 902 c 1
 -8 902 -76 979 -94 1057 c 10
 -101 1089 l 18
 -109 1123 -114 1151 -114 1171 c 0
 -114 1192 -109 1204 -96 1204 c 0
 -84 1204 -70 1193 -57 1169 c 0
 -34 1126 -32 1125 22 1125 c 10
 331 1125 l 18
 440 1125 609 995 639 902 c 2
 838 297 l 2
 842 288 846 280 846 265 c 0
 846 244 840 209 820 136 c 10
 807 90 l 18
 782 1 748 0 648 0 c 2
 143 0 l 2
 94 0 65 0 65 22 c 0
 65 35 78 54 87 89 c 10
 99 136 l 17
 130 228 131 228 248 228 c 2
 689 228 l 2
 743 228 763 234 763 260 c 0
 763 266 762 273 760 281 c 2
 658 676 l 1
 639 757 600 902 453 902 c 2
 119 902 l 1
 111 894 81 843 81 757 c 2
EndSplineSet
MultipleSubs2: "Addhairspacebeforeletter subtable" hairspace pe
MultipleSubs2: "Addthinspacebeforeletter subtable" thinspace pe
MultipleSubs2: "AddHairspaceAfterMark subtable" pe hairspace
MultipleSubs2: "AddThinspaceAfterMark subtable" pe thinspace
EndChar

StartChar: finaltsadi
Encoding: 176 1509 118
Width: 898
VWidth: 2248
GlyphClass: 2
Flags: W
VStem: 104 35<607 764> 403 208<837.124 919.5>
AnchorPoint: "m2b9" 600 0 basechar 0
AnchorPoint: "m2b8a" 451 0 basechar 0
AnchorPoint: "m2b8b" 170 0 basechar 0
AnchorPoint: "m2b8c" 710 0 basechar 0
AnchorPoint: "m2b7b" 219 0 basechar 0
AnchorPoint: "m2b7a" 119 0 basechar 0
AnchorPoint: "m2b5a" 548 0 basechar 0
AnchorPoint: "m2b5b" 747 0 basechar 0
AnchorPoint: "m2bvback" 548 0 basechar 0
AnchorPoint: "m2bv2r" 548 0 basechar 0
AnchorPoint: "VbWM" 770 0 basechar 0
AnchorPoint: "VbNM" 710 0 basechar 0
AnchorPoint: "m2b4a" 548 0 basechar 0
AnchorPoint: "m2b4b" 548 0 basechar 0
AnchorPoint: "m2b4c" 627 0 basechar 0
AnchorPoint: "m2b4d" 717 0 basechar 0
AnchorPoint: "m2b2" 27 0 basechar 0
AnchorPoint: "m2b1" 451 0 basechar 0
LayerCount: 2
Fore
SplineSet
104 770 m 0
 89 834 -90 853 -119 981 c 0
 -122 992 -123 1010 -123 1031 c 0
 -123 1101 -108 1204 -79 1204 c 1
 -62 1200 -66 1143 -33 1116 c 0
 35 1062 177 1033 201 925 c 0
 203 920 203 915 203 909 c 0
 203 841 139 693 139 607 c 0
 139 598 140 589 142 581 c 2
 182 409 l 2
 190 374 195 355 203 355 c 3
 211 355 224 376 243 426 c 10
 388 813 l 17
 397 833 403 843 403 851 c 0
 403 859 396 864 381 874 c 0
 325 910 289 936 289 1031 c 0
 289 1102 306 1213 336 1213 c 1
 353 1209 349 1152 382 1125 c 1
 450 1049 585 1038 609 936 c 0
 610 930 611 923 611 916 c 0
 611 912 611 908 610 904 c 2
 600 808 l 18
 598 782 589 773 575 773 c 0
 542 773 488 823 464 823 c 0
 453 823 444 814 431 783 c 9
 245 290 l 17
 232 264 225 253 225 235 c 0
 225 219 230 199 239 159 c 2
 266 45 l 1
 312 -156 345 -277 363 -357 c 0
 369 -382 372 -404 372 -422 c 0
 372 -507 319 -521 315 -521 c 0
 295 -521 289 -515 256 -373 c 2
 55 496 l 2
 55 500 54 505 54 510 c 0
 54 571 104 722 104 764 c 0
 104 766 105 768 104 770 c 0
EndSplineSet
MultipleSubs2: "Addhairspacebeforeletter subtable" hairspace finaltsadi
MultipleSubs2: "Addthinspacebeforeletter subtable" thinspace finaltsadi
MultipleSubs2: "AddHairspaceAfterMark subtable" finaltsadi hairspace
MultipleSubs2: "AddThinspaceAfterMark subtable" finaltsadi thinspace
EndChar

StartChar: tsadi
Encoding: 177 1510 119
Width: 1016
VWidth: 2248
GlyphClass: 2
Flags: W
HStem: -0 228<134.906 609.986> 886 242<435.007 630.802> 1203 20G<-163.5 -148>
VStem: 343 32<1155.62 1214.16> 610 259<101 251.897>
AnchorPoint: "m2b10" -300 0 basechar 0
AnchorPoint: "m2b9" 630 0 basechar 0
AnchorPoint: "m2b8a" 480 0 basechar 0
AnchorPoint: "m2b8b" 110 0 basechar 0
AnchorPoint: "m2b8c" 790 0 basechar 0
AnchorPoint: "m2b7c" -195 0 basechar 0
AnchorPoint: "m2b7b" 145 0 basechar 0
AnchorPoint: "m2b7a" 45 0 basechar 0
AnchorPoint: "m2b5a" 484 0 basechar 0
AnchorPoint: "m2b5b" 776 0 basechar 0
AnchorPoint: "m2bv2r" 484 0 basechar 0
AnchorPoint: "VbWM" 480 0 basechar 0
AnchorPoint: "VbNM" 420 0 basechar 0
AnchorPoint: "m2b4a" 484 0 basechar 0
AnchorPoint: "m2b4b" 484 0 basechar 0
AnchorPoint: "m2b4c" 484 0 basechar 0
AnchorPoint: "m2b4d" 484 0 basechar 0
AnchorPoint: "m2b1" 484 0 basechar 0
LayerCount: 2
Fore
SplineSet
773 0 m 10
 194 -0 l 2
 129 -0 103 2 103 37 c 0
 103 52 108 74 116 106 c 10
 139 203 l 18
 145 228 158 228 352 228 c 10
 508 228 l 18
 591 228 610 229 610 248 c 0
 610 253 609 259 607 267 c 0
 600 297 411 428 334 488 c 0
 295 519 287 525 269 600 c 0
 268 605 264 612 263 617 c 10
 219 804 l 18
 204 869 141 891 78 891 c 2
 69 891 l 2
 27 891 -129 915 -155 1028 c 0
 -166 1074 -175 1132 -175 1173 c 0
 -175 1203 -170 1223 -157 1223 c 0
 -139 1223 -126 1170 -87 1150 c 0
 -37 1125 28 1133 75 1121 c 0
 145 1103 210 1027 224 968 c 0
 260 809 258 744 318 617 c 1
 327 594 405 548 418 548 c 0
 427 548 432 556 432 574 c 0
 432 591 428 616 419 652 c 1
 404 842 384 1013 346 1179 c 0
 344 1188 343 1195 343 1200 c 0
 343 1211 346 1216 352 1216 c 0
 358 1216 366 1211 375 1203 c 1
 393 1128 396 1128 459 1128 c 10
 505 1128 l 2
 618 1128 636 1088 647 1041 c 1
 647 1041 668 965 677 925 c 0
 682 906 653 886 635 886 c 2
 472 886 l 2
 444 886 435 884 435 857 c 0
 435 848 436 837 437 822 c 10
 456 630 l 17
 462 601 465 580 469 564 c 0
 482 506 493 509 550 464 c 1
 679 373 837 294 864 178 c 0
 867 164 869 151 869 137 c 0
 869 65 826 0 773 0 c 10
EndSplineSet
MultipleSubs2: "Addhairspacebeforeletter subtable" hairspace tsadi
MultipleSubs2: "Addthinspacebeforeletter subtable" thinspace tsadi
MultipleSubs2: "AddHairspaceAfterMark subtable" tsadi hairspace
MultipleSubs2: "AddThinspaceAfterMark subtable" tsadi thinspace
EndChar

StartChar: qof
Encoding: 178 1511 120
Width: 951
VWidth: 2248
GlyphClass: 2
Flags: W
HStem: 902 226<-103.039 516.302>
VStem: 21 32<607.894 725.751> 396 44<-35.9897 35.6191> 770 55<263.729 423.321>
AnchorPoint: "m2b10" -300 0 basechar 0
AnchorPoint: "m2b9" 610 0 basechar 0
AnchorPoint: "m2b8a" 450 0 basechar 0
AnchorPoint: "m2b8b" 105 0 basechar 0
AnchorPoint: "m2b8c" 755 0 basechar 0
AnchorPoint: "m2b7c" -195 0 basechar 0
AnchorPoint: "m2b7b" 135 0 basechar 0
AnchorPoint: "m2b7a" 35 0 basechar 0
AnchorPoint: "m2bmback" 580 0 basechar 0
AnchorPoint: "m2b5a" 580 0 basechar 0
AnchorPoint: "m2b5b" 803 0 basechar 0
AnchorPoint: "m2bvback" 580 0 basechar 0
AnchorPoint: "m2bv2r" 580 0 basechar 0
AnchorPoint: "VbWM" 700 0 basechar 0
AnchorPoint: "VbNM" 550 0 basechar 0
AnchorPoint: "m2b4a" 580 0 basechar 0
AnchorPoint: "m2b4b" 580 0 basechar 0
AnchorPoint: "m2b4c" 580 0 basechar 0
AnchorPoint: "m2b4d" 690 0 basechar 0
AnchorPoint: "m2b1" 500 0 basechar 0
LayerCount: 2
Fore
SplineSet
59 277 m 1
 35 381 21 447 21 554 c 0
 21 640 28 726 36 726 c 0
 43 726 48 715 53 693 c 0
 65 643 77 533 113 379 c 0
 149 222 231 -99 337 -334 c 1
 345 -367 l 2
 352 -398 356 -417 356 -433 c 0
 356 -458 346 -473 325 -507 c 0
 310 -531 299 -545 288 -545 c 0
 273 -545 249 -519 237 -469 c 2
 59 277 l 1
-164 1067 m 0
 -173 1104 -179 1141 -179 1167 c 0
 -179 1189 -175 1204 -163 1204 c 0
 -151 1204 -138 1193 -125 1169 c 0
 -103 1128 -99 1128 -52 1128 c 2
 396 1128 l 2
 515 1128 538 1062 581 981 c 24
 709 738 763 580 823 320 c 0
 824 314 825 308 825 301 c 0
 825 266 802 219 770 191 c 1
 660 94 479 128 440 -8 c 1
 432 -37 422 -36 418 -36 c 0
 400 -36 399 -22 396 10 c 0
 395 23 393 35 393 46 c 0
 393 117 421 148 509 180 c 1
 613 217 678 235 678 235 c 17
 746 258 770 273 770 317 c 0
 770 341 763 372 753 417 c 0
 726 534 670 653 594 770 c 0
 561 821 526 902 376 902 c 10
 92 902 l 2
 -44 902 -128 910 -164 1067 c 0
EndSplineSet
MultipleSubs2: "Addhairspacebeforeletter subtable" hairspace qof
MultipleSubs2: "Addthinspacebeforeletter subtable" thinspace qof
MultipleSubs2: "AddHairspaceAfterMark subtable" qof hairspace
MultipleSubs2: "AddThinspaceAfterMark subtable" qof thinspace
EndChar

StartChar: resh
Encoding: 179 1512 121
Width: 1089
VWidth: 2248
GlyphClass: 2
Flags: W
HStem: 901 224<-102.05 527.373>
VStem: 828 61<-26.8352 147.145>
AnchorPoint: "m2b10" -300 0 basechar 0
AnchorPoint: "m2b9" 610 0 basechar 0
AnchorPoint: "m2b8a" 454 0 basechar 0
AnchorPoint: "m2b8b" 80 0 basechar 0
AnchorPoint: "m2b8c" 850 0 basechar 0
AnchorPoint: "m2b7c" -195 0 basechar 0
AnchorPoint: "m2b7b" 126 0 basechar 0
AnchorPoint: "m2b7a" 26 0 basechar 0
AnchorPoint: "m2b5a" 837 0 basechar 0
AnchorPoint: "m2b5b" 940 0 basechar 0
AnchorPoint: "m2bv2left" 859 0 basechar 0
AnchorPoint: "m2b4a" 848 0 basechar 0
AnchorPoint: "m2b4b" 859 0 basechar 0
AnchorPoint: "m2b4c" 749 0 basechar 0
AnchorPoint: "m2b4d" 702 0 basechar 0
AnchorPoint: "m2b1" 454 0 basechar 0
LayerCount: 2
Fore
SplineSet
889 18 m 1
 881 -13 870 -27 860 -27 c 0
 848 -27 837 -7 828 31 c 0
 802 141 771 246 746 355 c 2
 677 656 l 2
 658 737 602 901 453 901 c 2
 142 901 l 2
 -63 901 -141 928 -174 1068 c 9
 -179 1090 l 18
 -185 1116 -192 1145 -192 1173 c 0
 -192 1194 -184 1205 -172 1205 c 0
 -161 1205 -147 1194 -134 1170 c 0
 -111 1127 -109 1125 -55 1125 c 2
 349 1125 l 2
 518 1125 653 1062 745 664 c 10
 877 90 l 18
 882 70 889 53 889 29 c 2
 889 18 l 1
EndSplineSet
MultipleSubs2: "Addhairspacebeforeletter subtable" hairspace resh
MultipleSubs2: "Addthinspacebeforeletter subtable" thinspace resh
MultipleSubs2: "AddHairspaceAfterMark subtable" resh hairspace
MultipleSubs2: "AddThinspaceAfterMark subtable" resh thinspace
Substitution2: "jaltWideLetterAlternativesinHeb subtable" resh.wide
EndChar

StartChar: shin
Encoding: 180 1513 122
Width: 1340
VWidth: 2248
GlyphClass: 2
Flags: W
HStem: 0 228<278.578 350.453 397.008 832.039>
VStem: 9 57<541.967 755.292> 356 54<1171 1194.53> 973 111<706.22 896.5>
AnchorPoint: "m2b10" -300 0 basechar 0
AnchorPoint: "m2b9" 810 0 basechar 0
AnchorPoint: "m2b8a" 656 0 basechar 0
AnchorPoint: "m2b8b" 127 0 basechar 0
AnchorPoint: "m2b8c" 1150 0 basechar 0
AnchorPoint: "m2b7c" -195 0 basechar 0
AnchorPoint: "m2b7b" 225 0 basechar 0
AnchorPoint: "m2b7a" 125 0 basechar 0
AnchorPoint: "m2b5a" 520 0 basechar 0
AnchorPoint: "m2b5b" 969 0 basechar 0
AnchorPoint: "m2bv2r" 520 0 basechar 0
AnchorPoint: "VbWM" 510 0 basechar 0
AnchorPoint: "VbNM" 450 0 basechar 0
AnchorPoint: "m2b4a" 520 0 basechar 0
AnchorPoint: "m2b4b" 520 0 basechar 0
AnchorPoint: "m2b4c" 520 0 basechar 0
AnchorPoint: "m2b4d" 520 0 basechar 0
AnchorPoint: "m2b1" 656 0 basechar 0
LayerCount: 2
Fore
SplineSet
433 228 m 2
 793 228 l 2
 819 228 845 296 855 340 c 1
 966 669 l 2
 971 683 973 696 973 707 c 0
 973 729 964 747 945 761 c 1
 786 905 l 18
 766 922 754 956 754 993 c 0
 754 1016 759 1040 765 1068 c 9
 791 1170 l 17
 797 1185 807 1192 817 1192 c 0
 857 1192 835 1108 863 1090 c 9
 998 996 l 17
 1050 957 1084 922 1084 871 c 0
 1084 846 1074 821 1064 788 c 2
 841 53 l 1
 812 1 813 0 770 0 c 2
 179 0 l 1
 178 6 177 12 177 18 c 0
 177 36 182 55 182 73 c 0
 182 79 181 86 180 92 c 0
 120 350 58 352 19 521 c 16
 12 552 9 580 9 607 c 0
 9 691 39 757 63 834 c 9
 -32 882 l 17
 -62 899 -99 929 -99 972 c 0
 -99 976 -98 979 -98 983 c 2
 -96 1172 l 17
 -92 1193 -83 1202 -73 1202 c 0
 -36 1202 -38 1121 -7 1109 c 10
 122 1058 l 17
 187 1026 231 992 241 948 c 0
 243 938 245 925 245 910 c 0
 245 869 236 813 221 763 c 1
 183 786 143 807 102 820 c 1
 90 773 66 695 66 636 c 0
 66 586 83 556 111 517 c 9
 306 233 l 18
 309 229 312 228 316 228 c 0
 328 228 342 243 348 264 c 10
 505 812 l 25
 385 895 l 17
 361 914 332 941 332 979 c 0
 332 986 333 993 335 1001 c 1
 356 1177 l 17
 370 1217 403 1201 410 1171 c 1
 436 1101 l 9
 566 1025 l 17
 621 988 658 952 667 914 c 0
 668 910 668 905 668 901 c 0
 667 865 664 793 630 732 c 1
 594 761 581 773 540 793 c 1
 399 267 l 2
 398 262 397 257 397 252 c 0
 397 237 408 228 433 228 c 2
EndSplineSet
MultipleSubs2: "Addhairspacebeforeletter subtable" hairspace shin
MultipleSubs2: "Addthinspacebeforeletter subtable" thinspace shin
MultipleSubs2: "AddHairspaceAfterMark subtable" shin hairspace
MultipleSubs2: "AddThinspaceAfterMark subtable" shin thinspace
EndChar

StartChar: tav
Encoding: 181 1514 123
Width: 1156
VWidth: 2248
GlyphClass: 2
Flags: W
HStem: 0 228<58.6316 261.974> 901 224<-80.6664 55 106.843 676.373>
VStem: 50 54<630.672 901> 55 358<6.23203 225.552>
AnchorPoint: "m2b10" -300 0 basechar 0
AnchorPoint: "m2b9" 710 0 basechar 0
AnchorPoint: "m2b8a" 556 0 basechar 0
AnchorPoint: "m2b8b" 138 0 basechar 0
AnchorPoint: "m2b8c" 965 0 basechar 0
AnchorPoint: "m2b7c" -195 0 basechar 0
AnchorPoint: "m2b7b" 176 0 basechar 0
AnchorPoint: "m2b7a" 76 0 basechar 0
AnchorPoint: "m2b5a" 682 0 basechar 0
AnchorPoint: "m2b5b" 995 0 basechar 0
AnchorPoint: "m2bv2r" 680 0 basechar 0
AnchorPoint: "VbWM" 630 0 basechar 0
AnchorPoint: "VbNM" 570 0 basechar 0
AnchorPoint: "m2b4a" 682 0 basechar 0
AnchorPoint: "m2b4b" 682 0 basechar 0
AnchorPoint: "m2b4c" 650 0 basechar 0
AnchorPoint: "m2b4d" 606 0 basechar 0
AnchorPoint: "m2b3" 556 0 basechar 0
AnchorPoint: "m2b1" 556 0 basechar 0
LayerCount: 2
Fore
SplineSet
128 0 m 18xd0
 63 0 55 15 55 59 c 0
 55 73 55 91 55 112 c 0xd0
 55 217 60 228 141 228 c 2
 184 228 l 2
 227 228 262 230 262 242 c 0
 262 281 117 425 71 622 c 0
 60 671 50 750 50 821 c 0xe0
 50 850 51 878 55 901 c 1xd0
 50 901 l 2
 14 901 -84 905 -103 989 c 10
 -127 1090 l 18
 -133 1116 -141 1145 -141 1173 c 0
 -141 1194 -133 1205 -121 1205 c 0
 -110 1205 -96 1194 -83 1170 c 0
 -60 1127 -58 1125 -4 1125 c 2
 498 1125 l 2
 667 1125 802 1062 894 664 c 10
 1026 90 l 18
 1031 70 1038 53 1038 29 c 0
 1038 -4 1018 -27 1009 -27 c 0
 997 -27 986 -7 977 31 c 0
 951 141 920 246 895 355 c 2
 826 656 l 2
 807 737 751 901 602 901 c 2
 118 901 l 1
 108 879 104 845 104 809 c 0xe0
 104 756 112 700 119 673 c 0
 173 436 393 307 411 228 c 0
 413 223 413 217 413 211 c 0
 413 197 410 179 411 153 c 9
 410 83 l 17
 410 0 368 0 292 0 c 10
 128 0 l 18xd0
EndSplineSet
MultipleSubs2: "Addhairspacebeforeletter subtable" hairspace tav
MultipleSubs2: "Addthinspacebeforeletter subtable" thinspace tav
MultipleSubs2: "AddHairspaceAfterMark subtable" tav hairspace
MultipleSubs2: "AddThinspaceAfterMark subtable" tav thinspace
Substitution2: "jaltWideLetterAlternativesinHeb subtable" tav.wide
EndChar

StartChar: geresh
Encoding: 185 1523 127
Width: 306
VWidth: 58
GlyphClass: 2
Flags: W
HStem: 798 498<-142 -75.9871>
VStem: -229 224<1125.73 1255.27>
LayerCount: 2
Fore
SplineSet
-143 1296 m 0
 -64 1296 -5 1228 -5 1137 c 1
 -13 1017 -55 890 -90 798 c 1
 -142 798 l 1
 -131 849 -108 905 -108 975 c 0
 -108 998 -111 1023 -117 1049 c 0
 -121 1066 -135 1080 -154 1096 c 0
 -192 1128 -229 1155 -229 1213 c 0
 -229 1261 -194 1296 -143 1296 c 0
EndSplineSet
EndChar

StartChar: zerononjoin
Encoding: 189 8204 131
Width: 0
GlyphClass: 2
Flags: W
HStem: 1613 281
VStem: -141 281
LayerCount: 2
Fore
SplineSet
-108 1894 m 1
 0 1786 l 1
 106 1893 l 1
 140 1860 l 1
 33 1753 l 1
 140 1646 l 1
 106 1613 l 1
 0 1719 l 1
 -108 1613 l 1
 -141 1646 l 1
 -34 1753 l 1
 -141 1860 l 1
 -108 1894 l 1
EndSplineSet
EndChar

StartChar: zerojoin
Encoding: 190 8205 132
Width: 0
GlyphClass: 2
Flags: W
HStem: 1637 140<-203 -156 157 204> 1730 47<-156 157>
VStem: -203 47<1637 1730> 157 47<1637 1730>
LayerCount: 2
Fore
SplineSet
157 1637 m 1xb0
 157 1730 l 1
 -156 1730 l 1x70
 -156 1637 l 1
 -203 1637 l 1
 -203 1777 l 1
 204 1777 l 1
 204 1637 l 1
 157 1637 l 1xb0
EndSplineSet
EndChar

StartChar: lrm
Encoding: 191 8206 133
Width: 0
GlyphClass: 2
Flags: W
HStem: 1730 47<-154 104>
VStem: -154 349
LayerCount: 2
Fore
SplineSet
21 1860 m 1
 54 1894 l 1
 195 1753 l 1
 54 1612 l 1
 21 1646 l 1
 105 1730 l 1
 -154 1730 l 1
 -154 1777 l 1
 104 1777 l 1
 21 1860 l 1
EndSplineSet
EndChar

StartChar: rlm
Encoding: 192 8207 134
Width: 0
GlyphClass: 2
Flags: W
HStem: 1730 47<-103 155>
VStem: -194 349
LayerCount: 2
Fore
SplineSet
-20 1647 m 1
 -53 1613 l 1
 -194 1754 l 1
 -53 1895 l 1
 -20 1861 l 1
 -104 1777 l 1
 155 1777 l 1
 155 1730 l 1
 -103 1730 l 1
 -20 1647 l 1
EndSplineSet
EndChar

StartChar: newshekel
Encoding: 199 8362 141
Width: 1249
VWidth: 2248
GlyphClass: 2
Flags: W
HStem: -12 182<336.754 601 672 755.772> 709 180<57 503.814>
VStem: 0 57<553.594 704.418> 248 54<198.934 430.671> 881 96<527.728 683.5>
LayerCount: 2
Fore
SplineSet
591 776 m 1
 592 762 592 750 592 740 c 0
 592 710 587 697 584 697 c 1
 584 697 566 709 554 709 c 0
 548 709 544 704 544 697 c 0
 544 694 544 694 545 691 c 2
 559 632 l 2
 588 507 640 338 667 223 c 0
 671 206 672 192 672 179 c 0
 672 176 672 174 672 170 c 1
 701 170 l 2
 722 170 745 184 756 214 c 1
 878 528 l 1
 880 538 881 547 881 555 c 0
 881 575 874 590 859 601 c 1
 722 709 l 18
 709 719 697 744 697 768 c 0
 697 780 701 788 710 799 c 10
 760 870 l 18
 767 880 775 886 783 886 c 0
 816 886 797 830 817 816 c 10
 912 750 l 17
 957 719 977 699 977 668 c 0
 977 649 967 631 960 610 c 2
 765 23 l 1
 740 -11 740 -12 706 -12 c 2
 314 -12 l 1
 315 -6 316 0 316 6 c 0
 316 20 314 35 310 50 c 2
 252 242 l 2
 249 252 248 266 248 283 c 0
 248 344 275 445 299 502 c 9
 239 528 l 17
 210 542 201 554 201 572 c 0
 201 582 204 593 207 607 c 1
 228 678 l 18
 231 689 238 694 245 694 c 0
 268 694 263 650 284 644 c 9
 394 602 l 17
 443 582 468 569 468 531 c 0
 468 516 457 506 432 444 c 1
 408 456 350 486 324 494 c 1
 312 461 302 368 302 308 c 0
 302 258 312 214 336 189 c 0
 352 171 374 170 408 170 c 2
 601 170 l 1
 601 170 525 577 508 651 c 1
 504 668 l 2
 496 705 492 709 448 709 c 2
 57 709 l 1
 60 666 67 625 77 582 c 0
 107 453 180 250 225 56 c 0
 226 54 226 54 226 52 c 0
 226 27 180 -12 173 -12 c 0
 164 -12 148 7 139 47 c 10
 10 606 l 17
 5 621 0 642 0 658 c 0
 0 675 8 689 33 709 c 1
 -8 718 -53 734 -68 796 c 10
 -84 863 l 18
 -88 881 -92 899 -92 918 c 0
 -92 933 -85 941 -76 941 c 0
 -67 941 -56 934 -46 918 c 0
 -29 889 -28 889 16 889 c 2
 448 889 l 2
 539 889 541 876 568 832 c 0
 579 814 586 795 591 776 c 1
EndSplineSet
EndChar

StartChar: dottedcircle
Encoding: 201 9676 142
Width: 1244
GlyphClass: 2
Flags: W
HStem: -12 143<545.461 671.204> 48 143<298.536 423.774 766.536 891.774> 222 143<83.4614 209.204 899.461 1025.2> 456 143<-30.5386 95.2036 905.461 1031.2> 690 143<-24.5386 101.204 791.461 917.204> 864 143<109.796 235.204 577.796 703.204> 924 143<329.461 455.204>
VStem: -42 149<467.148 587.852 705.01 824.895> 72 149<233.148 353.852> 98 149<875.148 995.852> 286 150<59.204 179.191> 318 149<935.148 1055.85> 534 149<-0.851929 119.852> 566 149<875.148 995.852> 754 150<59.204 179.191> 780 149<701.148 821.852> 888 149<233.148 353.852 471.01 590.895>
LayerCount: 2
Fore
SplineSet
49 456 m 0x39
 -4 456 -42 491 -42 552 c 0
 -42 583 -22 599 16 599 c 0
 69 599 107 564 107 503 c 0
 107 472 88 456 49 456 c 0x39
985 456 m 0
 932 456 894 491 894 552 c 0
 894 583 914 599 952 599 c 0
 1005 599 1043 564 1043 503 c 0
 1043 472 1024 456 985 456 c 0
409 924 m 0x3a10
 356 924 318 959 318 1020 c 0
 318 1051 338 1067 376 1067 c 0
 429 1067 467 1032 467 971 c 0
 467 940 448 924 409 924 c 0x3a10
625 -12 m 0xb808
 572 -12 534 23 534 84 c 0
 534 115 554 131 592 131 c 0
 645 131 683 96 683 35 c 0
 683 4 664 -12 625 -12 c 0xb808
871 690 m 0
 818 690 780 725 780 786 c 0
 780 817 800 833 838 833 c 0
 891 833 929 798 929 737 c 0x3801
 929 706 910 690 871 690 c 0
979 222 m 0
 926 222 888 257 888 318 c 0
 888 349 908 365 946 365 c 0
 999 365 1037 330 1037 269 c 0x380080
 1037 238 1018 222 979 222 c 0
55 690 m 0
 2 690 -36 725 -36 786 c 0
 -36 817 -16 833 22 833 c 0
 75 833 113 798 113 737 c 0
 113 706 94 690 55 690 c 0
163 222 m 0
 110 222 72 257 72 318 c 0
 72 349 92 365 130 365 c 0
 183 365 221 330 221 269 c 0x3880
 221 238 202 222 163 222 c 0
189 864 m 0x3c40
 136 864 98 899 98 960 c 0
 98 991 117 1007 156 1007 c 0
 209 1007 247 972 247 911 c 0
 247 880 228 864 189 864 c 0x3c40
657 864 m 0
 604 864 566 899 566 960 c 0
 566 991 585 1007 624 1007 c 0
 677 1007 715 972 715 911 c 0x3c04
 715 880 696 864 657 864 c 0
377 48 m 0x7820
 324 48 286 84 286 144 c 0
 286 175 306 191 344 191 c 0
 396 191 436 157 436 95 c 0
 436 64 416 48 377 48 c 0x7820
845 48 m 0
 792 48 754 84 754 144 c 0
 754 175 774 191 812 191 c 0
 864 191 904 157 904 95 c 0x7802
 904 64 884 48 845 48 c 0
EndSplineSet
EndChar

StartChar: jsvarika
Encoding: 203 64286 143
Width: 0
VWidth: 2248
GlyphClass: 4
Flags: W
HStem: 1239 87<-424.323 -207.311>
VStem: -531 97<1339.92 1402.91> -205 99<1332.88 1404.81>
AnchorPoint: "m2mrafe" 0 200 basemark 0
AnchorPoint: "m2b3" 0 0 mark 0
LayerCount: 2
Fore
SplineSet
-159 1405 m 0
 -119 1405 -106 1395 -106 1359 c 0
 -106 1286 -181 1239 -285 1239 c 0
 -387 1239 -531 1297 -531 1387 c 0
 -531 1398 -506 1403 -481 1403 c 0
 -459 1403 -437 1399 -434 1388 c 0
 -424 1342 -368 1326 -305 1326 c 0
 -248 1326 -205 1339 -205 1375 c 0
 -205 1379 -204 1384 -205 1388 c 0
 -208 1399 -184 1405 -159 1405 c 0
EndSplineSet
EndChar

StartChar: ayin.alt
Encoding: 205 64288 145
Width: 1082
VWidth: 2248
GlyphClass: 2
Flags: W
HStem: -67 231<55.5871 163.769>
VStem: 131 45<627.108 798>
AnchorPoint: "m2b10" -300 0 basechar 0
AnchorPoint: "m2b9" 710 0 basechar 0
AnchorPoint: "m2b8a" 557 0 basechar 0
AnchorPoint: "m2b8b" 210 0 basechar 0
AnchorPoint: "m2b8c" 850 0 basechar 0
AnchorPoint: "m2b7c" -195 0 basechar 0
AnchorPoint: "m2b7b" 267 0 basechar 0
AnchorPoint: "m2b7a" 167 0 basechar 0
AnchorPoint: "m2b5a" 515 0 basechar 0
AnchorPoint: "m2b5b" 808 0 basechar 0
AnchorPoint: "m2bv2r" 515 0 basechar 0
AnchorPoint: "HbWM" 360 0 basechar 0
AnchorPoint: "HbNM" 300 0 basechar 0
AnchorPoint: "VbWM" 530 0 basechar 0
AnchorPoint: "VbNM" 470 0 basechar 0
AnchorPoint: "m2bpg" 950 0 basechar 0
AnchorPoint: "m2b4a" 515 0 basechar 0
AnchorPoint: "m2b4b" 515 0 basechar 0
AnchorPoint: "m2b4c" 515 0 basechar 0
AnchorPoint: "m2b4d" 515 0 basechar 0
AnchorPoint: "m2b2" 603 0 basechar 0
AnchorPoint: "m2b1" 557 0 basechar 0
LayerCount: 2
Fore
SplineSet
71 -67 m 0
 49 -67 44 -50 44 -25 c 0
 44 -10 45 10 47 35 c 10
 52 90 l 18
 57 150 57 141 119 164 c 9
 297 221 l 18
 320 228 328 244 323 263 c 0
 321 272 322 285 319 301 c 0
 279 472 170 518 144 632 c 0
 139 655 131 689 131 736 c 0
 131 759 133 784 137 813 c 1
 103 837 -43 866 -72 991 c 0
 -75 1004 -76 1022 -76 1043 c 0
 -76 1115 -60 1217 -34 1217 c 2
 -32 1217 l 1
 -15 1213 -17 1156 16 1129 c 0
 84 1075 275 1037 300 929 c 0
 302 919 301 908 302 897 c 2
 310 798 l 17
 307 767 305 753 292 753 c 0
 279 753 224 787 179 798 c 1
 177 783 176 768 176 754 c 0
 176 680 185 650 211 602 c 1
 239 547 338 497 384 298 c 0
 391 269 396 255 414 255 c 0
 423 255 434 258 450 264 c 1
 656 325 662 332 725 728 c 1
 722 742 600 810 584 820 c 0
 544 844 508 874 474 906 c 1
 455 926 433 964 433 1001 c 0
 433 1028 442 1054 452 1079 c 10
 497 1195 l 17
 505 1210 514 1217 524 1217 c 0
 569 1217 540 1134 571 1115 c 9
 706 1020 l 17
 759 979 782 949 792 905 c 0
 796 888 799 874 799 856 c 0
 799 831 794 798 780 740 c 0
 764 674 741 407 741 276 c 0
 741 268 741 260 741 253 c 0
 741 194 666 98 571 73 c 9
 137 -54 l 17
 106 -62 85 -67 71 -67 c 0
EndSplineSet
MultipleSubs2: "Addhairspacebeforeletter subtable" hairspace ayin.alt
MultipleSubs2: "Addthinspacebeforeletter subtable" thinspace ayin.alt
MultipleSubs2: "AddHairspaceAfterMark subtable" ayin.alt hairspace
MultipleSubs2: "AddThinspaceAfterMark subtable" ayin.alt thinspace
EndChar

StartChar: alef.wide
Encoding: 206 64289 146
Width: 1852
VWidth: 2248
GlyphClass: 2
Flags: W
HStem: 0 9G<138.5 274 1702 1719.5>
VStem: 19 124<323 523.949> 178 212<73.5646 193.325>
AnchorPoint: "m2b10" -300 0 basechar 0
AnchorPoint: "m2b9" 1100 0 basechar 0
AnchorPoint: "m2b8a" 947 0 basechar 0
AnchorPoint: "m2b8b" 190 0 basechar 0
AnchorPoint: "m2b8c" 1580 0 basechar 0
AnchorPoint: "m2b7c" -195 0 basechar 0
AnchorPoint: "m2b7b" 258 0 basechar 0
AnchorPoint: "m2b7a" 158 0 basechar 0
AnchorPoint: "m2b5a" 1000 0 basechar 0
AnchorPoint: "m2b5b" 1630 0 basechar 0
AnchorPoint: "m2b4a" 930 0 basechar 0
AnchorPoint: "m2b4b" 930 0 basechar 0
AnchorPoint: "m2b4c" 930 0 basechar 0
AnchorPoint: "m2b4d" 930 0 basechar 0
AnchorPoint: "m2b3" 931 0 basechar 0
AnchorPoint: "m2b2" 1034.89 -450 basechar 0
AnchorPoint: "m2b1" 931 0 basechar 0
LayerCount: 2
Fore
SplineSet
178 121 m 0
 178 194 19 256 19 390 c 0
 19 506 142 641 217 698 c 1
 110 793 -37 818 -67 950 c 16
 -74 977 -76 1007 -76 1036 c 0
 -76 1107 -60 1173 -38 1173 c 0
 -25 1173 12 1156 25 1102 c 1
 106 913 849 690 1108 600 c 9
 1339 831 l 25
 1217 946 l 18
 1177 984 1155 1022 1155 1082 c 0
 1155 1112 1162 1142 1173 1168 c 8
 1191 1209 1205 1266 1228 1266 c 3
 1261 1266 1249 1214 1256 1184 c 0
 1275 1101 1498 1017 1521 920 c 0
 1522 912 1523 905 1523 897 c 0
 1523 846 1485 800 1466 738 c 9
 1377 806 l 25
 1170 568 l 17
 1329 507 1469 476 1590 402 c 1
 1672 344 1707 261 1723 189 c 0
 1736 133 1742 89 1742 57 c 0
 1742 10 1730 -12 1709 -12 c 0
 1695 -12 1686 8 1654 47 c 0
 1435 323 901 388 537 582 c 0
 504 600 381 646 345 646 c 0
 338 646 330 644 320 644 c 1
 210 630 143 546 143 479 c 0
 143 472 144 465 145 458 c 0
 171 348 339 381 387 172 c 0
 389 165 390 158 390 151 c 0
 390 72 289 0 259 0 c 10
 152 0 l 18
 125 0 97 9 97 37 c 0
 97 79 178 66 178 121 c 0
EndSplineSet
MultipleSubs2: "Addhairspacebeforeletter subtable" hairspace alef.wide
MultipleSubs2: "Addthinspacebeforeletter subtable" thinspace alef.wide
MultipleSubs2: "AddHairspaceAfterMark subtable" alef.wide hairspace
MultipleSubs2: "AddThinspaceAfterMark subtable" alef.wide thinspace
EndChar

StartChar: dalet.wide
Encoding: 207 64290 147
Width: 2003
VWidth: 2248
GlyphClass: 2
Flags: W
HStem: -6 21G<1745.5 1754> 895 227<-83.9216 1538.24 1589.05 1631.06>
AnchorPoint: "m2b10" -300 0 basechar 0
AnchorPoint: "m2b9" 1140 0 basechar 0
AnchorPoint: "m2b8a" 931 0 basechar 0
AnchorPoint: "m2b8b" 62 0 basechar 0
AnchorPoint: "m2b8c" 1700 0 basechar 0
AnchorPoint: "m2b7c" -195 0 basechar 0
AnchorPoint: "m2b7b" 124 0 basechar 0
AnchorPoint: "m2b7a" 24 0 basechar 0
AnchorPoint: "m2b5a" 1400 0 basechar 0
AnchorPoint: "m2b5b" 1910 0 basechar 0
AnchorPoint: "m2bv2left" 1750 0 basechar 0
AnchorPoint: "m2b4a" 1750 0 basechar 0
AnchorPoint: "m2b4b" 1750 0 basechar 0
AnchorPoint: "m2b4c" 1730 0 basechar 0
AnchorPoint: "m2b4d" 1638 0 basechar 0
AnchorPoint: "m2b3" 931 0 basechar 0
AnchorPoint: "m2b2" 904 0 basechar 0
AnchorPoint: "m2b1" 931 0 basechar 0
LayerCount: 2
Fore
SplineSet
155 895 m 18
 -40 895 -125 923 -157 1063 c 10
 -164 1090 l 18
 -170 1116 -182 1158 -182 1186 c 0
 -182 1207 -174 1218 -162 1218 c 0
 -151 1218 -137 1207 -124 1183 c 0
 -101 1140 -88 1122 -34 1122 c 2
 1526 1122 l 2
 1586 1122 1611 1118 1630 1081 c 1
 1662 1000 l 2
 1681 952 1690 943 1690 900 c 0
 1690 880 1684 866 1678 866 c 0
 1671 865 1661 869 1649 881 c 0
 1638 891 1622 895 1609 895 c 0
 1598 895 1590 893 1589 889 c 1
 1614 781 l 2
 1657 595 1724 323 1789 155 c 1
 1796 126 1799 102 1799 83 c 0
 1799 5 1756 -6 1752 -6 c 0
 1739 -6 1725 12 1714 59 c 2
 1542 835 l 2
 1530 889 1525 895 1470 895 c 10
 155 895 l 18
EndSplineSet
MultipleSubs2: "Addhairspacebeforeletter subtable" hairspace dalet.wide
MultipleSubs2: "Addthinspacebeforeletter subtable" thinspace dalet.wide
MultipleSubs2: "AddHairspaceAfterMark subtable" dalet.wide hairspace
MultipleSubs2: "AddThinspaceAfterMark subtable" dalet.wide thinspace
EndChar

StartChar: he.wide
Encoding: 208 64291 148
Width: 2039
VWidth: 2248
GlyphClass: 2
Flags: W
HStem: -14 35G<143 152.5 1806.5 1815> 901 227<-62.4835 1598.71>
AnchorPoint: "m2b10" -300 0 basechar 0
AnchorPoint: "m2b9" 1160 0 basechar 0
AnchorPoint: "m2b8a" 1000 0 basechar 0
AnchorPoint: "m2b8b" 87 0 basechar 0
AnchorPoint: "m2b8c" 1770 0 basechar 0
AnchorPoint: "m2b7c" -195 0 basechar 0
AnchorPoint: "m2b7b" 156 0 basechar 0
AnchorPoint: "m2b7a" 56 0 basechar 0
AnchorPoint: "m2b5a" 1000 0 basechar 0
AnchorPoint: "m2b5b" 1770 0 basechar 0
AnchorPoint: "m2bpg" 1950 0 basechar 0
AnchorPoint: "m2b4a" 1000 0 basechar 0
AnchorPoint: "m2b4b" 1000 0 basechar 0
AnchorPoint: "m2b4c" 1000 0 basechar 0
AnchorPoint: "m2b4d" 1000 0 basechar 0
AnchorPoint: "m2b3" 1000 0 basechar 0
AnchorPoint: "m2b2" 1000 0 basechar 0
AnchorPoint: "m2b1" 1002 0 basechar 0
LayerCount: 2
Fore
SplineSet
1712 945 m 0
 1720 910 1710 886 1702 886 c 1
 1696 885 1693 901 1675 901 c 0
 1657 901 1651 898 1656 876 c 2
 1676 787 l 2
 1719 601 1784 328 1849 160 c 1
 1856 131 1858 107 1858 88 c 0
 1858 11 1817 -0 1813 0 c 0
 1800 0 1786 17 1775 64 c 2
 1603 841 l 2
 1590 895 1586 901 1531 901 c 2
 172 901 l 2
 -6 901 -109 928 -142 1068 c 10
 -146 1089 l 18
 -152 1115 -159 1144 -159 1172 c 0
 -159 1193 -151 1204 -140 1204 c 0
 -129 1204 -114 1193 -102 1169 c 0
 -81 1130 -77 1128 -36 1128 c 2
 1519 1128 l 2
 1631 1128 1660 1089 1679 1041 c 1
 1679 1041 1707 968 1712 945 c 0
100 573 m 10
 197 151 l 18
 205 118 209 97 209 80 c 0
 209 50 196 36 169 0 c 0
 161 -10 157 -14 148 -14 c 0
 138 -14 145 31 135 74 c 10
 28 539 l 18
 18 582 13 601 13 613 c 0
 13 625 18 629 27 646 c 0
 44 679 51 682 61 682 c 0
 75 682 83 647 100 573 c 10
EndSplineSet
MultipleSubs2: "Addhairspacebeforeletter subtable" hairspace he.wide
MultipleSubs2: "Addthinspacebeforeletter subtable" thinspace he.wide
MultipleSubs2: "AddHairspaceAfterMark subtable" he.wide hairspace
MultipleSubs2: "AddThinspaceAfterMark subtable" he.wide thinspace
EndChar

StartChar: kaf.wide
Encoding: 209 64292 149
Width: 2160
VWidth: 2248
GlyphClass: 2
Flags: W
HStem: 0 225<105.818 1917.71> 902 223<-36.3216 1692.84>
VStem: 1926 67<227.92 353.294>
AnchorPoint: "m2b10" -300 0 basechar 0
AnchorPoint: "m2b9" 1100 0 basechar 0
AnchorPoint: "m2b8a" 1030 0 basechar 0
AnchorPoint: "m2b8b" 127 0 basechar 0
AnchorPoint: "m2b8c" 1845 0 basechar 0
AnchorPoint: "m2b7c" -195 0 basechar 0
AnchorPoint: "m2b7b" 168 0 basechar 0
AnchorPoint: "m2b7a" 68 0 basechar 0
AnchorPoint: "m2b5a" 1030 0 basechar 0
AnchorPoint: "m2b5b" 1815 0 basechar 0
AnchorPoint: "m2b4a" 1030 0 basechar 0
AnchorPoint: "m2b4b" 1030 0 basechar 0
AnchorPoint: "m2b4c" 1030 0 basechar 0
AnchorPoint: "m2b4d" 1030 0 basechar 0
AnchorPoint: "m2b3" 1030 0 basechar 0
AnchorPoint: "m2b2" 1030 0 basechar 0
AnchorPoint: "m2b1" 1031 0 basechar 0
LayerCount: 2
Fore
SplineSet
1967 133 m 10
 1952 93 l 17
 1904 15 1885 0 1779 0 c 2
 132 0 l 2
 128 0 124 -0 121 -0 c 0
 78 -0 55 1 55 23 c 0
 55 36 64 56 74 89 c 10
 89 136 l 17
 118 221 121 224 212 224 c 0
 220 224 229 225 238 225 c 2
 1855 225 l 2
 1909 225 1926 229 1926 255 c 0
 1926 268 1922 286 1916 311 c 2
 1836 657 l 2
 1819 732 1762 902 1613 902 c 10
 196 902 l 18
 27 902 -86 928 -119 1068 c 10
 -123 1089 l 18
 -129 1115 -137 1144 -137 1172 c 0
 -137 1193 -129 1204 -118 1204 c 0
 -107 1204 -92 1193 -80 1169 c 0
 -57 1126 -54 1125 0 1125 c 2
 1527 1125 l 2
 1696 1125 1823 1000 1846 902 c 2
 1986 294 l 2
 1991 273 1993 254 1993 238 c 0
 1993 194 1979 163 1967 133 c 10
EndSplineSet
MultipleSubs2: "Addhairspacebeforeletter subtable" hairspace kaf.wide
MultipleSubs2: "Addthinspacebeforeletter subtable" thinspace kaf.wide
MultipleSubs2: "AddHairspaceAfterMark subtable" kaf.wide hairspace
MultipleSubs2: "AddThinspaceAfterMark subtable" kaf.wide thinspace
EndChar

StartChar: lamed.wide
Encoding: 210 64293 150
Width: 1703
VWidth: 2248
GlyphClass: 2
Flags: W
HStem: 902 222<-96.1641 1229.38>
VStem: -251 69<1277.63 1485.04> -176 78<1506.23 1594.73> 827 197<40.9616 133.336>
AnchorPoint: "m2b10" -300 0 basechar 0
AnchorPoint: "m2b9" 1130 0 basechar 0
AnchorPoint: "m2b8a" 821 0 basechar 0
AnchorPoint: "m2b8b" -79 0 basechar 0
AnchorPoint: "m2b8c" 1445 0 basechar 0
AnchorPoint: "m2b7c" -195 0 basechar 0
AnchorPoint: "m2b7a" -108 0 basechar 0
AnchorPoint: "m2b5a" 1131 0 basechar 0
AnchorPoint: "m2b5b" 1519 0 basechar 0
AnchorPoint: "m2b4a" 890 0 basechar 0
AnchorPoint: "m2b4b" 890 0 basechar 0
AnchorPoint: "m2b4c" 890 0 basechar 0
AnchorPoint: "m2b4d" 800 0 basechar 0
AnchorPoint: "m2b2" 821 0 basechar 0
AnchorPoint: "m2b1" 821 0 basechar 0
LayerCount: 2
Fore
SplineSet
866 -63 m 0
 831 -63 827 19 827 69 c 0
 827 112 835 153 862 165 c 10
 1416 423 l 18
 1440 434 1439 448 1435 464 c 0
 1432 476 1425 493 1412 520 c 10
 1312 734 l 17
 1283 789 1226 902 1145 902 c 10
 21 902 l 18
 -42 902 -140 946 -168 1065 c 10
 -248 1414 l 18
 -250 1421 -251 1427 -251 1432 c 0
 -251 1489 -176 1490 -176 1538 c 0
 -176 1607 -252 1581 -271 1665 c 0
 -273 1670 -273 1676 -273 1681 c 0
 -273 1724 -240 1766 -227 1766 c 3
 -205 1766 -203 1736 -188 1717 c 24
 -152 1668 -98 1644 -98 1577 c 0
 -98 1513 -182 1490 -182 1431 c 0
 -182 1426 -181 1420 -180 1415 c 10
 -150 1285 l 18
 -131 1206 -82 1124 -29 1124 c 10
 1113 1124 l 18
 1260 1124 1293 1066 1340 960 c 9
 1511 507 l 17
 1515 491 1536 440 1536 424 c 0
 1536 395 1502 361 1462 333 c 9
 1072 136 l 18
 1047 123 1023 122 1023 106 c 0
 1023 103 1024 100 1024 97 c 0
 1024 71 970 34 958 20 c 9
 870 -61 l 18
 869 -62 868 -63 866 -63 c 0
EndSplineSet
MultipleSubs2: "Addhairspacebeforeletter subtable" hairspace lamed.wide
MultipleSubs2: "Addthinspacebeforeletter subtable" thinspace lamed.wide
MultipleSubs2: "AddHairspaceAfterMark subtable" lamed.wide hairspace
MultipleSubs2: "AddThinspaceAfterMark subtable" lamed.wide thinspace
EndChar

StartChar: finalmem.wide
Encoding: 211 64294 151
Width: 2076
VWidth: 2248
GlyphClass: 2
Flags: W
HStem: 0 228<174.743 1808.31> 901 224<87.7875 1583.88>
VStem: -6 88<471.344 878.329>
AnchorPoint: "m2b9" 1110 0 basechar 0
AnchorPoint: "m2b8a" 992 0 basechar 0
AnchorPoint: "m2b8b" 186 0 basechar 0
AnchorPoint: "m2b8c" 1700 0 basechar 0
AnchorPoint: "m2b7b" 196 0 basechar 0
AnchorPoint: "m2b7a" 96 0 basechar 0
AnchorPoint: "m2b5a" 992 0 basechar 0
AnchorPoint: "m2b5b" 1844 0 basechar 0
AnchorPoint: "m2b4a" 992 0 basechar 0
AnchorPoint: "m2b4b" 992 0 basechar 0
AnchorPoint: "m2b4c" 992 0 basechar 0
AnchorPoint: "m2b4d" 992 0 basechar 0
AnchorPoint: "m2b2" 992 0 basechar 0
AnchorPoint: "m2b1" 992 0 basechar 0
LayerCount: 2
Fore
SplineSet
1500 901 m 2
 108 901 l 2
 92 901 82 847 82 773 c 0
 82 707 90 626 106 553 c 2
 167 292 l 2
 169 283 173 276 175 269 c 0
 184 231 191 228 234 228 c 2
 1778 228 l 2
 1809 228 1818 231 1810 264 c 2
 1702 733 l 2
 1684 809 1630 901 1500 901 c 2
96 165 m 10
 5 557 l 18
 -2 589 -6 627 -6 666 c 0
 -6 752 12 845 51 901 c 1
 -31 919 -77 976 -99 1068 c 10
 -104 1090 l 18
 -110 1116 -118 1145 -118 1173 c 0
 -118 1194 -109 1205 -98 1205 c 0
 -86 1205 -72 1194 -59 1170 c 0
 -36 1127 -34 1125 20 1125 c 2
 1415 1125 l 2
 1584 1125 1723 999 1746 901 c 10
 1916 165 l 18
 1929 107 1938 69 1938 45 c 0
 1938 0 1909 0 1831 0 c 10
 268 0 l 18
 151 0 120 0 99 90 c 0
 98 95 98 100 98 105 c 0
 98 115 99 125 99 137 c 0
 99 145 98 155 96 165 c 10
EndSplineSet
MultipleSubs2: "Addhairspacebeforeletter subtable" hairspace finalmem.wide
MultipleSubs2: "Addthinspacebeforeletter subtable" thinspace finalmem.wide
MultipleSubs2: "AddHairspaceAfterMark subtable" finalmem.wide hairspace
MultipleSubs2: "AddThinspaceAfterMark subtable" finalmem.wide thinspace
EndChar

StartChar: resh.wide
Encoding: 212 64295 152
Width: 2015
VWidth: 2248
GlyphClass: 2
Flags: W
HStem: 901 225<-88.0503 1531.37>
VStem: 1832 61<-25.8497 147.751>
AnchorPoint: "m2b10" -300 0 basechar 0
AnchorPoint: "m2b9" 1100 0 basechar 0
AnchorPoint: "m2b8a" 953 0 basechar 0
AnchorPoint: "m2b8b" 116 0 basechar 0
AnchorPoint: "m2b8c" 1700 0 basechar 0
AnchorPoint: "m2b7c" -195 0 basechar 0
AnchorPoint: "m2b7b" 126 0 basechar 0
AnchorPoint: "m2b7a" 26 0 basechar 0
AnchorPoint: "m2b5a" 1833 0 basechar 0
AnchorPoint: "m2b5b" 1943 0 basechar 0
AnchorPoint: "m2bv2left" 1870 0 basechar 0
AnchorPoint: "m2b4a" 1840 0 basechar 0
AnchorPoint: "m2b4b" 1872 0 basechar 0
AnchorPoint: "m2b4c" 1806 0 basechar 0
AnchorPoint: "m2b4d" 1750 0 basechar 0
AnchorPoint: "m2b2" 953 0 basechar 0
AnchorPoint: "m2b1" 953 0 basechar 0
LayerCount: 2
Fore
SplineSet
1893 30 m 0
 1893 -3 1873 -26 1864 -26 c 0
 1852 -26 1840 -6 1832 32 c 0
 1806 142 1775 247 1750 356 c 2
 1680 657 l 2
 1662 738 1606 901 1457 901 c 2
 156 901 l 2
 -49 901 -127 928 -160 1068 c 10
 -165 1090 l 18
 -171 1116 -178 1145 -178 1173 c 0
 -178 1194 -170 1205 -158 1205 c 0
 -147 1205 -133 1194 -120 1170 c 0
 -97 1127 -95 1126 -41 1126 c 2
 1353 1126 l 2
 1522 1126 1657 1063 1748 665 c 10
 1881 91 l 18
 1886 71 1893 54 1893 30 c 0
EndSplineSet
MultipleSubs2: "Addhairspacebeforeletter subtable" hairspace resh.wide
MultipleSubs2: "Addthinspacebeforeletter subtable" thinspace resh.wide
MultipleSubs2: "AddHairspaceAfterMark subtable" resh.wide hairspace
MultipleSubs2: "AddThinspaceAfterMark subtable" resh.wide thinspace
EndChar

StartChar: tav.wide
Encoding: 213 64296 153
Width: 1997
VWidth: 2248
GlyphClass: 2
Flags: W
HStem: 0 228<62.6316 265.974> 901 225<-76.6664 59 110.843 1513.37>
VStem: 54 54<630.672 901> 59 358<6.23203 225.552> 1814 61<-25.8497 147.751>
AnchorPoint: "m2b10" -300 0 basechar 0
AnchorPoint: "m2b9" 1120 0 basechar 0
AnchorPoint: "m2b8a" 968 0 basechar 0
AnchorPoint: "m2b8b" 142 0 basechar 0
AnchorPoint: "m2b8c" 1700 0 basechar 0
AnchorPoint: "m2b7c" -195 0 basechar 0
AnchorPoint: "m2b7b" 176 0 basechar 0
AnchorPoint: "m2b7a" 76 0 basechar 0
AnchorPoint: "m2b5a" 1018 0 basechar 0
AnchorPoint: "m2b5b" 1808 0 basechar 0
AnchorPoint: "m2b4a" 1018 0 basechar 0
AnchorPoint: "m2b4b" 1018 0 basechar 0
AnchorPoint: "m2b4c" 1018 0 basechar 0
AnchorPoint: "m2b4d" 1018 0 basechar 0
AnchorPoint: "m2b3" 968 0 basechar 0
AnchorPoint: "m2b2" 968 0 basechar 0
AnchorPoint: "m2b1" 968 0 basechar 0
LayerCount: 2
Fore
SplineSet
132 0 m 18xd8
 68 0 59 14 59 57 c 0
 59 72 59 90 59 112 c 0xd8
 59 217 64 228 145 228 c 2
 188 228 l 2
 231 228 266 230 266 242 c 0
 266 281 121 425 75 622 c 0
 64 671 54 750 54 821 c 0xe8
 54 850 55 878 59 901 c 1xd8
 54 901 l 2
 18 901 -80 905 -99 989 c 10
 -123 1090 l 18
 -129 1116 -137 1145 -137 1173 c 0
 -137 1194 -129 1205 -117 1205 c 0
 -106 1205 -92 1194 -79 1170 c 0
 -56 1127 -54 1126 0 1126 c 2
 1335 1126 l 2
 1504 1126 1639 1063 1730 665 c 10
 1863 91 l 18
 1868 71 1875 54 1875 30 c 0
 1875 -3 1855 -26 1846 -26 c 0
 1834 -26 1822 -6 1814 32 c 0
 1788 142 1757 247 1732 356 c 2
 1662 657 l 2
 1644 738 1588 901 1439 901 c 2
 122 901 l 1
 112 879 108 845 108 809 c 0xe8
 108 756 116 700 123 673 c 0
 177 436 397 307 415 228 c 0
 417 223 417 217 417 211 c 0
 417 197 414 179 415 153 c 10
 414 83 l 17
 414 0 372 0 296 0 c 10
 132 0 l 18xd8
EndSplineSet
MultipleSubs2: "Addhairspacebeforeletter subtable" hairspace tav.wide
MultipleSubs2: "Addthinspacebeforeletter subtable" thinspace tav.wide
MultipleSubs2: "AddHairspaceAfterMark subtable" tav.wide hairspace
MultipleSubs2: "AddThinspaceAfterMark subtable" tav.wide thinspace
EndChar

StartChar: hebrewplussign
Encoding: 214 64297 154
Width: 670
VWidth: 2494
GlyphClass: 2
Flags: W
HStem: 493 119<-25.25 183 253 482.721>
VStem: -40 536<493 611.997>
LayerCount: 2
Fore
SplineSet
183 612 m 9
 135 819 l 17
 144 822 157 823 171 823 c 0
 183 823 195 822 204 821 c 1
 253 612 l 1
 453 612 l 2
 473 612 474 608 479 585 c 10
 495 514 l 18
 496 511 496 509 496 506 c 0
 496 493 484 493 473 493 c 2
 3 493 l 2
 -17 493 -15 493 -21 519 c 10
 -37 589 l 18
 -38 595 -40 600 -40 603 c 0
 -40 610 -36 612 -23 612 c 2
 183 612 l 9
EndSplineSet
EndChar

StartChar: aleflamed
Encoding: 247 64335 187
Width: 1028
VWidth: 2248
GlyphClass: 3
Flags: W
VStem: -225 69<1265.01 1463.23> -150 78<1485.23 1573.73>
AnchorPoint: "m2b8a" 491 0 basechar 0
AnchorPoint: "m2b8b" -120 0 basechar 0
AnchorPoint: "m2b8c" 850 0 basechar 0
AnchorPoint: "m2b7a" -108 0 basechar 0
AnchorPoint: "m2b5a" 575 0 basechar 0
AnchorPoint: "m2b5b" 822 0 basechar 0
AnchorPoint: "m2b4a" 575 0 basechar 0
AnchorPoint: "m2b4b" 575 0 basechar 0
AnchorPoint: "m2b4c" 575 0 basechar 0
AnchorPoint: "m2b4d" 575 0 basechar 0
AnchorPoint: "m2b1" 491 0 basechar 0
LayerCount: 2
Fore
SplineSet
-124 1265 m 6
 -52 951 301 754 531 586 c 13
 622 767 l 29
 470 891 l 21
 431 929 409 967 409 1027 c 4
 409 1057 416 1087 427 1113 c 12
 445 1154 458 1211 481 1211 c 7
 514 1211 502 1159 509 1129 c 4
 529 1046 752 962 774 865 c 4
 776 857 777 850 777 842 c 4
 777 791 738 745 719 683 c 13
 652 743 l 29
 563 563 l 29
 736 424 l 21
 814 360 853 283 869 211 c 4
 882 155 888 111 888 79 c 4
 888 32 876 10 855 10 c 4
 841 10 824 26 800 69 c 4
 654 324 206 579 119 654 c 5
 12 749 -85 823 -135 1041 c 4
 -167 1178 -193 1256 -225 1393 c 20
 -226 1400 -225 1406 -225 1411 c 4
 -225 1468 -150 1469 -150 1517 c 4
 -150 1586 -226 1560 -246 1644 c 4
 -247 1649 -247 1655 -247 1660 c 4
 -247 1703 -214 1745 -201 1745 c 7
 -179 1745 -178 1715 -164 1696 c 28
 -127 1647 -72 1623 -72 1556 c 4
 -72 1492 -156 1469 -156 1410 c 4
 -156 1405 -155 1399 -154 1394 c 14
 -124 1265 l 6
EndSplineSet
MultipleSubs2: "Addhairspacebeforeletter subtable" hairspace aleflamed
MultipleSubs2: "Addthinspacebeforeletter subtable" thinspace aleflamed
Ligature2: "B6ccmpAlefLamedLigature subtable" alef zerojoin lamed
LCarets2: 2 4 0 
EndChar

StartChar: hatafsegol_meteg
Encoding: 248 -1 188
Width: 0
VWidth: 2248
Flags: W
HStem: -472 136<355.612 474.41> -450 143<-185.151 -63.2131> -289 143<-328.856 -208.874 -114.856 5.12549 316.873 430.154>
VStem: -342 146<-274.656 -158.455> -199 148<-435.34 -320.719> -128 146<-274.656 -158.455> 301 140<-269.446 -156.912> 345 140<-460.946 -347.595>
AnchorPoint: "m2m6d" 469.77 1 basemark 0
AnchorPoint: "m2m1" -470 0 basemark 0
AnchorPoint: "m2b4d" 0 0 mark 0
LayerCount: 2
Fore
SplineSet
-251 -289 m 0x30
 -293 -289 -342 -252 -342 -202 c 0
 -342 -170 -319 -146 -284 -146 c 0
 -241 -146 -196 -184 -196 -235 c 0
 -196 -267 -217 -289 -251 -289 c 0x30
-37 -289 m 0
 -79 -289 -128 -252 -128 -202 c 0
 -128 -170 -105 -146 -70 -146 c 0
 -27 -146 18 -184 18 -235 c 0x24
 18 -267 -3 -289 -37 -289 c 0
-108 -450 m 0x68
 -150 -450 -199 -412 -199 -362 c 0
 -199 -330 -175 -307 -141 -307 c 0
 -98 -307 -51 -344 -51 -394 c 0
 -51 -426 -74 -450 -108 -450 c 0x68
431 -472 m 0xa1
 387 -472 345 -436 345 -388 c 0
 345 -357 366 -336 400 -336 c 0
 440 -336 485 -371 485 -421 c 0
 485 -451 464 -472 431 -472 c 0xa1
387 -281 m 0
 344 -281 301 -246 301 -197 c 0
 301 -166 322 -145 355 -145 c 0
 396 -145 441 -181 441 -230 c 0x22
 441 -260 419 -281 387 -281 c 0
131 -145 m 2
 145 -145 l 2
 189 -145 190 -146 198 -182 c 2
 256 -434 l 2
 259 -445 261 -453 261 -458 c 0
 261 -472 250 -472 213 -472 c 0xa0
 165 -472 165 -472 156 -434 c 2
 98 -182 l 2
 95 -171 94 -163 94 -157 c 0
 94 -145 102 -145 131 -145 c 2
EndSplineSet
MultipleSubs2: "AddHairspaceAfterMark subtable" hatafsegol_meteg hairspace
MultipleSubs2: "AddThinspaceAfterMark subtable" hatafsegol_meteg thinspace
Ligature2: "B1ccmpHatafMeteg subtable" hatafsegol zerojoin meteg
LCarets2: 2 0 0 
EndChar

StartChar: hatafpatah_meteg
Encoding: 249 -1 189
Width: 0
VWidth: 2248
Flags: W
HStem: -472 135<355.244 474.463> -281 135<310.642 429.847> -238 94<-343.999 10.4356>
VStem: 300 140<-269.181 -156.563> 345 140<-460.486 -348.595>
AnchorPoint: "m2m6d" 469.77 1 basemark 0
AnchorPoint: "m2m1" -470 0 basemark 0
AnchorPoint: "m2b4d" 0 0 mark 0
LayerCount: 2
Fore
SplineSet
-298 -238 m 18xa0
 -336 -238 -337 -226 -346 -186 c 0
 -349 -172 -352 -162 -352 -156 c 0
 -352 -144 -343 -144 -319 -144 c 2
 -37 -144 l 2
 0 -144 0 -144 10 -186 c 0
 13 -200 15 -210 15 -218 c 0
 15 -233 7 -238 -18 -238 c 10
 -298 -238 l 18xa0
431 -472 m 0
 388 -472 345 -437 345 -389 c 0
 345 -358 367 -337 400 -337 c 0
 441 -337 485 -372 485 -422 c 0x88
 485 -451 464 -472 431 -472 c 0
387 -281 m 0xd0
 345 -281 300 -246 300 -198 c 0
 300 -167 322 -146 356 -146 c 0
 398 -146 440 -181 440 -230 c 0
 440 -260 420 -281 387 -281 c 0xd0
125 -146 m 2
 151 -146 l 2
 190 -146 189 -148 197 -182 c 2
 255 -434 l 2
 258 -445 260 -453 260 -459 c 0
 260 -472 249 -472 213 -472 c 0
 165 -472 164 -472 155 -434 c 2
 97 -182 l 2
 95 -171 93 -164 93 -158 c 0
 93 -147 101 -146 125 -146 c 2
EndSplineSet
MultipleSubs2: "AddHairspaceAfterMark subtable" hatafpatah_meteg hairspace
MultipleSubs2: "AddThinspaceAfterMark subtable" hatafpatah_meteg thinspace
Ligature2: "B1ccmpHatafMeteg subtable" hatafpatah zerojoin meteg
LCarets2: 2 0 0 
EndChar

StartChar: hatafqamats_meteg
Encoding: 250 -1 190
Width: 0
VWidth: 2248
Flags: W
HStem: -472 135<355.244 473.745> -281 135<311.244 429.745> -237 93<-343.999 -174.004 -128 10.8014>
VStem: -174 46<-260.671 -237.655> 301 140<-269.527 -156.815> 345 140<-460.527 -347.815>
AnchorPoint: "m2m6d" 469.77 1 basemark 0
AnchorPoint: "m2m1" -470 0 basemark 0
AnchorPoint: "m2b4d" 0 0 mark 0
LayerCount: 2
Fore
SplineSet
-174 -281 m 0xd0
 -174 -263 -179 -251 -187 -237 c 9
 -294 -237 l 18
 -332 -237 -337 -226 -346 -185 c 0
 -349 -171 -352 -162 -352 -156 c 0
 -352 -144 -343 -144 -319 -144 c 2
 -37 -144 l 2
 0 -144 0 -144 10 -185 c 0
 13 -199 15 -209 15 -217 c 0
 15 -232 7 -237 -18 -237 c 10
 -128 -237 l 17xb0
 -129 -246 -128 -254 -127 -261 c 0
 -114 -314 -50 -348 -50 -408 c 0
 -50 -441 -71 -467 -103 -467 c 0
 -144 -467 -192 -423 -192 -372 c 0
 -192 -341 -174 -313 -174 -281 c 0xd0
431 -472 m 0
 388 -472 345 -437 345 -390 c 0
 345 -359 366 -337 400 -337 c 0
 442 -337 485 -373 485 -422 c 0x94
 485 -451 464 -472 431 -472 c 0
387 -281 m 0xd8
 344 -281 301 -246 301 -199 c 0
 301 -168 322 -146 356 -146 c 0
 398 -146 441 -182 441 -231 c 0
 441 -260 420 -281 387 -281 c 0xd8
125 -146 m 2
 151 -146 l 2
 190 -146 189 -148 197 -182 c 2
 255 -434 l 2
 258 -445 260 -453 260 -459 c 0
 260 -472 249 -472 213 -472 c 0
 165 -472 164 -472 155 -434 c 2
 97 -182 l 2
 95 -171 93 -164 93 -158 c 0
 93 -147 101 -146 125 -146 c 2
EndSplineSet
MultipleSubs2: "AddHairspaceAfterMark subtable" hatafqamats_meteg hairspace
MultipleSubs2: "AddThinspaceAfterMark subtable" hatafqamats_meteg thinspace
Ligature2: "B1ccmpHatafMeteg subtable" hatafqamats zerojoin meteg
LCarets2: 2 0 0 
EndChar

StartChar: underscore
Encoding: 64 95 191
Width: 877
VWidth: 1755
Flags: W
HStem: -235 106<54 908>
LayerCount: 2
Fore
SplineSet
30 -129 m 1
 908 -129 l 1
 932 -235 l 1
 54 -235 l 1
 30 -129 l 1
EndSplineSet
EndChar

StartChar: grave
Encoding: 65 96 192
Width: 357
VWidth: 1755
Flags: W
HStem: 779 211<-92.6991 -72.1399 -72 67.145>
VStem: -183 87<987.727 1153.68>
LayerCount: 2
Fore
SplineSet
9 779 m 0
 -93 779 -183 882 -183 1019 c 0
 -183 1116 -129 1203 -22 1291 c 1
 31 1243 l 1
 -56 1170 -96 1102 -96 1038 c 0
 -96 1020 -94 986 -77 986 c 1
 -77 986 -75 986 -72 988 c 1
 -41 990 l 1
 33 990 101 940 101 860 c 0
 101 812 65 779 9 779 c 0
EndSplineSet
EndChar

StartChar: braceleft
Encoding: 92 123 193
Width: 583
VWidth: 1755
Flags: W
HStem: -106 59<430.24 532> 1290 60<134.35 209>
VStem: -19 132<968.945 1276.4> 67 131<674.762 977.266>
LayerCount: 2
Fore
SplineSet
-34 650 m 1xe0
 44 679 67 694 67 761 c 0xd0
 67 782 61 813 45 883 c 2
 0 1086 l 2
 -12 1139 -19 1181 -19 1214 c 0
 -19 1253 -10 1281 9 1302 c 0
 35 1330 99 1350 164 1350 c 2
 209 1350 l 1
 223 1290 l 1
 146 1285 113 1262 113 1193 c 0xe0
 113 1162 120 1122 132 1069 c 2
 185 841 l 2
 194 804 198 775 198 750 c 0xd0
 198 694 174 662 117 622 c 1
 226 564 258 524 286 403 c 2
 339 174 l 2
 378 5 416 -40 532 -47 c 1
 545 -106 l 1
 500 -106 l 2
 435 -106 362 -87 324 -59 c 0
 271 -20 240 41 213 157 c 2
 166 361 l 2
 139 477 131 496 103 529 c 1
 75 559 53 571 -19 594 c 1
 -34 650 l 1xe0
EndSplineSet
EndChar

StartChar: bar
Encoding: 93 124 194
Width: 1063
VWidth: 1755
Flags: W
HStem: 0 21G<459.375 600>
VStem: 171 429
LayerCount: 2
Fore
SplineSet
307 1267 m 1
 600 0 l 1
 464 0 l 1
 171 1267 l 1
 307 1267 l 1
EndSplineSet
EndChar

StartChar: braceright
Encoding: 94 125 195
Width: 583
VWidth: 1755
Flags: W
HStem: -106 59<87 161.254> 1290 60<-235 -134.436>
VStem: 98 130<266.203 568.241> 183 132<-33.329 272.969>
LayerCount: 2
Fore
SplineSet
319 650 m 1xe0
 332 594 l 1
 263 569 243 554 232 515 c 0
 229 504 228 495 228 483 c 0xe0
 228 462 234 431 250 361 c 2
 297 157 l 2
 309 106 315 65 315 32 c 0
 315 -10 305 -38 286 -59 c 0
 260 -87 196 -106 131 -106 c 2
 87 -106 l 1
 74 -47 l 1
 150 -42 183 -19 183 50 c 0xd0
 183 81 176 122 164 174 c 2
 111 403 l 2
 102 440 98 470 98 495 c 0
 98 551 121 582 177 622 c 1
 69 680 38 720 10 841 c 2
 -43 1069 l 2
 -82 1238 -121 1283 -235 1290 c 1
 -249 1350 l 1
 -205 1350 l 2
 -140 1350 -67 1330 -29 1302 c 1
 24 1265 55 1202 82 1086 c 2
 129 883 l 2
 156 767 164 748 195 715 c 0
 222 685 245 673 319 650 c 1xe0
EndSplineSet
EndChar

StartChar: asciitilde
Encoding: 95 126 196
Width: 1063
VWidth: 1755
Flags: W
HStem: 474 140<456.516 670.334> 618 140<108.823 319.263>
LayerCount: 2
Fore
SplineSet
67 504 m 1
 -43 570 l 1
 -4 684 76 758 160 758 c 0
 204 758 246 746 347 702 c 2
 437 663 l 2
 540 618 553 614 588 614 c 0
 637 614 683 656 713 728 c 1
 821 661 l 1
 783 547 703 474 619 474 c 0
 575 474 528 488 432 528 c 1
 343 569 l 1
 230 616 225 618 190 618 c 0
 141 618 97 576 67 504 c 1
EndSplineSet
EndChar

StartChar: Euro
Encoding: 200 8364 197
Width: 1024
Flags: MW
HStem: -18 110<506.619 819.697> 408 79<-35 69 282 625> 617 79<-83 30 214 626> 1086 71<288.259 511.148>
VStem: 30 165<696 977.196>
LayerCount: 2
Fore
SplineSet
395 1086 m 0
 243 1086 195 947 195 799 c 0
 195 766 197 731 201 696 c 1
 626 696 l 1
 645 617 l 1
 214 617 l 1
 221 586 l 2
 229 552 238 519 250 487 c 1
 625 487 l 1
 643 408 l 1
 282 408 l 1
 363 242 478 92 677 92 c 0
 774 92 840 122 908 160 c 1
 915 153 922 144 929 134 c 1
 935 108 l 1
 872 38 753 -18 621 -18 c 0
 564 -18 505 -8 446 17 c 0
 287 84 171 229 99 408 c 1
 -35 408 l 1
 -53 487 l 1
 69 487 l 1
 66 497 64 507 61 518 c 2
 39 617 l 1
 -83 617 l 1
 -102 696 l 1
 30 696 l 1
 29 717 30 737 30 757 c 0
 30 990 138 1157 388 1157 c 0
 544 1157 706 1105 738 976 c 0
 739 968 740 961 740 954 c 0
 740 915 712 890 671 890 c 0
 594 890 534 967 513 1057 c 1
 476 1076 434 1086 395 1086 c 0
EndSplineSet
EndChar

StartChar: A
Encoding: 34 65 202
Width: 1470
VWidth: 1900
Flags: W
HStem: 0 89<85 180.805 385.828 567 900 1065.97 1311.01 1468> 444 104<387 813>
LayerCount: 2
Fore
SplineSet
495 1400 m 1
 1254 211 l 2
 1322 104 1347 89 1441 89 c 2
 1468 89 l 1
 1489 0 l 1
 900 0 l 1
 879 89 l 1
 958 89 l 2
 1023 89 1066 107 1066 134 c 0
 1066 136 1065 138 1065 140 c 0
 1062 150 1056 162 1038 191 c 2
 876 444 l 1
 374 444 l 1
 350 277 l 2
 348 263 347 249 347 237 c 0
 347 134 412 89 529 89 c 2
 567 89 l 1
 588 0 l 1
 85 0 l 1
 64 89 l 1
 71 89 l 2
 122 89 171 112 193 148 c 1
 215 178 219 191 234 290 c 1
 416 1400 l 1
 495 1400 l 1
475 1086 m 1
 387 548 l 1
 813 548 l 1
 475 1086 l 1
EndSplineSet
EndChar

StartChar: B
Encoding: 35 66 203
Width: 1470
VWidth: 1900
Flags: W
HStem: 0 89<156 327.764 551.655 983.797> 665 90<421 793.696> 1282 90<-140 72.7635 295.807 697.025>
VStem: 858 212<828.106 1110.4> 1065 232<156.059 463.78>
LayerCount: 2
Fore
SplineSet
-161 1372 m 1xe8
 522 1372 l 2
 635 1372 733 1356 808 1326 c 0
 929 1278 1034 1158 1062 1037 c 0
 1067 1015 1070 992 1070 970 c 0xf0
 1070 899 1042 832 991 788 c 1
 951 752 914 735 827 717 c 1
 1097 672 1244 560 1287 372 c 0
 1294 343 1297 316 1297 290 c 0
 1297 107 1134 0 847 0 c 2
 156 0 l 1
 135 89 l 1
 170 89 l 2
 293 89 328 95 328 139 c 0
 328 150 326 163 322 179 c 2
 88 1193 l 2
 69 1273 49 1282 -105 1282 c 2
 -140 1282 l 1
 -161 1372 l 1xe8
401 755 m 1
 570 755 l 2
 771 755 858 804 858 926 c 0
 858 1074 781 1193 689 1242 c 1
 643 1269 569 1282 481 1282 c 2
 404 1282 l 2
 325 1282 295 1270 295 1227 c 0
 295 1216 297 1203 301 1188 c 2
 401 755 l 1
421 665 m 1
 527 209 l 2
 551 104 569 89 665 89 c 2
 744 89 l 2
 943 89 1065 123 1065 279 c 0xe8
 1065 308 1061 341 1052 379 c 0
 1022 505 956 587 858 629 c 1
 796 654 709 665 588 665 c 2
 421 665 l 1
EndSplineSet
EndChar

StartChar: C
Encoding: 36 67 204
Width: 1470
VWidth: 1900
Flags: W
HStem: -29 91<631.741 1020.37> 1311 89<368.815 703.983>
VStem: 8 233<658.998 1090.59> 1170 94<221.763 470>
LayerCount: 2
Fore
SplineSet
836 62 m 0
 1048 62 1170 192 1170 423 c 0
 1170 442 1171 462 1170 484 c 1
 1260 470 l 1
 1263 443 1264 417 1264 391 c 0
 1264 122 1113 -29 835 -29 c 0
 461 -29 125 264 31 672 c 0
 16 739 8 803 8 862 c 0
 8 976 36 1077 93 1172 c 0
 187 1326 322 1400 507 1400 c 0
 634 1400 715 1372 872 1273 c 1
 922 1385 l 1
 995 1385 l 1
 1149 836 l 1
 1065 836 l 1
 988 982 943 1055 893 1118 c 1
 792 1239 658 1311 525 1311 c 0
 404 1311 301 1245 267 1138 c 0
 250 1087 241 1030 241 964 c 0
 241 881 255 784 282 665 c 0
 377 257 555 62 836 62 c 0
EndSplineSet
EndChar

StartChar: D
Encoding: 37 68 205
Width: 1577
VWidth: 1900
Flags: W
HStem: 0 89<155 325.77 547.007 993.363> 1282 90<-141 70.9154 292.018 724.418>
VStem: 1121 237<251.038 705.352>
LayerCount: 2
Fore
SplineSet
320 179 m 2
 86 1193 l 2
 67 1273 48 1282 -105 1282 c 2
 -141 1282 l 1
 -162 1372 l 1
 442 1372 l 2
 659 1372 806 1341 927 1274 c 1
 1127 1160 1271 955 1331 694 c 0
 1349 616 1358 544 1358 477 c 0
 1358 298 1295 162 1173 83 c 0
 1085 27 963 0 794 0 c 2
 155 0 l 1
 134 89 l 1
 170 89 l 2
 292 89 326 95 326 138 c 0
 326 149 324 163 320 179 c 2
660 89 m 2
 789 89 l 2
 1015 89 1121 182 1121 403 c 0
 1121 481 1108 574 1082 685 c 0
 985 1105 809 1282 484 1282 c 2
 385 1282 l 2
 316 1282 292 1276 292 1236 c 0
 292 1221 295 1202 301 1177 c 2
 528 194 l 2
 550 101 566 89 660 89 c 2
EndSplineSet
EndChar

StartChar: E
Encoding: 38 69 206
Width: 1470
VWidth: 1900
Flags: W
HStem: 0 89<155 325.764 561.915 1044.67> 665 90<419 611.613> 1282 90<-141 70.7635 292.08 784.134>
VStem: 651 89<952.076 1014> 794 90<392 453.924> 1160 83<462.704 508>
LayerCount: 2
Fore
SplineSet
979 1372 m 1
 1118 886 l 1
 1037 886 l 1
 969 1057 899 1164 825 1213 c 1
 748 1266 662 1282 495 1282 c 2
 397 1282 l 2
 319 1282 292 1274 292 1235 c 0
 292 1223 294 1207 299 1188 c 2
 399 755 l 1
 445 755 l 2
 594 755 660 805 660 926 c 0
 660 952 657 981 651 1014 c 1
 740 1014 l 1
 884 392 l 1
 794 392 l 1
 765 505 731 565 670 614 c 1
 623 654 573 665 457 665 c 2
 419 665 l 1
 531 181 l 2
 540 141 545 129 561 118 c 1
 580 102 633 89 689 89 c 2
 815 89 l 2
 974 89 1075 125 1116 201 c 1
 1144 250 1160 348 1160 462 c 0
 1160 477 1161 493 1160 508 c 1
 1243 508 l 1
 1322 0 l 1
 155 0 l 1
 134 89 l 1
 168 89 l 2
 291 89 326 95 326 139 c 0
 326 150 324 163 320 179 c 2
 86 1193 l 2
 67 1273 47 1282 -107 1282 c 2
 -141 1282 l 1
 -162 1372 l 1
 979 1372 l 1
EndSplineSet
EndChar

StartChar: F
Encoding: 39 70 207
Width: 1366
VWidth: 1900
Flags: W
HStem: 0 89<155 325.764 547.781 786> 665 90<419 611.465> 1282 90<-141 70.7635 292.08 767.755>
VStem: 651 89<952.076 1014>
LayerCount: 2
Fore
SplineSet
968 1372 m 1
 1108 886 l 1
 1024 886 l 1
 896 1211 798 1282 484 1282 c 2
 397 1282 l 2
 319 1282 292 1274 292 1235 c 0
 292 1223 294 1207 299 1188 c 2
 399 755 l 1
 445 755 l 2
 594 755 660 805 660 926 c 0
 660 952 657 981 651 1014 c 1
 740 1014 l 1
 884 392 l 1
 794 392 l 1
 765 505 733 565 673 614 c 0
 624 654 575 665 457 665 c 2
 419 665 l 1
 532 179 l 2
 550 99 569 89 723 89 c 2
 786 89 l 1
 807 0 l 1
 155 0 l 1
 134 89 l 1
 168 89 l 2
 291 89 326 95 326 139 c 0
 326 150 324 163 320 179 c 2
 86 1193 l 2
 67 1273 47 1282 -107 1282 c 2
 -141 1282 l 1
 -162 1372 l 1
 968 1372 l 1
EndSplineSet
EndChar

StartChar: G
Encoding: 40 71 208
Width: 1577
VWidth: 1900
Flags: W
HStem: -29 91<640.11 991.876> 536 90<839 1051.14 1257.04 1422> 1311 89<366.67 719.919>
VStem: 0 239<633.356 1085.37> 1091 166<293.328 499.784>
LayerCount: 2
Fore
SplineSet
1414 536 m 2
 1308 536 1257 532 1257 495 c 0
 1257 483 1262 459 1278 392 c 2
 1375 -29 l 1
 1295 -29 l 1
 1184 145 l 1
 1089 22 988 -29 829 -29 c 0
 646 -29 453 50 305 183 c 1
 166 306 72 467 27 661 c 0
 10 735 0 803 0 866 c 0
 0 1024 55 1152 164 1261 c 1
 262 1357 370 1400 520 1400 c 0
 660 1400 750 1368 896 1269 c 1
 943 1385 l 1
 1015 1385 l 1
 1164 852 l 1
 1083 852 l 1
 935 1156 750 1311 533 1311 c 0
 338 1311 239 1188 239 954 c 0
 239 870 252 772 277 661 c 0
 324 457 386 324 480 219 c 1
 567 125 707 62 828 62 c 0
 951 62 1057 126 1083 219 c 0
 1088 238 1091 261 1091 289 c 0
 1091 328 1086 374 1075 422 c 0
 1050 527 1034 536 875 536 c 2
 839 536 l 1
 818 626 l 1
 1422 626 l 1
 1443 536 l 1
 1414 536 l 2
EndSplineSet
EndChar

StartChar: H
Encoding: 41 72 209
Width: 1681
VWidth: 1900
Flags: W
HStem: 0 89<155 325.764 547.781 759 1005 1174.76 1396.94 1607> 659 103<421 1034> 1282 90<-141 70.7635 292.101 463 716 919.903 1141.1 1311>
LayerCount: 2
Fore
SplineSet
1058 659 m 1
 421 659 l 1
 532 179 l 2
 550 99 569 89 723 89 c 2
 759 89 l 1
 780 0 l 1
 155 0 l 1
 134 89 l 1
 168 89 l 2
 291 89 326 95 326 139 c 0
 326 150 324 163 320 179 c 2
 86 1193 l 2
 67 1273 47 1282 -107 1282 c 2
 -141 1282 l 1
 -162 1372 l 1
 463 1372 l 1
 484 1282 l 1
 448 1282 l 2
 326 1282 292 1276 292 1235 c 0
 292 1224 294 1210 298 1193 c 2
 397 762 l 1
 1034 762 l 1
 935 1193 l 2
 916 1273 897 1282 743 1282 c 2
 716 1282 l 1
 695 1372 l 1
 1311 1372 l 1
 1332 1282 l 1
 1298 1282 l 2
 1176 1282 1141 1276 1141 1234 c 0
 1141 1223 1143 1210 1147 1193 c 2
 1381 179 l 2
 1399 99 1419 89 1573 89 c 2
 1607 89 l 1
 1628 0 l 1
 1005 0 l 1
 984 89 l 1
 1018 89 l 2
 1140 89 1175 95 1175 138 c 0
 1175 149 1173 163 1169 179 c 2
 1058 659 l 1
EndSplineSet
EndChar

StartChar: I
Encoding: 42 73 210
Width: 871
VWidth: 1900
Flags: W
HStem: 0 89<173 345.764 568.766 781> 1282 90<-123 90.9026 312.104 485>
LayerCount: 2
Fore
SplineSet
319 1193 m 2
 553 179 l 2
 571 99 590 89 743 89 c 2
 781 89 l 1
 802 0 l 1
 173 0 l 1
 152 89 l 1
 189 89 l 2
 311 89 346 95 346 138 c 0
 346 149 344 163 340 179 c 2
 106 1193 l 2
 87 1273 68 1282 -86 1282 c 2
 -123 1282 l 1
 -144 1372 l 1
 485 1372 l 1
 506 1282 l 1
 468 1282 l 2
 347 1282 312 1276 312 1235 c 0
 312 1224 315 1210 319 1193 c 2
EndSplineSet
EndChar

StartChar: J
Encoding: 43 74 211
Width: 1155
VWidth: 1900
Flags: W
HStem: -29 91<280.038 571.172> 263 263<173.195 295.236> 1282 90<201 412.054 632.104 804>
VStem: 34 323<264.43 465.962> 627 206<117.017 519.516>
LayerCount: 2
Fore
SplineSet
439 62 m 0
 555 62 627 126 627 251 c 0
 627 306 614 383 581 526 c 2
 427 1193 l 2
 408 1273 390 1282 237 1282 c 2
 201 1282 l 1
 180 1372 l 1
 804 1372 l 1
 825 1282 l 1
 788 1282 l 2
 667 1282 632 1276 632 1235 c 0
 632 1224 635 1210 639 1193 c 2
 796 509 l 2
 821 404 833 321 833 255 c 0
 833 206 826 166 812 133 c 0
 770 26 662 -29 495 -29 c 0
 379 -29 283 -2 208 53 c 1
 127 109 63 203 42 294 c 0
 36 318 34 342 34 363 c 0
 34 461 88 526 178 526 c 0
 269 526 357 456 357 352 c 0
 357 293 321 252 265 252 c 0
 243 252 226 255 192 263 c 1
 185 263 l 2
 172 263 166 248 169 232 c 1
 194 135 324 62 439 62 c 0
EndSplineSet
EndChar

StartChar: K
Encoding: 44 75 212
Width: 1577
VWidth: 1900
Flags: W
HStem: 0 89<156 327.764 549.625 761 976 1134.98 1411.89 1605> 1282 90<-140 72.7635 293.104 465 667 848.384 1082.98 1232>
LayerCount: 2
Fore
SplineSet
852 1217 m 0
 852 1266 802 1282 714 1282 c 2
 667 1282 l 1
 646 1372 l 1
 1232 1372 l 1
 1253 1282 l 1
 1139 1282 1034 1227 965 1131 c 1
 747 847 l 1
 1360 185 l 2
 1434 104 1464 89 1569 89 c 2
 1605 89 l 1
 1626 0 l 1
 976 0 l 1
 955 89 l 1
 1014 89 l 2
 1103 89 1135 102 1135 125 c 0
 1135 146 1110 175 1077 212 c 2
 635 697 l 1
 465 475 l 1
 534 179 l 2
 552 99 570 89 724 89 c 2
 761 89 l 1
 782 0 l 1
 156 0 l 1
 135 89 l 1
 170 89 l 2
 293 89 328 95 328 139 c 0
 328 150 326 163 322 179 c 2
 88 1193 l 2
 69 1273 49 1282 -105 1282 c 2
 -140 1282 l 1
 -161 1372 l 1
 465 1372 l 1
 486 1282 l 1
 449 1282 l 2
 328 1282 293 1276 293 1235 c 0
 293 1224 296 1210 300 1193 c 2
 432 621 l 1
 790 1089 l 2
 828 1139 852 1188 852 1217 c 0
EndSplineSet
EndChar

StartChar: L
Encoding: 45 76 213
Width: 1366
VWidth: 1900
Flags: W
HStem: 0 89<167 336.764 573.915 1016.05> 1282 90<-129 81.9026 303.104 473>
VStem: 1124 84<439.266 521>
LayerCount: 2
Fore
SplineSet
1208 521 m 1
 1288 0 l 1
 167 0 l 1
 146 89 l 1
 180 89 l 2
 302 89 337 95 337 138 c 0
 337 149 335 163 331 179 c 2
 97 1193 l 2
 78 1273 59 1282 -95 1282 c 2
 -129 1282 l 1
 -150 1372 l 1
 473 1372 l 1
 494 1282 l 1
 460 1282 l 2
 338 1282 303 1276 303 1234 c 0
 303 1223 305 1210 309 1193 c 2
 542 181 l 2
 551 141 557 129 573 118 c 1
 592 102 644 89 700 89 c 2
 781 89 l 2
 940 89 1043 124 1084 199 c 0
 1111 248 1128 339 1128 438 c 0
 1128 465 1127 493 1124 521 c 1
 1208 521 l 1
EndSplineSet
EndChar

StartChar: M
Encoding: 46 77 214
Width: 1892
VWidth: 1900
Flags: W
HStem: 0 89<142 270.207 496.661 663 1212 1380.76 1603.55 1813> 1282 90<-141 72.7635 1349.1 1517>
LayerCount: 2
Fore
SplineSet
329 1372 m 1
 927 359 l 1
 1041 1372 l 1
 1517 1372 l 1
 1538 1282 l 1
 1505 1282 l 2
 1383 1282 1349 1276 1349 1235 c 0
 1349 1224 1351 1210 1355 1193 c 2
 1589 179 l 2
 1607 98 1626 89 1780 89 c 2
 1813 89 l 1
 1834 0 l 1
 1212 0 l 1
 1191 89 l 1
 1224 89 l 2
 1346 89 1381 95 1381 138 c 0
 1381 149 1379 162 1375 179 c 2
 1127 1250 l 1
 993 0 l 1
 917 0 l 1
 176 1250 l 1
 370 410 l 2
 430 151 481 97 663 89 c 1
 684 0 l 1
 142 0 l 1
 121 89 l 1
 246 95 297 122 297 223 c 0
 297 268 287 329 268 410 c 2
 88 1193 l 2
 69 1273 49 1282 -105 1282 c 2
 -141 1282 l 1
 -162 1372 l 1
 329 1372 l 1
EndSplineSet
EndChar

StartChar: N
Encoding: 47 78 215
Width: 1648
VWidth: 1900
Flags: W
HStem: 0 89<138 266.207 492.661 659> 1282 90<-160 57.3472 771 937.474 1163.73 1291>
LayerCount: 2
Fore
SplineSet
211 1372 m 1
 1201 363 l 1
 1064 959 l 2
 1003 1220 954 1274 771 1282 c 1
 750 1372 l 1
 1291 1372 l 1
 1312 1282 l 1
 1188 1277 1137 1249 1137 1149 c 0
 1137 1103 1148 1041 1167 959 c 2
 1394 -27 l 1
 1315 -27 l 1
 203 1117 l 1
 366 411 l 2
 426 150 477 97 659 89 c 1
 680 0 l 1
 138 0 l 1
 117 89 l 1
 242 95 293 121 293 223 c 0
 293 268 283 330 264 411 c 2
 77 1220 l 1
 31 1268 -17 1282 -113 1282 c 2
 -160 1282 l 1
 -181 1372 l 1
 211 1372 l 1
EndSplineSet
EndChar

StartChar: O
Encoding: 48 79 216
Width: 1577
VWidth: 1900
Flags: W
HStem: -29 91<636.181 995.988> 1311 89<368.033 725.722>
VStem: 6 229<681.523 1109.21> 1126 230<268.61 690.386>
LayerCount: 2
Fore
SplineSet
524 1400 m 0
 889 1400 1241 1088 1334 685 c 0
 1349 620 1356 557 1356 498 c 0
 1356 188 1158 -29 846 -29 c 0
 476 -29 122 279 28 684 c 0
 13 747 6 810 6 870 c 0
 6 1015 49 1146 130 1241 c 0
 222 1348 355 1400 524 1400 c 0
825 62 m 0
 1024 62 1126 189 1126 396 c 0
 1126 471 1112 561 1084 685 c 0
 1030 917 978 1035 882 1148 c 1
 790 1253 669 1311 542 1311 c 0
 336 1311 235 1187 235 976 c 0
 235 901 249 812 277 690 c 0
 331 454 380 340 479 224 c 1
 572 117 691 62 825 62 c 0
EndSplineSet
EndChar

StartChar: P
Encoding: 49 80 217
Width: 1366
VWidth: 1900
Flags: W
HStem: 0 89<153 323.764 545.781 770> 610 89<430 819.78> 1282 90<-143 68.9026 288.019 699.001>
VStem: 884 230<760.108 1082.56>
LayerCount: 2
Fore
SplineSet
430 610 m 1
 530 179 l 2
 548 99 567 89 721 89 c 2
 770 89 l 1
 791 0 l 1
 153 0 l 1
 132 89 l 1
 167 89 l 2
 289 89 324 95 324 138 c 0
 324 149 322 163 318 179 c 2
 84 1193 l 2
 65 1273 46 1282 -108 1282 c 2
 -143 1282 l 1
 -164 1372 l 1
 501 1372 l 2
 827 1372 1046 1245 1103 995 c 0
 1110 963 1114 933 1114 904 c 0
 1114 796 1064 710 970 659 c 0
 902 623 815 610 644 610 c 2
 430 610 l 1
410 699 m 1
 641 699 l 2
 804 699 884 758 884 886 c 0
 884 916 879 951 871 988 c 0
 824 1189 711 1282 513 1282 c 2
 391 1282 l 2
 314 1282 288 1277 288 1239 c 0
 288 1226 292 1208 297 1185 c 2
 410 699 l 1
EndSplineSet
EndChar

StartChar: Q
Encoding: 50 81 218
Width: 1577
VWidth: 1900
Flags: W
HStem: -359 154<1332.66 1450.58> -29 91<664.83 985.623> 414 89<606.166 842.227> 1311 89<364.445 733.747>
VStem: 8 235<645.202 1095.68> 482 93<212.613 383.883> 1125 229<281.712 704.994> 1454 91<-203.062 -39.9175>
LayerCount: 2
Fore
SplineSet
1445 -38 m 1
 1530 -38 l 1
 1540 -81 1545 -120 1545 -156 c 0
 1545 -283 1482 -359 1361 -359 c 0
 1205 -359 1080 -228 1019 0 c 1
 961 -22 922 -29 857 -29 c 0
 487 -29 120 287 28 684 c 0
 14 743 8 802 8 859 c 0
 8 1008 55 1144 144 1246 c 0
 236 1351 358 1400 514 1400 c 0
 880 1400 1242 1092 1332 702 c 0
 1347 638 1354 577 1354 518 c 0
 1354 350 1295 202 1176 81 c 1
 1289 -126 1352 -205 1407 -205 c 0
 1440 -205 1454 -184 1454 -132 c 0
 1454 -108 1451 -77 1445 -38 c 1
497 211 m 1
 486 244 482 273 482 308 c 0
 482 426 568 503 704 503 c 0
 863 503 1002 405 1093 226 c 1
 1115 282 1125 338 1125 406 c 0
 1125 482 1112 572 1085 690 c 0
 1040 884 986 1016 907 1123 c 0
 821 1241 684 1311 539 1311 c 0
 399 1311 302 1251 269 1144 c 0
 252 1091 243 1028 243 959 c 0
 243 877 255 784 278 684 c 0
 329 463 398 312 497 211 c 1
575 280 m 0
 575 138 679 62 820 62 c 0
 895 62 937 73 988 103 c 1
 944 294 852 414 714 414 c 0
 627 414 575 362 575 280 c 0
EndSplineSet
EndChar

StartChar: R
Encoding: 51 82 219
Width: 1470
VWidth: 1900
Flags: W
HStem: -29 145<1201.26 1311.46> 0 89<149 318.764 542.781 751> 665 90<414 706.088> 1282 90<-147 63.9026 295.565 695.956>
VStem: 849 232<819.086 1120.71> 1315 86<118.699 301.686>
LayerCount: 2
Fore
SplineSet
414 665 m 1xbc
 527 179 l 2
 545 99 564 89 718 89 c 2
 751 89 l 1
 772 0 l 1
 149 0 l 1
 128 89 l 1
 162 89 l 2x7c
 284 89 319 95 319 138 c 0
 319 149 317 163 313 179 c 2
 79 1193 l 2
 60 1273 41 1282 -113 1282 c 2
 -147 1282 l 1
 -168 1372 l 1
 490 1372 l 2
 809 1372 1021 1249 1071 1032 c 0
 1077 1004 1081 978 1081 953 c 0
 1081 809 970 723 743 691 c 1
 900 653 993 572 1075 398 c 1
 1135 279 l 1
 1197 148 1223 116 1266 116 c 0
 1300 116 1315 141 1315 197 c 0
 1315 225 1311 260 1304 304 c 1
 1384 304 l 1
 1395 249 1401 202 1401 161 c 0
 1401 32 1344 -29 1225 -29 c 0
 1075 -29 985 60 913 274 c 2
 881 370 l 2
 838 496 794 564 729 607 c 1
 679 642 599 665 524 665 c 2
 414 665 l 1xbc
394 755 m 1
 603 755 l 2
 694 755 773 780 812 820 c 0
 837 845 849 885 849 934 c 0
 849 963 845 995 837 1030 c 0
 797 1202 694 1282 506 1282 c 2
 403 1282 l 2
 322 1282 307 1280 295 1269 c 0
 288 1262 284 1257 284 1245 c 0
 284 1232 288 1211 297 1172 c 2
 394 755 l 1
EndSplineSet
EndChar

StartChar: S
Encoding: 52 83 220
Width: 1296
VWidth: 1900
Flags: W
HStem: -15 73<550.312 905.692> 1309 91<186.654 539.626>
VStem: -15 136<996.847 1246.03> 1005 139<142.084 416.585>
LayerCount: 2
Fore
SplineSet
817 1384 m 1
 955 889 l 1
 874 889 l 1
 827 985 774 1066 701 1144 c 0
 600 1252 479 1309 346 1309 c 0
 206 1309 121 1241 121 1136 c 0
 121 1120 123 1103 127 1085 c 0
 153 969 250 895 429 852 c 2
 645 800 l 2
 807 762 888 729 950 680 c 0
 1042 607 1104 508 1131 390 c 0
 1140 351 1144 315 1144 281 c 0
 1144 90 1008 -29 771 -29 c 0
 605 -29 489 9 338 114 c 1
 282 -15 l 1
 208 -15 l 1
 75 526 l 1
 158 526 l 1
 220 380 280 290 381 201 c 0
 492 102 604 58 745 58 c 0
 850 58 906 79 956 134 c 1
 988 171 1005 215 1005 266 c 0
 1005 377 947 455 869 506 c 0
 822 536 807 540 658 576 c 2
 468 621 l 1
 172 694 45 796 -3 1003 c 0
 -11 1039 -15 1072 -15 1104 c 0
 -15 1284 111 1400 323 1400 c 0
 457 1400 590 1355 699 1269 c 1
 747 1384 l 1
 817 1384 l 1
EndSplineSet
EndChar

StartChar: T
Encoding: 53 84 221
Width: 1366
VWidth: 1900
Flags: W
HStem: 0 89<409 592.764 816.453 1038> 1282 90<100.368 339.495 558.018 795.653>
VStem: -59 82<843 924.546>
LayerCount: 2
Fore
SplineSet
1055 843 m 1
 979 1049 867 1282 634 1282 c 0
 582 1282 558 1269 558 1237 c 0
 558 1230 559 1223 561 1215 c 2
 801 179 l 2
 819 99 836 89 989 89 c 2
 1038 89 l 1
 1059 0 l 1
 409 0 l 1
 388 89 l 1
 436 89 l 2
 558 89 593 95 593 138 c 0
 593 149 591 163 587 179 c 2
 347 1215 l 2
 336 1263 305 1282 242 1282 c 0
 113 1282 38 1212 22 1072 c 0
 18 1043 16 1011 16 977 c 0
 16 937 19 893 23 843 c 1
 -59 843 l 1
 -152 1372 l 1
 986 1372 l 1
 1136 843 l 1
 1055 843 l 1
EndSplineSet
EndChar

StartChar: U
Encoding: 54 85 222
Width: 1648
VWidth: 1900
Flags: W
HStem: -29 104<691.505 1075.69> 1282 90<-164 44.0545 265.104 437 781 947.474 1173.73 1301>
VStem: 1202 104<191.198 590.492>
LayerCount: 2
Fore
SplineSet
1177 959 m 2
 1276 528 l 2
 1296 442 1306 375 1306 317 c 0
 1306 261 1296 214 1276 171 c 0
 1215 37 1081 -29 867 -29 c 0
 653 -29 469 41 351 167 c 1
 303 220 274 281 246 382 c 1
 59 1193 l 2
 40 1273 22 1282 -131 1282 c 2
 -164 1282 l 1
 -185 1372 l 1
 437 1372 l 1
 458 1282 l 1
 422 1282 l 2
 300 1282 265 1276 265 1234 c 0
 265 1223 267 1210 271 1193 c 2
 430 502 l 2
 471 326 493 279 560 209 c 0
 643 123 765 75 894 75 c 0
 1048 75 1155 143 1190 261 c 0
 1198 287 1202 312 1202 342 c 0
 1202 389 1192 447 1170 540 c 2
 1074 959 l 1
 1013 1220 964 1274 781 1282 c 1
 760 1372 l 1
 1301 1372 l 1
 1322 1282 l 1
 1198 1277 1147 1249 1147 1149 c 0
 1147 1103 1158 1041 1177 959 c 2
EndSplineSet
EndChar

StartChar: V
Encoding: 55 86 223
Width: 1470
VWidth: 1900
Flags: W
HStem: 1282 90<-211 -47.7219 197.021 361 678 859.494 1055.69 1172>
LayerCount: 2
Fore
SplineSet
895 1136 m 0
 895 1238 832 1282 714 1282 c 2
 678 1282 l 1
 657 1372 l 1
 1172 1372 l 1
 1193 1282 l 1
 1175 1282 l 2
 1067 1282 1032 1245 1010 1097 c 1
 832 -29 l 1
 757 -29 l 1
 -3 1177 l 2
 -59 1265 -87 1282 -173 1282 c 2
 -211 1282 l 1
 -232 1372 l 1
 361 1372 l 1
 382 1282 l 1
 306 1282 l 2
 226 1282 197 1268 197 1242 c 0
 197 1226 208 1204 226 1178 c 1
 779 294 l 1
 891 1077 l 2
 894 1096 895 1117 895 1136 c 0
EndSplineSet
EndChar

StartChar: W
Encoding: 56 87 224
Width: 1963
VWidth: 1900
Flags: W
HStem: 1282 90<-185 -36.1204 192.015 331 475 642.02 886.933 1003 1193 1366.25 1538.37 1638>
LayerCount: 2
Fore
SplineSet
684 346 m 1
 735 1075 l 1
 652 1223 l 2
 626 1268 597 1282 519 1282 c 2
 475 1282 l 1
 454 1372 l 1
 1003 1372 l 1
 1024 1282 l 1
 994 1282 l 2
 919 1282 906 1281 886 1273 c 1
 872 1265 865 1247 869 1231 c 0
 872 1218 875 1214 894 1178 c 2
 1348 346 l 1
 1398 1117 l 2
 1399 1128 1400 1138 1400 1148 c 0
 1400 1245 1329 1282 1208 1282 c 2
 1193 1282 l 1
 1172 1372 l 1
 1638 1372 l 1
 1659 1282 l 1
 1651 1282 l 2
 1528 1282 1512 1216 1504 1086 c 2
 1427 -29 l 1
 1349 -29 l 1
 824 916 l 1
 761 -29 l 1
 679 -29 l 1
 -18 1209 l 1
 -57 1276 -68 1282 -148 1282 c 2
 -185 1282 l 1
 -206 1372 l 1
 331 1372 l 1
 352 1282 l 1
 266 1282 l 2
 212 1282 192 1275 192 1255 c 0
 192 1235 202 1217 214 1196 c 2
 684 346 l 1
EndSplineSet
EndChar

StartChar: X
Encoding: 57 88 225
Width: 1435
VWidth: 1900
Flags: W
HStem: 0 89<90 211.873 443.478 608 837 991.984 1248.95 1439> 1282 90<-207 -27.3376 220.015 359 564 729.26 927.639 1065>
LayerCount: 2
Fore
SplineSet
742 1189 m 0
 742 1258 687 1282 591 1282 c 2
 564 1282 l 1
 543 1372 l 1
 1065 1372 l 1
 1086 1282 l 1
 1057 1282 l 2
 956 1282 911 1247 837 1104 c 1
 664 760 l 1
 1195 188 l 2
 1281 95 1296 89 1417 89 c 2
 1439 89 l 1
 1460 0 l 1
 837 0 l 1
 816 89 l 1
 869 89 l 1
 970 91 992 92 992 111 c 0
 992 136 974 157 951 183 c 1
 575 584 l 1
 429 264 l 1
 421 243 417 223 417 204 c 0
 417 134 474 89 562 89 c 2
 608 89 l 1
 629 0 l 1
 90 0 l 1
 69 89 l 1
 79 89 l 2
 175 89 241 134 291 241 c 1
 500 669 l 1
 0 1210 l 2
 -58 1273 -81 1282 -174 1282 c 2
 -207 1282 l 1
 -228 1372 l 1
 359 1372 l 1
 380 1282 l 1
 307 1282 l 2
 241 1282 220 1277 220 1263 c 0
 220 1249 235 1229 254 1210 c 1
 590 846 l 1
 728 1144 l 2
 738 1164 742 1176 742 1189 c 0
EndSplineSet
EndChar

StartChar: Y
Encoding: 58 89 226
Width: 1435
VWidth: 1900
Flags: W
HStem: 0 89<461 645.764 867.99 1092> 1282 90<-221 -45.8438 210.013 369 619 813.164 1010.33 1137>
LayerCount: 2
Fore
SplineSet
835 1165 m 0
 835 1253 779 1282 664 1282 c 2
 619 1282 l 1
 598 1372 l 1
 1137 1372 l 1
 1158 1282 l 1
 1143 1282 l 2
 1080 1282 1025 1258 991 1218 c 1
 968 1189 953 1154 928 1079 c 2
 764 567 l 1
 854 179 l 2
 872 98 887 89 1041 89 c 2
 1092 89 l 1
 1113 0 l 1
 461 0 l 1
 440 89 l 1
 489 89 l 2
 611 89 646 95 646 138 c 0
 646 149 644 163 640 179 c 2
 555 546 l 1
 -5 1195 l 1
 -64 1265 -99 1282 -180 1282 c 2
 -221 1282 l 1
 -242 1372 l 1
 369 1372 l 1
 390 1282 l 1
 277 1282 l 2
 227 1282 210 1270 210 1253 c 0
 210 1237 226 1215 245 1193 c 2
 682 678 l 1
 821 1099 l 2
 830 1124 835 1145 835 1165 c 0
EndSplineSet
EndChar

StartChar: Z
Encoding: 59 90 227
Width: 1260
VWidth: 1900
Flags: W
HStem: 0 89<380 890.927> 1282 90<165.08 627>
VStem: -5 85<892 958.969> 981 89<442.95 528>
LayerCount: 2
Fore
SplineSet
863 1372 m 1
 879 1303 l 1
 380 89 l 1
 695 89 l 2
 818 89 912 125 946 188 c 1
 974 237 987 300 987 396 c 0
 987 435 985 478 981 528 c 1
 1070 528 l 1
 1159 0 l 1
 145 0 l 1
 129 68 l 1
 627 1282 l 1
 380 1282 l 2
 145 1282 79 1220 79 960 c 0
 79 938 79 916 80 892 c 1
 -5 892 l 1
 -77 1372 l 1
 863 1372 l 1
EndSplineSet
EndChar

StartChar: a
Encoding: 66 97 228
Width: 1155
VWidth: 1900
Flags: W
HStem: -29 102<389.002 637.832> -13 112<938.31 1084.47> 468 81<490.859 653> 833 81<246.862 537.478>
VStem: 73 159<702.748 813.85> 131 189<140.298 366.679>
LayerCount: 2
Fore
SplineSet
216 559 m 0xb8
 140 559 73 622 73 716 c 0
 73 832 204 914 395 914 c 0
 516 914 615 887 690 838 c 1
 755 793 791 732 819 612 c 2
 907 231 l 2
 928 137 955 99 1008 99 c 0
 1023 99 1030 102 1058 113 c 0
 1070 118 1077 120 1085 120 c 0
 1099 120 1111 103 1111 84 c 0
 1111 33 1040 -13 960 -13 c 0x78
 871 -13 814 25 762 121 c 1
 703 25 597 -29 466 -29 c 0
 299 -29 169 60 138 194 c 0
 134 213 131 232 131 249 c 0xb4
 131 445 408 504 653 549 c 1
 636 624 l 2
 616 710 593 755 550 785 c 1
 513 814 441 833 383 833 c 0
 301 833 232 805 232 768 c 0
 232 757 237 746 250 734 c 1
 279 702 299 677 299 635 c 0
 299 590 266 559 216 559 c 0xb8
508 73 m 0xb4
 605 73 713 145 713 256 c 0
 713 284 706 319 692 380 c 2
 672 468 l 1
 530 443 458 424 406 397 c 1
 348 365 320 323 320 267 c 0
 320 152 410 73 508 73 c 0xb4
EndSplineSet
EndChar

StartChar: b
Encoding: 67 98 229
Width: 1155
VWidth: 1900
Flags: W
HStem: -29 82<529.607 764.047> 817 97<360.897 605.267> 1298 81<-185 -31.9677>
VStem: 812 189<122.357 509.174>
LayerCount: 2
Fore
SplineSet
119 1400 m 1
 265 765 l 1
 313 873 373 914 489 914 c 0
 717 914 921 722 985 448 c 0
 996 401 1001 356 1001 313 c 0
 1001 110 881 -29 687 -29 c 0
 569 -29 468 18 366 121 c 1
 308 -29 l 1
 236 -29 l 1
 235 84 215 209 156 463 c 2
 -15 1203 l 2
 -33 1284 -49 1298 -119 1298 c 2
 -185 1298 l 1
 -203 1379 l 1
 119 1400 l 1
477 817 m 0
 366 817 310 743 310 606 c 0
 310 555 318 494 334 425 c 0
 388 191 510 53 660 53 c 0
 761 53 812 125 812 254 c 0
 812 305 804 363 789 430 c 0
 731 679 620 817 477 817 c 0
EndSplineSet
EndChar

StartChar: c
Encoding: 68 99 230
Width: 942
VWidth: 1900
Flags: W
HStem: -29 117<450.755 704.722> 833 81<304.174 514.298>
VStem: 49 192<367.397 755.244> 524 207<613.473 790> 772 79<172.375 255.263>
LayerCount: 2
Fore
SplineSet
640 559 m 0
 570 559 497 610 497 689 c 0
 497 709 504 726 519 752 c 0
 522 759 524 765 524 771 c 0
 524 809 460 833 406 833 c 0
 300 833 241 746 241 605 c 0
 241 558 248 506 261 448 c 0
 312 225 438 88 591 88 c 0
 690 88 741 143 772 279 c 1
 851 250 l 1
 817 49 738 -29 569 -29 c 0
 333 -29 129 158 66 428 c 0
 55 477 49 524 49 567 c 0
 49 775 173 914 377 914 c 0
 546 914 697 814 726 687 c 0
 729 674 731 662 731 650 c 0
 731 595 696 559 640 559 c 0
EndSplineSet
EndChar

StartChar: d
Encoding: 69 100 231
Width: 1189
VWidth: 1900
Flags: W
HStem: -29 104<453.267 685.933> -13 94<982.607 1134> 811 103<308.218 521.343> 1298 81<328 526.661>
VStem: 64 194<356.097 759.538>
LayerCount: 2
Fore
SplineSet
825 -13 m 1x78
 791 136 l 1
 755 22 687 -29 567 -29 c 0xb8
 346 -29 143 163 81 433 c 0
 69 483 64 531 64 576 c 0
 64 776 174 914 349 914 c 0
 459 914 551 870 643 774 c 1
 544 1203 l 2
 526 1284 508 1298 440 1298 c 2
 328 1298 l 1
 310 1379 l 1
 678 1400 l 1
 950 221 l 2
 978 101 997 81 1100 81 c 2
 1134 81 l 1
 1153 0 l 1
 825 -13 l 1x78
411 811 m 0
 311 811 258 729 258 613 c 0
 258 558 267 492 286 410 c 0
 335 199 446 75 579 75 c 0
 682 75 739 156 739 291 c 0
 739 431 682 586 630 667 c 1
 575 755 489 811 411 811 c 0
EndSplineSet
EndChar

StartChar: e
Encoding: 70 101 232
Width: 1049
VWidth: 1900
Flags: W
HStem: -29 104<461.249 762.533> 428 81<269 650.986> 833 81<297.095 512.796>
VStem: 54 186<509 749.253> 853 74<192.517 247.974>
LayerCount: 2
Fore
SplineSet
884 428 m 1
 269 428 l 1
 292 328 321 256 369 199 c 1
 437 116 519 75 615 75 c 0
 742 75 809 131 853 277 c 1
 927 241 l 1
 891 60 784 -29 603 -29 c 0
 346 -29 132 152 70 418 c 0
 59 467 54 513 54 557 c 0
 54 769 179 914 381 914 c 0
 615 914 819 712 884 428 c 1
396 833 m 0
 289 833 240 748 240 610 c 0
 240 578 244 547 252 509 c 1
 584 509 l 2
 632 509 651 519 651 548 c 0
 651 557 649 568 646 580 c 0
 611 733 512 833 396 833 c 0
EndSplineSet
EndChar

StartChar: f
Encoding: 71 102 233
Width: 731
VWidth: 1900
Flags: W
HStem: 0 68<153 270.6 468.246 645> 803 83<-49 100 297 486> 1324 76<273.966 440.02>
VStem: 60 166<913.094 1282.57> 429 216<1140.45 1303.71>
LayerCount: 2
Fore
SplineSet
370 1324 m 0
 288 1324 226 1262 226 1164 c 0
 226 1125 235 1069 253 994 c 1
 277 886 l 1
 486 886 l 1
 506 803 l 1
 297 803 l 1
 446 158 l 2
 463 82 487 68 610 68 c 2
 645 68 l 1
 661 0 l 1
 153 0 l 1
 137 68 l 1
 146 68 l 2
 242 68 273 77 273 119 c 0
 273 130 271 143 268 158 c 2
 119 803 l 1
 -49 803 l 1
 -69 886 l 1
 100 886 l 1
 86 944 l 1
 69 1020 60 1078 60 1128 c 0
 60 1307 175 1400 351 1400 c 0
 505 1400 615 1332 641 1222 c 0
 644 1210 645 1199 645 1189 c 0
 645 1139 614 1105 562 1105 c 0
 503 1105 429 1158 429 1229 c 0
 429 1249 441 1271 441 1289 c 0
 441 1315 411 1324 370 1324 c 0
EndSplineSet
EndChar

StartChar: g
Encoding: 72 103 234
Width: 1118
VWidth: 1900
Flags: W
HStem: -384 75<428.452 836.645> -23 164<372.938 879.375> 292 73<375.409 595.377> 833 81<279.025 518.73> 836 105<694.509 826.5>
VStem: 66 171<507.107 796.724> 148 119<156.243 275.189> 183 154<-240.565 -64.8787> 642 174<400.691 695.344> 773 168<754.145 833.247> 922 128<-250.452 -68.5209>
LayerCount: 2
Fore
SplineSet
788 941 m 0xec
 865 941 941 888 941 808 c 0
 941 768 914 739 873 739 c 0
 825 739 792 764 773 809 c 1xec40
 765 831 757 836 747 836 c 0
 732 836 717 825 693 790 c 1
 760 727 789 680 807 604 c 0
 813 578 816 553 816 529 c 0
 816 439 773 368 691 328 c 1
 635 299 608 295 428 292 c 1
 315 289 267 268 267 224 c 0xea80
 267 194 285 168 303 158 c 0
 329 145 334 143 439 141 c 1
 633 141 l 2
 764 141 829 132 882 114 c 1
 971 80 1050 -26 1050 -156 c 0
 1050 -308 910 -384 633 -384 c 0
 379 -384 216 -317 187 -191 c 0
 184 -180 183 -169 183 -158 c 0xe920
 183 -96 229 -46 321 -10 c 1
 225 20 175 71 155 154 c 0
 151 173 148 190 148 206 c 0xea
 148 278 194 320 293 344 c 1
 183 389 101 486 75 599 c 0
 69 626 66 651 66 675 c 0
 66 822 180 914 375 914 c 0xf4
 469 914 536 894 628 841 c 1
 697 921 726 941 788 941 c 0xec
237 679 m 0
 237 497 356 365 492 365 c 0
 589 365 642 422 642 521 c 0
 642 545 639 572 632 602 c 0
 598 748 512 833 392 833 c 0xf480
 290 833 237 778 237 679 c 0
573 -23 m 2
 432 -23 l 1
 366 -63 337 -97 337 -143 c 0
 337 -153 339 -163 341 -174 c 0
 361 -260 463 -309 622 -309 c 0
 814 -309 922 -256 922 -165 c 0xe120
 922 -81 858 -36 773 -27 c 0xe040
 744 -24 731 -23 573 -23 c 2
EndSplineSet
EndChar

